{
.appVersion = "3223";
.formatVersion = 3;
axes = (
{
name = "Optical size";
tag = opsz;
}
);
customParameters = (
{
name = "Use Typo Metrics";
value = 1;
},
{
name = fsType;
value = (
);
},
{
name = "Variable Font Origin";
value = m004;
},
{
name = "Axis Mappings";
value = {
opsz = {
12 = 12;
24 = 24;
};
};
}
);
date = "2021-12-21 15:11:59 +0000";
familyName = "Hedvig Letters Serif";
featurePrefixes = (
{
automatic = 1;
code = "languagesystem DFLT dflt;

languagesystem latn dflt;
languagesystem latn AZE;
languagesystem latn CRT;
languagesystem latn KAZ;
languagesystem latn TAT;
languagesystem latn TRK;
languagesystem latn ROM;
languagesystem latn MOL;
languagesystem latn NLD;
languagesystem latn CAT;
";
name = Languagesystems;
}
);
features = (
{
automatic = 1;
code = "feature locl;
feature subs;
feature sinf;
feature sups;
feature numr;
feature dnom;
feature frac;
feature ordn;
feature calt;
feature ss01;
feature case;
";
tag = aalt;
},
{
automatic = 1;
code = "lookup ccmp_Other_1 {
	@CombiningTopAccents = [acutecomb brevecomb caroncomb circumflexcomb commaturnedabovecomb dieresiscomb dotaccentcomb gravecomb hungarumlautcomb macroncomb ringcomb tildecomb];
	lookupflag UseMarkFilteringSet @CombiningTopAccents;
	sub i' @CombiningTopAccents by idotless;
	sub j' @CombiningTopAccents by jdotless;
} ccmp_Other_1;
";
tag = ccmp;
},
{
automatic = 1;
code = "script latn;
language AZE;
lookup locl_latn_0 {
	sub i by idotaccent;
} locl_latn_0;
language CRT;
lookup locl_latn_0;
language KAZ;
lookup locl_latn_0;
language TAT;
lookup locl_latn_0;
language TRK;
lookup locl_latn_0;

script latn;
language ROM;
lookup locl_latn_1 {
	sub Scedilla by Scommaaccent;
	sub scedilla by scommaaccent;
	sub Tcedilla by Tcommaaccent;
	sub tcedilla by tcommaaccent;
} locl_latn_1;
language MOL;
lookup locl_latn_1;

script latn;
language NLD;
lookup locl_latn_2 {
	sub I J by I_J.loclNLD;
	sub i j by i_j.loclNLD;
} locl_latn_2;

script latn;
language CAT;
lookup locl_latn_3 {

glyphs = (
{
color = 6;
glyphname = A;
kernLeft = A;
kernRight = A;
lastChange = "2023-10-18 14:24:06 +0000";
layers = (
{
anchors = (
{
name = bottom;
pos = (365,0);
},
{
name = ogonek;
pos = (660,0);
},
{
name = top;
pos = (363,700);
}
);
layerId = "CFBFE906-6BC9-42DE-B086-7F9578F7A428";
shapes = (
{
closed = 1;
nodes = (
(258,0,l),
(258,40,l),
(229,42,ls),
(174,46,o),
(153,77,o),
(174,131,cs),
(357,611,l),
(329,611,l),
(513,131,ls),
(534,77,o),
(526,48,o),
(467,43,cs),
(434,40,l),
(434,0,l),
(729,0,l),
(729,40,l),
(706,42,ls),
(653,47,o),
(634,77,o),
(613,131,cs),
(389,705,l),
(343,705,l),
(112,131,ls),
(90,77,o),
(71,53,o),
(28,45,cs),
(0,40,l),
(0,0,l)
);
},
{
closed = 1;
nodes = (
(508,263,l),
(508,311,l),
(206,311,l),
(206,263,l)
);
}
);
width = 728;
},
{
anchors = (
{
name = bottom;
pos = (355,0);
},
{
name = ogonek;
pos = (652,0);
},
{
name = top;
pos = (353,700);
}
);
layerId = m004;
shapes = (
{
closed = 1;
nodes = (
(226,0,l),
(226,30,l),
(197,33,ls),
(146,38,o),
(133,63,o),
(158,127,cs),
(347,611,l),
(316,611,l),
(512,115,ls),
(532,65,o),
(520,40,o),
(478,35,cs),
(437,30,l),
(437,0,l),
(722,0,l),
(722,30,l),
(722,30,l),
(658,36,o),
(634,60,o),
(610,121,cs),
(376,705,l),
(343,705,l),
(110,135,ls),
(76,51,o),
(64,41,o),
(-12,30,c),
(-12,30,l),
(-12,0,l)
);
},
{
closed = 1;
nodes = (
(501,271,l),
(501,311,l),
(199,311,l),
(199,271,l)
);
}
);
width = 715;
}
);
unicode = 65;
},
{
color = 6;
glyphname = AE;
kernRight = E;
lastChange = "2023-10-18 14:24:06 +0000";
layers = (
{
anchors = (
{
name = bottom;
pos = (299,0);
},
{
name = top;
pos = (299,700);
}
);
layerId = "CFBFE906-6BC9-42DE-B086-7F9578F7A428";
shapes = (
{
closed = 1;
nodes = (
(921,191,l),
(879,191,l),
(854,89,o),
(808,49,o),
(715,49,cs),
(622,49,o),
(589,45,o),
(589,108,cs),
(589,334,l),
(788,334,ls),
(836,334,o),
(852,317,o),
(855,265,cs),
(856,249,l),
(896,249,l),
(896,467,l),
(856,467,l),
(855,451,ls),
(852,399,o),
(836,382,o),
(788,382,cs),
(589,382,l),
(589,652,l),
(745,652,ls),
(814,652,o),
(850,620,o),
(868,544,c),
(909,544,l),
(894,706,l),
(847,700,o),
(800,700,o),
(753,700,cs),
(332,700,l),
(332,660,l),
(373,656,ls),
(417,652,o),
(432,641,o),
(401,590,cs),
(124,135,ls),
(78,60,o),
(58,41,o),
(-8,30,c),
(-8,0,l),
(243,0,l),
(243,30,l),
(207,33,ls),
(156,37,o),
(151,69,o),
(185,127,cs),
(307,334,l),
(497,334,l),
(497,108,ls),
(497,59,o),
(477,44,o),
(408,41,cs),
(387,40,l),
(387,0,l),
(751,0,ls),
(784,0,o),
(843,-2,o),
(895,-6,c)
);
},
{
closed = 1;
nodes = (
(445,568,ls),
(464,600,o),
(479,629,o),
(492,656,c),
(497,656,l),
(497,382,l),
(335,382,l)
);
}
);
width = 980;
},
{
anchors = (
{
name = bottom;
pos = (357,0);
},
{
name = top;
pos = (357,700);
}
);
layerId = m004;
shapes = (
{
closed = 1;
nodes = (
(909,191,l),
(878,191,l),
(848,70,o),
(814,37,o),
(703,37,cs),
(597,37,o),
(577,50,o),
(577,102,cs),
(577,337,l),
(786,337,ls),
(832,337,o),
(852,321,o),
(853,283,cs),
(854,249,l),
(884,249,l),
(884,467,l),
(854,467,l),
(852,441,ls),
(848,392,o),
(832,377,o),
(786,377,cs),
(577,377,l),
(577,660,l),
(733,660,ls),
(816,660,o),
(848,632,o),
(867,544,c),
(897,544,l),
(882,706,l),
(844,702,o),
(805,700,o),
(741,700,cs),
(335,700,l),
(335,670,l),
(376,666,ls),
(416,662,o),
(435,652,o),
(410,611,cs),
(117,135,ls),
(71,60,o),
(51,41,o),
(-15,30,c),
(-15,0,l),
(227,0,l),
(227,30,l),
(191,33,ls),
(140,37,o),
(135,69,o),
(169,127,cs),
(293,337,l),
(485,337,l),
(485,102,ls),
(485,55,o),
(470,38,o),
(426,34,cs),
(385,30,l),
(385,0,l),
(739,0,ls),
(779,0,o),
(834,-2,o),
(883,-6,c)
);
},
{
closed = 1;
nodes = (
(433,574,ls),
(452,606,o),
(467,634,o),
(480,661,c),
(485,661,l),
(485,377,l),
(317,377,l)
);
}
);
width = 955;
}
);
unicode = 198;
},
{
color = 6;
glyphname = B;
kernLeft = H;
lastChange = "2023-10-18 14:24:06 +0000";
layers = (
{
anchors = (
{
name = bottom;
pos = (336,0);
},
{
name = top;
pos = (336,700);
}
);
layerId = "CFBFE906-6BC9-42DE-B086-7F9578F7A428";
shapes = (
{
closed = 1;
nodes = (
(371,0,ls),
(527,0,o),
(619,72,o),
(619,195,cs),
(619,289,o),
(565,346,o),
(455,366,c),
(556,388,o),
(609,445,o),
(609,531,cs),
(609,642,o),
(524,700,o),
(360,700,cs),
(43,700,l),
(43,660,l),
(64,659,ls),
(133,656,o),
(153,641,o),
(153,592,cs),
(153,108,ls),
(153,59,o),
(133,44,o),
(64,41,cs),
(43,40,l),
(43,0,l)
);
},
{
closed = 1;
nodes = (
(273,42,o),
(247,61,o),
(247,108,cs),
(247,332,l),
(354,332,ls),
(463,332,o),
(521,284,o),
(521,193,cs),
(521,96,o),
(457,42,o),
(338,42,cs)
);
},
{
closed = 1;
nodes = (
(247,622,ls),
(247,648,o),
(273,658,o),
(337,658,cs),
(454,658,o),
(511,614,o),
(511,528,cs),
(511,438,o),
(450,378,o),
(356,378,cs),
(247,378,l)
);
}
);
width = 682;
},
{
anchors = (
{
name = bottom;
pos = (318,0);
},
{
name = top;
pos = (318,700);
}
);
layerId = m004;
shapes = (
{
closed = 1;
nodes = (
(332,0,ls),
(525,0,o),
(596,89,o),
(596,195,cs),
(596,289,o),
(542,346,o),
(414,361,c),
(529,387,o),
(586,442,o),
(586,531,cs),
(586,640,o),
(504,700,o),
(327,700,cs),
(30,700,l),
(30,670,l),
(71,666,ls),
(115,662,o),
(130,645,o),
(130,598,cs),
(130,102,ls),
(130,55,o),
(115,38,o),
(71,34,cs),
(30,30,l),
(30,0,l)
);
},
{
closed = 1;
nodes = (
(245,40,o),
(224,51,o),
(224,78,cs),
(224,335,l),
(331,335,ls),
(440,335,o),
(498,285,o),
(498,193,cs),
(498,96,o),
(434,40,o),
(315,40,cs)
);
},
{
closed = 1;
nodes = (
(224,629,ls),
(224,650,o),
(258,660,o),
(317,660,cs),
(436,660,o),
(488,610,o),
(488,528,cs),
(488,431,o),
(421,375,o),
(333,375,cs),
(224,375,l)
);
}
);
width = 641;
}
);
unicode = 66;
},
{
color = 6;
glyphname = C;
kernLeft = O;
kernRight = C;
lastChange = "2023-10-18 14:24:06 +0000";
layers = (
{
anchors = (
{
name = bottom;
pos = (411,0);
},
{
name = top;
pos = (401,700);
}
);
layerId = "CFBFE906-6BC9-42DE-B086-7F9578F7A428";
shapes = (
{
closed = 1;
nodes = (
(493,-10,o),
(576,4,o),
(671,42,c),
(671,201,l),
(629,201,l),
(594,71,o),
(536,42,o),
(440,42,cs),
(251,42,o),
(152,202,o),
(152,366,cs),
(152,537,o),
(251,658,o),
(425,658,cs),
(551,658,o),
(619,600,o),
(640,520,c),
(681,520,l),
(681,654,l),
(619,683,o),
(548,710,o),
(441,710,cs),
(206,710,o),
(51,543,o),
(51,340,cs),
(51,138,o),
(196,-10,o),
(423,-10,cs)
);
}
);
width = 734;
},
{
anchors = (
{
name = bottom;
pos = (399,0);
},
{
name = top;
pos = (389,700);
}
);
layerId = m004;
shapes = (
{
closed = 1;
nodes = (
(481,-10,o),
(564,4,o),
(659,42,c),
(659,201,l),
(629,201,l),
(587,52,o),
(524,32,o),
(425,32,cs),
(239,32,o),
(140,202,o),
(140,366,cs),
(140,537,o),
(239,668,o),
(413,668,cs),
(522,668,o),
(614,622,o),
(639,520,c),
(669,520,l),
(669,654,l),
(585,695,o),
(514,710,o),
(429,710,cs),
(194,710,o),
(39,543,o),
(39,340,cs),
(39,138,o),
(184,-10,o),
(411,-10,cs)
);
}
);
width = 709;
}
);
unicode = 67;
},
{
color = 6;
glyphname = D;
kernLeft = H;
kernRight = D;
lastChange = "2023-10-18 14:24:06 +0000";
layers = (
{
anchors = (
{
name = bottom;
pos = (410,0);
},
{
name = center;
pos = (410,350);
},
{
name = top;
pos = (410,700);
}
);
layerId = "CFBFE906-6BC9-42DE-B086-7F9578F7A428";
shapes = (
{
closed = 1;
nodes = (
(377,0,ls),
(629,0,o),
(769,138,o),
(769,360,cs),
(769,577,o),
(621,700,o),
(377,700,cs),
(43,700,l),
(43,660,l),
(64,659,ls),
(133,656,o),
(153,640,o),
(153,592,cs),
(153,108,ls),
(153,60,o),
(133,44,o),
(64,41,cs),
(43,40,l),
(43,0,l)
);
},
{
closed = 1;
nodes = (
(280,48,o),
(247,63,o),
(247,119,cs),
(247,646,l),
(293,651,o),
(333,653,o),
(377,653,cs),
(545,653,o),
(668,528,o),
(668,332,cs),
(668,149,o),
(563,48,o),
(395,48,cs)
);
}
);
width = 822;
},
{
anchors = (
{
name = bottom;
pos = (392,0);
},
{
name = center;
pos = (392,350);
},
{
name = top;
pos = (392,700);
}
);
layerId = m004;
shapes = (
{
closed = 1;
nodes = (
(354,0,ls),
(586,0,o),
(746,138,o),
(746,360,cs),
(746,584,o),
(601,700,o),
(350,700,cs),
(30,700,l),
(30,670,l),
(71,666,ls),
(115,662,o),
(130,645,o),
(130,598,cs),
(130,102,ls),
(130,55,o),
(115,38,o),
(71,34,cs),
(30,30,l),
(30,0,l)
);
},
{
closed = 1;
nodes = (
(246,40,o),
(224,49,o),
(224,99,cs),
(224,658,l),
(277,662,o),
(308,664,o),
(343,664,cs),
(517,664,o),
(645,534,o),
(645,332,cs),
(645,143,o),
(535,40,o),
(354,40,cs)
);
}
);
width = 787;
}
);
unicode = 68;
},
{
color = 3;
glyphname = Eth;
kernLeft = H;
kernRight = D;
lastChange = "2023-10-18 14:24:06 +0000";
layers = (
{
guides = (
{
angle = 90;
pos = (376,40);
}
);
layerId = "CFBFE906-6BC9-42DE-B086-7F9578F7A428";
shapes = (
{
closed = 1;
nodes = (
(375,332,l),
(375,380,l),
(50,380,l),
(50,332,l)
);
},
{
pos = (4,0);
ref = D;
}
);
width = 826;
},
{
guides = (
{
angle = 90;
pos = (27,336);
}
);
layerId = m004;
shapes = (
{
closed = 1;
nodes = (
(356,336,l),
(356,376,l),
(36,376,l),
(36,336,l)
);
},
{
pos = (3,0);
ref = D;
}
);
width = 790;
}
);
unicode = 208;
},
{
color = 6;
glyphname = E;
kernLeft = H;
kernRight = E;
lastChange = "2023-10-18 14:24:06 +0000";
layers = (
{
anchors = (
{
name = bottom;
pos = (308,0);
},
{
name = ogonek;
pos = (456,0);
},
{
name = top;
pos = (321,700);
},
{
name = topleft;
pos = (25,700);
}
);
guides = (
{
pos = (919,459);
},
{
pos = (934,544);
},
{
pos = (934,231);
}
);
layerId = "CFBFE906-6BC9-42DE-B086-7F9578F7A428";
shapes = (
{
closed = 1;
nodes = (
(579,191,l),
(537,191,l),
(512,89,o),
(466,49,o),
(373,49,cs),
(280,49,o),
(247,45,o),
(247,108,cs),
(247,334,l),
(446,334,ls),
(494,334,o),
(510,317,o),
(513,265,cs),
(514,249,l),
(554,249,l),
(554,467,l),
(514,467,l),
(513,451,ls),
(510,399,o),
(494,382,o),
(446,382,cs),
(247,382,l),
(247,652,l),
(403,652,ls),
(472,652,o),
(508,620,o),
(526,544,c),
(567,544,l),
(552,706,l),
(505,700,o),
(458,700,o),
(411,700,cs),
(43,700,l),
(43,660,l),
(64,659,ls),
(133,656,o),
(153,641,o),
(153,592,cs),
(153,108,ls),
(153,59,o),
(133,44,o),
(64,41,cs),
(43,40,l),
(43,0,l),
(409,0,ls),
(442,0,o),
(501,-2,o),
(553,-6,c)
);
}
);
width = 638;
},
{
anchors = (
{
name = bottom;
pos = (290,0);
},
{
name = ogonek;
pos = (446,0);
},
{
name = top;
pos = (300,700);
},
{
name = topleft;
pos = (12,700);
}
);
guides = (
{
pos = (561,459);
},
{
pos = (576,544);
},
{
pos = (576,231);
}
);
layerId = m004;
shapes = (
{
closed = 1;
nodes = (
(556,191,l),
(525,191,l),
(495,70,o),
(461,37,o),
(350,37,cs),
(244,37,o),
(224,50,o),
(224,102,cs),
(224,337,l),
(433,337,ls),
(479,337,o),
(499,321,o),
(500,283,cs),
(501,249,l),
(531,249,l),
(531,467,l),
(501,467,l),
(499,441,ls),
(495,392,o),
(479,377,o),
(433,377,cs),
(224,377,l),
(224,660,l),
(380,660,ls),
(463,660,o),
(495,632,o),
(514,544,c),
(544,544,l),
(529,706,l),
(491,702,o),
(452,700,o),
(388,700,cs),
(30,700,l),
(30,670,l),
(71,666,ls),
(115,662,o),
(130,645,o),
(130,598,cs),
(130,102,ls),
(130,55,o),
(115,38,o),
(71,34,cs),
(30,30,l),
(30,0,l),
(386,0,ls),
(426,0,o),
(481,-2,o),
(530,-6,c)
);
}
);
width = 602;
}
);
unicode = 69;
},
{
color = 6;
glyphname = F;
kernLeft = H;
lastChange = "2023-10-18 14:24:06 +0000";
layers = (
{
anchors = (
{
name = bottom;
pos = (301,0);
},
{
name = top;
pos = (301,700);
}
);
layerId = "CFBFE906-6BC9-42DE-B086-7F9578F7A428";
shapes = (
{
closed = 1;
nodes = (
(367,0,l),
(367,40,l),
(346,41,ls),
(268,45,o),
(247,59,o),
(247,108,cs),
(247,321,l),
(437,321,ls),
(485,321,o),
(502,304,o),
(504,252,cs),
(505,231,l),
(545,231,l),
(545,459,l),
(505,459,l),
(504,438,ls),
(502,386,o),
(485,369,o),
(437,369,cs),
(247,369,l),
(247,652,l),
(394,652,ls),
(463,652,o),
(499,620,o),
(517,544,c),
(558,544,l),
(544,706,l),
(497,700,o),
(450,700,o),
(403,700,cs),
(43,700,l),
(43,660,l),
(64,659,ls),
(133,656,o),
(153,641,o),
(153,592,cs),
(153,108,ls),
(153,59,o),
(133,44,o),
(64,41,cs),
(43,40,l),
(43,0,l)
);
}
);
width = 610;
},
{
anchors = (
{
name = bottom;
pos = (283,0);
},
{
name = top;
pos = (283,700);
}
);
layerId = m004;
shapes = (
{
closed = 1;
nodes = (
(334,0,l),
(334,30,l),
(283,36,ls),
(240,41,o),
(224,62,o),
(224,111,cs),
(224,324,l),
(424,324,ls),
(470,324,o),
(490,308,o),
(491,271,cs),
(492,231,l),
(522,231,l),
(522,459,l),
(492,459,l),
(490,428,ls),
(487,380,o),
(471,364,o),
(424,364,cs),
(224,364,l),
(224,660,l),
(371,660,ls),
(454,660,o),
(486,632,o),
(505,544,c),
(535,544,l),
(521,706,l),
(483,702,o),
(444,700,o),
(380,700,cs),
(30,700,l),
(30,670,l),
(71,666,ls),
(116,661,o),
(130,644,o),
(130,598,cs),
(130,102,ls),
(130,56,o),
(116,39,o),
(71,34,cs),
(30,30,l),
(30,0,l)
);
}
);
width = 575;
}
);
unicode = 70;
},
{
color = 6;
glyphname = G;
kernLeft = O;
kernRight = G;
lastChange = "2023-10-18 14:24:06 +0000";
layers = (
{
anchors = (
{
name = bottom;
pos = (411,0);
},
{
name = top;
pos = (401,700);
}
);
layerId = "CFBFE906-6BC9-42DE-B086-7F9578F7A428";
shapes = (
{
closed = 1;
nodes = (
(206,710,o),
(51,543,o),
(51,340,cs),
(51,138,o),
(196,-10,o),
(422,-10,cs),
(518,-10,o),
(593,15,o),
(649,39,c),
(649,212,ls),
(649,254,o),
(659,274,o),
(698,278,cs),
(719,280,l),
(719,320,l),
(440,320,l),
(440,280,l),
(461,279,ls),
(544,275,o),
(560,257,o),
(560,222,cs),
(560,108,ls),
(560,49,o),
(503,42,o),
(450,42,cs),
(251,42,o),
(152,202,o),
(152,366,cs),
(152,537,o),
(251,658,o),
(425,658,cs),
(551,658,o),
(619,600,o),
(640,520,c),
(681,520,l),
(681,654,l),
(619,683,o),
(548,710,o),
(442,710,cs)
);
}
);
width = 759;
},
{
anchors = (
{
name = bottom;
pos = (399,0);
},
{
name = top;
pos = (389,700);
}
);
layerId = m004;
shapes = (
{
closed = 1;
nodes = (
(205,710,o),
(39,553,o),
(39,340,cs),
(39,132,o),
(190,-10,o),
(410,-10,cs),
(486,-10,o),
(560,6,o),
(637,39,c),
(637,222,ls),
(637,267,o),
(650,285,o),
(686,288,cs),
(707,290,l),
(707,320,l),
(428,320,l),
(428,290,l),
(449,289,ls),
(524,285,o),
(548,271,o),
(548,232,cs),
(548,89,ls),
(548,48,o),
(517,32,o),
(438,32,cs),
(265,32,o),
(140,172,o),
(140,366,cs),
(140,548,o),
(249,668,o),
(413,668,cs),
(522,668,o),
(614,622,o),
(639,520,c),
(669,520,l),
(669,654,l),
(585,695,o),
(514,710,o),
(430,710,cs)
);
}
);
width = 734;
}
);
unicode = 71;
},
{
color = 6;
glyphname = H;
kernLeft = H;
kernRight = H;
lastChange = "2023-10-18 14:24:06 +0000";
layers = (
{
anchors = (
{
name = bottom;
pos = (440,0);
},
{
name = center;
pos = (440,350);
},
{
name = top;
pos = (440,700);
},
{
name = topleft;
pos = (25,700);
}
);
layerId = "CFBFE906-6BC9-42DE-B086-7F9578F7A428";
shapes = (
{
closed = 1;
nodes = (
(837,0,l),
(837,40,l),
(816,41,ls),
(737,45,o),
(727,66,o),
(727,108,cs),
(727,592,ls),
(727,634,o),
(737,655,o),
(816,659,cs),
(837,660,l),
(837,700,l),
(523,700,l),
(523,660,l),
(544,659,ls),
(623,655,o),
(633,634,o),
(633,592,cs),
(633,108,ls),
(633,66,o),
(623,45,o),
(544,41,cs),
(523,40,l),
(523,0,l)
);
},
{
closed = 1;
nodes = (
(357,0,l),
(357,40,l),
(336,41,ls),
(257,45,o),
(247,66,o),
(247,108,cs),
(247,592,ls),
(247,634,o),
(257,655,o),
(336,659,cs),
(357,660,l),
(357,700,l),
(43,700,l),
(43,660,l),
(64,659,ls),
(143,655,o),
(153,634,o),
(153,592,cs),
(153,108,ls),
(153,66,o),
(143,45,o),
(64,41,cs),
(43,40,l),
(43,0,l)
);
},
{
closed = 1;
nodes = (
(667,345,l),
(667,393,l),
(203,393,l),
(203,345,l)
);
}
);
width = 880;
},
{
anchors = (
{
name = bottom;
pos = (417,0);
},
{
name = center;
pos = (417,350);
},
{
name = top;
pos = (417,700);
},
{
name = topleft;
pos = (12,700);
}
);
layerId = m004;
shapes = (
{
closed = 1;
nodes = (
(804,0,l),
(804,30,l),
(763,34,ls),
(714,39,o),
(704,60,o),
(704,102,cs),
(704,598,ls),
(704,640,o),
(714,661,o),
(763,666,cs),
(804,670,l),
(804,700,l),
(510,700,l),
(510,670,l),
(551,666,ls),
(600,661,o),
(610,640,o),
(610,598,cs),
(610,102,ls),
(610,60,o),
(600,39,o),
(551,34,cs),
(510,30,l),
(510,0,l)
);
},
{
closed = 1;
nodes = (
(324,0,l),
(324,30,l),
(283,34,ls),
(234,39,o),
(224,60,o),
(224,102,cs),
(224,598,ls),
(224,640,o),
(234,661,o),
(283,666,cs),
(324,670,l),
(324,700,l),
(30,700,l),
(30,670,l),
(71,666,ls),
(120,661,o),
(130,640,o),
(130,598,cs),
(130,102,ls),
(130,60,o),
(120,39,o),
(71,34,cs),
(30,30,l),
(30,0,l)
);
},
{
closed = 1;
nodes = (
(644,349,l),
(644,389,l),
(180,389,l),
(180,349,l)
);
}
);
width = 834;
}
);
unicode = 72;
},
{
color = 3;
glyphname = Hbar;
kernLeft = H;
kernRight = H;
lastChange = "2023-10-18 14:24:06 +0000";
layers = (
{
guides = (
{
angle = 90;
pos = (770,700);
},
{
angle = 90;
pos = (373,660);
},
{
angle = 90;
pos = (1167,660);
}
);
layerId = "CFBFE906-6BC9-42DE-B086-7F9578F7A428";
shapes = (
{
closed = 1;
nodes = (
(840,505,l),
(840,553,l),
(46,553,l),
(46,505,l)
);
},
{
pos = (3,0);
ref = H;
}
);
width = 885;
},
{
guides = (
{
angle = 90;
pos = (26,670);
},
{
angle = 90;
pos = (800,670);
}
);
layerId = m004;
shapes = (
{
closed = 1;
nodes = (
(804,509,l),
(804,549,l),
(30,549,l),
(30,509,l)
);
},
{
ref = H;
}
);
width = 834;
}
);
unicode = 294;
},
{
color = 6;
glyphname = I;
kernLeft = H;
kernRight = H;
lastChange = "2023-10-18 14:24:06 +0000";
layers = (
{
anchors = (
{
name = bottom;
pos = (200,0);
},
{
name = ogonek;
pos = (278,0);
},
{
name = top;
pos = (200,700);
},
{
name = topleft;
pos = (25,700);
}
);
layerId = "CFBFE906-6BC9-42DE-B086-7F9578F7A428";
shapes = (
{
closed = 1;
nodes = (
(357,0,l),
(357,40,l),
(336,41,ls),
(257,45,o),
(247,66,o),
(247,108,cs),
(247,592,ls),
(247,634,o),
(257,655,o),
(336,659,cs),
(357,660,l),
(357,700,l),
(43,700,l),
(43,660,l),
(64,659,ls),
(143,655,o),
(153,634,o),
(153,592,cs),
(153,108,ls),
(153,66,o),
(143,45,o),
(64,41,cs),
(43,40,l),
(43,0,l)
);
}
);
width = 400;
},
{
anchors = (
{
name = bottom;
pos = (177,0);
},
{
name = ogonek;
pos = (254,0);
},
{
name = top;
pos = (177,700);
},
{
name = topleft;
pos = (12,700);
}
);
layerId = m004;
shapes = (
{
closed = 1;
nodes = (
(324,0,l),
(324,30,l),
(283,34,ls),
(234,39,o),
(224,60,o),
(224,102,cs),
(224,598,ls),
(224,640,o),
(234,661,o),
(283,666,cs),
(324,670,l),
(324,700,l),
(30,700,l),
(30,670,l),
(71,666,ls),
(120,661,o),
(130,640,o),
(130,598,cs),
(130,102,ls),
(130,60,o),
(120,39,o),
(71,34,cs),
(30,30,l),
(30,0,l)
);
}
);
width = 354;
}
);
unicode = 73;
},
{
color = 6;
glyphname = J;
kernLeft = J;
kernRight = J;
lastChange = "2023-10-18 14:24:06 +0000";
layers = (
{
anchors = (
{
name = bottom;
pos = (233,0);
},
{
name = top;
pos = (282,700);
}
);
background = {
shapes = (
{
closed = 1;
nodes = (
(261,-10,o),
(330,100,o),
(330,241,cs),
(330,598,ls),
(330,645,o),
(345,662,o),
(389,666,cs),
(430,670,l),
(430,700,l),
(126,700,l),
(126,670,l),
(177,666,ls),
(221,663,o),
(236,645,o),
(236,598,cs),
(236,202,ls),
(236,111,o),
(230,46,o),
(186,46,cs),
(179,46,o),
(171,48,o),
(162,51,cs),
(68,86,ls),
(44,96,o),
(4,74,o),
(4,41,cs),
(4,13,o),
(43,-10,o),
(105,-10,cs)
);
}
);
};
layerId = "CFBFE906-6BC9-42DE-B086-7F9578F7A428";
shapes = (
{
closed = 1;
nodes = (
(261,-10,o),
(330,100,o),
(330,241,cs),
(330,596,ls),
(330,640,o),
(352,655,o),
(419,659,cs),
(435,660,l),
(435,700,l),
(121,700,l),
(121,660,l),
(147,659,ls),
(213,656,o),
(236,640,o),
(236,596,cs),
(236,202,ls),
(236,121,o),
(230,56,o),
(182,56,cs),
(175,56,o),
(160,57,o),
(147,62,cs),
(77,87,ls),
(44,99,o),
(4,83,o),
(4,41,cs),
(4,13,o),
(43,-10,o),
(105,-10,cs)
);
}
);
width = 463;
},
{
anchors = (
{
name = bottom;
pos = (219,0);
},
{
name = top;
pos = (268,700);
}
);
layerId = m004;
shapes = (
{
closed = 1;
nodes = (
(249,-10,o),
(318,100,o),
(318,241,cs),
(318,598,ls),
(318,645,o),
(333,662,o),
(377,666,cs),
(418,670,l),
(418,700,l),
(114,700,l),
(114,670,l),
(165,666,ls),
(209,663,o),
(224,645,o),
(224,598,cs),
(224,202,ls),
(224,111,o),
(218,46,o),
(174,46,cs),
(167,46,o),
(159,48,o),
(150,51,cs),
(56,86,ls),
(32,96,o),
(-8,74,o),
(-8,41,cs),
(-8,13,o),
(31,-10,o),
(93,-10,cs)
);
}
);
width = 433;
}
);
unicode = 74;
},
{
color = 6;
glyphname = K;
kernLeft = H;
kernRight = K;
lastChange = "2023-10-18 14:24:06 +0000";
layers = (
{
anchors = (
{
name = bottom;
pos = (380,0);
},
{
name = top;
pos = (380,700);
}
);
layerId = "CFBFE906-6BC9-42DE-B086-7F9578F7A428";
shapes = (
{
closed = 1;
nodes = (
(612,608,ls),
(652,645,o),
(688,655,o),
(724,658,cs),
(745,660,l),
(745,700,l),
(477,700,l),
(477,660,l),
(498,659,ls),
(561,656,o),
(565,631,o),
(516,584,cs),
(230,314,l),
(239,257,l)
);
},
{
closed = 1;
nodes = (
(735,0,l),
(735,40,l),
(684,46,o),
(653,54,o),
(619,101,cs),
(392,415,l),
(328,356,l),
(505,108,ls),
(527,78,o),
(526,47,o),
(481,43,cs),
(448,40,l),
(448,0,l)
);
},
{
closed = 1;
nodes = (
(357,0,l),
(357,40,l),
(336,41,ls),
(267,44,o),
(247,59,o),
(247,108,cs),
(247,592,ls),
(247,641,o),
(267,656,o),
(326,659,cs),
(347,660,l),
(347,700,l),
(43,700,l),
(43,660,l),
(64,659,ls),
(133,656,o),
(153,641,o),
(153,592,cs),
(153,108,ls),
(153,59,o),
(133,44,o),
(64,41,cs),
(43,40,l),
(43,0,l)
);
}
);
width = 763;
},
{
anchors = (
{
name = bottom;
pos = (361,0);
},
{
name = top;
pos = (361,700);
}
);
guides = (
{
angle = 90;
pos = (746,248);
}
);
layerId = m004;
shapes = (
{
closed = 1;
nodes = (
(569,592,ls),
(633,652,o),
(669,665,o),
(720,670,c),
(720,670,l),
(720,700,l),
(464,700,l),
(464,670,l),
(485,669,ls),
(540,666,o),
(549,635,o),
(507,594,cs),
(206,302,l),
(204,246,l)
);
},
{
closed = 1;
nodes = (
(720,0,l),
(720,30,l),
(665,35,o),
(633,51,o),
(596,102,cs),
(372,412,l),
(304,358,l),
(478,115,ls),
(509,72,o),
(502,37,o),
(461,33,cs),
(428,30,l),
(428,0,l)
);
},
{
closed = 1;
nodes = (
(334,0,l),
(334,30,l),
(293,33,ls),
(240,36,o),
(224,54,o),
(224,102,cs),
(224,598,ls),
(224,646,o),
(240,664,o),
(283,667,cs),
(324,670,l),
(324,700,l),
(30,700,l),
(30,670,l),
(71,666,ls),
(115,662,o),
(130,645,o),
(130,598,cs),
(130,102,ls),
(130,55,o),
(115,38,o),
(71,34,cs),
(30,30,l),
(30,0,l)
);
}
);
width = 727;
}
);
unicode = 75;
},
{
color = 6;
glyphname = L;
kernLeft = H;
kernRight = L;
lastChange = "2023-10-18 14:24:06 +0000";
layers = (
{
anchors = (
{
name = bottom;
pos = (307,0);
},
{
name = center;
pos = (307,350);
},
{
name = top;
pos = (202,700);
},
{
name = topright;
pos = (589,700);
}
);
layerId = "CFBFE906-6BC9-42DE-B086-7F9578F7A428";
shapes = (
{
closed = 1;
nodes = (
(599,191,l),
(557,191,l),
(531,85,o),
(482,49,o),
(383,49,cs),
(290,49,o),
(247,45,o),
(247,108,cs),
(247,592,ls),
(247,641,o),
(267,656,o),
(336,659,cs),
(357,660,l),
(357,700,l),
(43,700,l),
(43,660,l),
(64,659,ls),
(133,656,o),
(153,641,o),
(153,592,cs),
(153,108,ls),
(153,60,o),
(134,44,o),
(64,41,cs),
(43,40,l),
(43,0,l),
(429,0,ls),
(471,0,o),
(534,-3,o),
(573,-6,c)
);
}
);
width = 616;
},
{
anchors = (
{
name = bottom;
pos = (309,0);
},
{
name = center;
pos = (289,350);
},
{
name = top;
pos = (179,700);
},
{
name = topright;
pos = (566,700);
}
);
layerId = m004;
shapes = (
{
closed = 1;
nodes = (
(576,191,l),
(545,191,l),
(515,71,o),
(474,37,o),
(350,37,cs),
(244,37,o),
(224,50,o),
(224,102,cs),
(224,598,ls),
(224,645,o),
(239,663,o),
(283,666,cs),
(334,670,l),
(334,700,l),
(30,700,l),
(30,670,l),
(71,666,ls),
(115,662,o),
(130,645,o),
(130,598,cs),
(130,102,ls),
(130,55,o),
(115,38,o),
(71,34,cs),
(30,30,l),
(30,0,l),
(406,0,ls),
(454,0,o),
(508,-2,o),
(550,-6,c)
);
}
);
width = 582;
}
);
unicode = 76;
},
{
color = 3;
glyphname = Lcaron;
kernLeft = H;
kernRight = L;
lastChange = "2023-10-18 14:24:06 +0000";
layers = (
{
anchors = (
{
name = bottom;
pos = (310,0);
},
{
name = center;
pos = (310,350);
},
{
name = top;
pos = (310,880);
},
{
name = topright;
pos = (592,700);
}
);
layerId = "CFBFE906-6BC9-42DE-B086-7F9578F7A428";
shapes = (
{
closed = 1;
nodes = (
(525,530,o),
(563,571,o),
(563,632,cs),
(563,672,o),
(540,710,o),
(495,710,cs),
(461,710,o),
(436,686,o),
(436,654,cs),
(436,622,o),
(460,600,o),
(490,600,cs),
(521,600,o),
(544,623,o),
(544,655,c),
(517,633,l),
(517,582,o),
(495,556,o),
(437,522,c),
(457,494,l)
);
},
{
ref = L;
}
);
width = 624;
},
{
anchors = (
{
name = bottom;
pos = (290,0);
},
{
name = center;
pos = (290,350);
},
{
name = top;
pos = (290,880);
},
{
name = topright;
pos = (572,700);
}
);
layerId = m004;
shapes = (
{
closed = 1;
nodes = (
(507,530,o),
(545,571,o),
(545,632,cs),
(545,672,o),
(522,710,o),
(477,710,cs),
(443,710,o),
(418,686,o),
(418,654,cs),
(418,622,o),
(442,600,o),
(472,600,cs),
(503,600,o),
(526,623,o),
(526,655,c),
(503,623,l),
(503,582,o),
(479,552,o),
(422,518,c),
(439,494,l)
);
},
{
ref = L;
}
);
width = 591;
}
);
unicode = 317;
},
{
color = 3;
glyphname = Lslash;
kernRight = L;
lastChange = "2023-10-18 14:24:06 +0000";
layers = (
{
guides = (
{
angle = 90;
pos = (388,40);
}
);
layerId = "CFBFE906-6BC9-42DE-B086-7F9578F7A428";
shapes = (
{
closed = 1;
nodes = (
(412,391,l),
(412,442,l),
(62,302,l),
(62,251,l)
);
},
{
pos = (16,0);
ref = L;
}
);
width = 632;
},
{
guides = (
{
angle = 90;
pos = (38,30);
}
);
layerId = m004;
shapes = (
{
closed = 1;
nodes = (
(397,396,l),
(397,438,l),
(47,298,l),
(47,256,l)
);
},
{
pos = (14,0);
ref = L;
}
);
width = 596;
}
);
unicode = 321;
},
{
color = 6;
glyphname = M;
kernLeft = H;
kernRight = H;
lastChange = "2023-10-18 14:24:06 +0000";
layers = (
{
anchors = (
{
name = bottom;
pos = (488,0);
},
{
name = top;
pos = (488,700);
}
);
layerId = "CFBFE906-6BC9-42DE-B086-7F9578F7A428";
shapes = (
{
closed = 1;
nodes = (
(298,0,l),
(298,40,l),
(277,41,ls),
(188,45,o),
(184,66,o),
(188,118,cs),
(223,579,l),
(440,0,l),
(479,0,l),
(706,621,l),
(692,624,l),
(736,131,ls),
(741,74,o),
(736,48,o),
(680,43,cs),
(647,40,l),
(647,0,l),
(944,0,l),
(944,40,l),
(921,42,ls),
(868,47,o),
(835,53,o),
(828,131,cs),
(787,582,ls),
(782,634,o),
(790,651,o),
(864,658,cs),
(885,660,l),
(885,700,l),
(685,700,l),
(469,107,l),
(495,107,l),
(274,700,l),
(67,700,l),
(67,660,l),
(88,658,ls),
(162,651,o),
(180,634,o),
(175,582,cs),
(132,118,ls),
(127,66,o),
(122,49,o),
(53,42,cs),
(32,40,l),
(32,0,l)
);
}
);
width = 965;
},
{
anchors = (
{
name = bottom;
pos = (466,0);
},
{
name = top;
pos = (466,700);
}
);
layerId = m004;
shapes = (
{
closed = 1;
nodes = (
(266,0,l),
(266,30,l),
(245,31,ls),
(177,34,o),
(159,53,o),
(163,118,cs),
(194,595,l),
(422,0,l),
(455,0,l),
(683,637,l),
(669,640,l),
(714,131,ls),
(720,58,o),
(710,38,o),
(658,33,cs),
(625,30,l),
(625,0,l),
(912,0,l),
(912,30,l),
(889,32,ls),
(831,39,o),
(812,61,o),
(806,131,cs),
(765,582,ls),
(759,646,o),
(770,661,o),
(832,668,cs),
(853,670,l),
(853,700,l),
(663,700,l),
(450,104,l),
(477,104,l),
(251,700,l),
(55,700,l),
(55,670,l),
(76,668,ls),
(142,661,o),
(158,643,o),
(153,582,cs),
(115,118,ls),
(110,55,o),
(95,38,o),
(41,32,cs),
(20,30,l),
(20,0,l)
);
}
);
width = 922;
}
);
unicode = 77;
},
{
color = 6;
glyphname = N;
kernLeft = N;
kernRight = N;
lastChange = "2023-10-18 14:24:06 +0000";
layers = (
{
anchors = (
{
name = bottom;
pos = (432,0);
},
{
name = top;
pos = (432,700);
}
);
layerId = "CFBFE906-6BC9-42DE-B086-7F9578F7A428";
shapes = (
{
closed = 1;
nodes = (
(717,-8,l),
(720,582,ls),
(720,634,o),
(730,651,o),
(799,658,cs),
(820,660,l),
(820,700,l),
(554,700,l),
(554,660,l),
(575,659,ls),
(654,655,o),
(664,634,o),
(664,582,cs),
(664,464,o),
(666,327,o),
(668,162,c),
(219,700,l),
(43,700,l),
(43,660,l),
(64,658,ls),
(138,651,o),
(151,634,o),
(151,592,cs),
(148,118,ls),
(148,66,o),
(138,49,o),
(69,42,cs),
(48,40,l),
(48,0,l),
(314,0,l),
(314,40,l),
(293,41,ls),
(214,45,o),
(204,66,o),
(204,118,cs),
(204,266,o),
(201,423,o),
(199,580,c),
(689,-8,l)
);
}
);
width = 856;
},
{
anchors = (
{
name = bottom;
pos = (411,0);
},
{
name = top;
pos = (411,700);
}
);
layerId = m004;
shapes = (
{
closed = 1;
nodes = (
(696,-8,l),
(699,582,ls),
(699,647,o),
(711,662,o),
(768,668,cs),
(789,670,l),
(789,700,l),
(551,700,l),
(551,670,l),
(572,669,ls),
(636,666,o),
(651,649,o),
(651,582,cs),
(651,412,o),
(652,334,o),
(655,153,c),
(199,700,l),
(32,700,l),
(32,670,l),
(53,668,ls),
(114,662,o),
(130,647,o),
(130,592,cs),
(127,108,ls),
(127,53,o),
(114,38,o),
(58,32,cs),
(37,30,l),
(37,0,l),
(275,0,l),
(275,30,l),
(254,31,ls),
(191,34,o),
(175,50,o),
(175,108,cs),
(175,337,o),
(172,449,o),
(170,591,c),
(668,-8,l)
);
}
);
width = 817;
},
{
anchors = (
{
name = bottom;
pos = (432,0);
},
{
name = top;
pos = (432,700);
}
);
associatedMasterId = "CFBFE906-6BC9-42DE-B086-7F9578F7A428";
layerId = "CD4DAE34-7051-4FD2-A06F-FCAD5F75D30D";
name = "3 Oct 23 at 15:08";
shapes = (
{
closed = 1;
nodes = (
(717,-8,l),
(690,135,l),
(219,700,l),
(174,611,l),
(689,-8,l)
);
},
{
closed = 1;
nodes = (
(314,0,l),
(314,40,l),
(293,41,ls),
(214,45,o),
(204,66,o),
(204,118,cs),
(204,276,o),
(201,444,o),
(199,612,c),
(151,592,l),
(148,118,ls),
(148,66,o),
(138,49,o),
(69,42,cs),
(48,40,l),
(48,0,l)
);
},
{
closed = 1;
nodes = (
(199,612,l),
(222,670,l),
(219,700,l),
(43,700,l),
(43,660,l),
(64,658,ls),
(138,651,o),
(151,634,o),
(151,592,c)
);
},
{
closed = 1;
nodes = (
(720,582,ls),
(720,634,o),
(730,651,o),
(799,658,cs),
(820,660,l),
(820,700,l),
(554,700,l),
(554,660,l),
(575,659,ls),
(654,655,o),
(664,634,o),
(664,582,cs),
(664,461,o),
(666,320,o),
(668,149,c),
(664,22,l),
(717,-8,l)
);
}
);
width = 856;
}
);
unicode = 78;
},
{
color = 6;
glyphname = Eng;
kernLeft = N;
kernRight = N;
lastChange = "2023-10-18 14:24:06 +0000";
layers = (
{
background = {
shapes = (
{
closed = 1;
nodes = (
(659,-257,o),
(713,-193,o),
(713,-53,cs),
(716,582,ls),
(716,647,o),
(728,662,o),
(785,668,cs),
(806,670,l),
(806,700,l),
(568,700,l),
(568,670,l),
(589,669,ls),
(652,666,o),
(667,650,o),
(668,582,cs),
(672,153,l),
(216,700,l),
(49,700,l),
(49,670,l),
(70,668,ls),
(131,662,o),
(147,647,o),
(147,592,cs),
(144,108,ls),
(144,53,o),
(131,38,o),
(75,32,cs),
(54,30,l),
(54,0,l),
(292,0,l),
(292,30,l),
(271,31,ls),
(209,34,o),
(193,49,o),
(192,108,cs),
(187,591,l),
(672,8,l),
(672,-53,ls),
(672,-148,o),
(648,-201,o),
(605,-201,cs),
(598,-201,o),
(591,-199,o),
(580,-196,cs),
(496,-163,ls),
(469,-153,o),
(437,-177,o),
(437,-205,cs),
(437,-237,o),
(477,-257,o),
(541,-257,cs)
);
}
);
};
layerId = "CFBFE906-6BC9-42DE-B086-7F9578F7A428";
shapes = (
{
closed = 1;
nodes = (
(665,-257,o),
(715,-195,o),
(716,-43,cs),
(720,582,ls),
(720,634,o),
(730,651,o),
(799,658,cs),
(820,660,l),
(820,700,l),
(554,700,l),
(554,660,l),
(575,659,ls),
(654,655,o),
(664,634,o),
(664,582,cs),
(668,162,l),
(219,700,l),
(43,700,l),
(43,660,l),
(64,658,ls),
(138,651,o),
(151,634,o),
(151,592,cs),
(148,118,ls),
(148,66,o),
(138,49,o),
(69,42,cs),
(48,40,l),
(48,0,l),
(314,0,l),
(314,40,l),
(293,41,ls),
(214,45,o),
(204,66,o),
(204,118,cs),
(199,580,l),
(668,16,l),
(668,-45,ls),
(668,-144,o),
(649,-191,o),
(608,-191,cs),
(595,-191,o),
(581,-188,o),
(573,-185,cs),
(503,-160,ls),
(480,-152,o),
(440,-168,o),
(440,-202,cs),
(440,-237,o),
(480,-257,o),
(544,-257,cs)
);
}
);
width = 856;
},
{
background = {
shapes = (
{
closed = 1;
nodes = (
(678,-257,o),
(695,-158,o),
(696,-43,cs),
(699,582,ls),
(699,647,o),
(711,662,o),
(768,668,cs),
(789,670,l),
(789,700,l),
(551,700,l),
(551,670,l),
(572,669,ls),
(635,666,o),
(650,650,o),
(651,582,cs),
(655,153,l),
(199,700,l),
(32,700,l),
(32,670,l),
(53,668,ls),
(114,662,o),
(130,647,o),
(130,592,cs),
(127,108,ls),
(127,53,o),
(114,38,o),
(58,32,cs),
(37,30,l),
(37,0,l),
(275,0,l),
(275,30,l),
(254,31,ls),
(192,34,o),
(176,49,o),
(175,108,cs),
(170,591,l),
(655,8,l),
(655,-53,ls),
(655,-148,o),
(631,-201,o),
(588,-201,cs),
(579,-201,o),
(571,-199,o),
(563,-196,cs),
(474,-161,ls),
(450,-152,o),
(410,-173,o),
(410,-205,cs),
(410,-239,o),
(453,-257,o),
(524,-257,cs)
);
}
);
};
layerId = m004;
shapes = (
{
closed = 1;
nodes = (
(642,-257,o),
(696,-193,o),
(696,-53,cs),
(699,582,ls),
(699,647,o),
(711,662,o),
(768,668,cs),
(789,670,l),
(789,700,l),
(551,700,l),
(551,670,l),
(572,669,ls),
(635,666,o),
(650,650,o),
(651,582,cs),
(655,153,l),
(199,700,l),
(32,700,l),
(32,670,l),
(53,668,ls),
(114,662,o),
(130,647,o),
(130,592,cs),
(127,108,ls),
(127,53,o),
(114,38,o),
(58,32,cs),
(37,30,l),
(37,0,l),
(275,0,l),
(275,30,l),
(254,31,ls),
(192,34,o),
(176,49,o),
(175,108,cs),
(170,591,l),
(655,8,l),
(655,-53,ls),
(655,-148,o),
(631,-201,o),
(588,-201,cs),
(581,-201,o),
(574,-199,o),
(563,-196,cs),
(479,-163,ls),
(452,-153,o),
(420,-177,o),
(420,-205,cs),
(420,-237,o),
(460,-257,o),
(524,-257,cs)
);
}
);
width = 817;
},
{
associatedMasterId = m004;
layerId = "C8C9199F-16E5-458C-927A-D65D3272CD4A";
name = "3 Oct 23 at 09:37";
shapes = (
{
closed = 1;
nodes = (
(668,-257,o),
(695,-158,o),
(696,-43,cs),
(699,582,ls),
(699,647,o),
(711,662,o),
(768,668,cs),
(789,670,l),
(789,700,l),
(551,700,l),
(551,670,l),
(572,669,ls),
(635,666,o),
(650,650,o),
(651,582,cs),
(655,153,l),
(199,700,l),
(32,700,l),
(32,670,l),
(53,668,ls),
(114,662,o),
(130,647,o),
(130,592,cs),
(127,108,ls),
(127,53,o),
(114,38,o),
(58,32,cs),
(37,30,l),
(37,0,l),
(275,0,l),
(275,30,l),
(254,31,ls),
(192,34,o),
(176,49,o),
(175,108,cs),
(170,591,l),
(655,8,l),
(655,-53,ls),
(655,-148,o),
(621,-201,o),
(578,-201,cs),
(569,-201,o),
(561,-199,o),
(553,-196,cs),
(464,-161,ls),
(440,-152,o),
(400,-173,o),
(400,-205,cs),
(400,-239,o),
(443,-257,o),
(514,-257,cs)
);
}
);
width = 817;
}
);
metricLeft = N;
metricRight = N;
unicode = 330;
},
{
color = 6;
glyphname = O;
kernLeft = O;
kernRight = O;
lastChange = "2023-10-18 14:24:06 +0000";
layers = (
{
anchors = (
{
name = bottom;
pos = (423,0);
},
{
name = center;
pos = (423,350);
},
{
name = ogonek;
pos = (756,10);
},
{
name = top;
pos = (421,700);
},
{
name = topleft;
pos = (27,700);
},
{
name = topright;
pos = (819,700);
}
);
layerId = "CFBFE906-6BC9-42DE-B086-7F9578F7A428";
shapes = (
{
closed = 1;
nodes = (
(641,-10,o),
(794,136,o),
(794,349,cs),
(794,567,o),
(649,710,o),
(430,710,cs),
(205,710,o),
(52,564,o),
(52,350,cs),
(52,133,o),
(197,-10,o),
(418,-10,cs)
);
},
{
closed = 1;
nodes = (
(276,47,o),
(153,189,o),
(153,386,cs),
(153,548,o),
(250,653,o),
(400,653,cs),
(570,653,o),
(693,511,o),
(693,314,cs),
(693,152,o),
(596,47,o),
(446,47,cs)
);
}
);
width = 846;
},
{
anchors = (
{
name = bottom;
pos = (411,0);
},
{
name = center;
pos = (411,350);
},
{
name = ogonek;
pos = (744,10);
},
{
name = top;
pos = (409,700);
},
{
name = topleft;
pos = (15,700);
},
{
name = topright;
pos = (807,700);
}
);
layerId = m004;
shapes = (
{
closed = 1;
nodes = (
(629,-10,o),
(782,136,o),
(782,349,cs),
(782,567,o),
(637,710,o),
(418,710,cs),
(193,710,o),
(40,564,o),
(40,350,cs),
(40,133,o),
(185,-10,o),
(406,-10,cs)
);
},
{
closed = 1;
nodes = (
(264,32,o),
(141,174,o),
(141,386,cs),
(141,563,o),
(238,668,o),
(388,668,cs),
(558,668,o),
(681,526,o),
(681,314,cs),
(681,137,o),
(584,32,o),
(434,32,cs)
);
}
);
width = 822;
}
);
unicode = 79;
},
{
color = 3;
glyphname = Oslash;
kernLeft = O;
kernRight = O;
lastChange = "2023-10-18 14:24:06 +0000";
layers = (
{
anchors = (
{
name = bottom;
pos = (308,0);
},
{
name = top;
pos = (308,700);
}
);
layerId = "CFBFE906-6BC9-42DE-B086-7F9578F7A428";
shapes = (
{
closed = 1;
nodes = (
(216,-48,l),
(691,748,l),
(633,748,l),
(158,-48,l)
);
},
{
ref = O;
}
);
width = 846;
},
{
anchors = (
{
name = bottom;
pos = (395,0);
},
{
name = top;
pos = (395,700);
}
);
layerId = m004;
shapes = (
{
closed = 1;
nodes = (
(200,-48,l),
(675,748,l),
(623,748,l),
(148,-48,l)
);
},
{
ref = O;
}
);
width = 822;
}
);
unicode = 216;
},
{
color = 6;
glyphname = OE;
kernLeft = O;
kernRight = E;
lastChange = "2023-10-18 14:24:06 +0000";
layers = (
{
anchors = (
{
name = bottom;
pos = (337,0);
},
{
name = center;
pos = (453,350);
},
{
name = ogonek;
pos = (1414,10);
},
{
name = top;
pos = (337,700);
},
{
name = topleft;
pos = (889,700);
},
{
name = topright;
pos = (849,700);
}
);
layerId = "CFBFE906-6BC9-42DE-B086-7F9578F7A428";
shapes = (
{
closed = 1;
nodes = (
(457,-10,o),
(522,0,o),
(577,0,cs),
(769,0,ls),
(802,0,o),
(861,-2,o),
(913,-6,c),
(939,191,l),
(897,191,l),
(872,89,o),
(826,49,o),
(733,49,cs),
(638,49,o),
(605,45,o),
(605,108,cs),
(605,334,l),
(806,334,ls),
(854,334,o),
(870,317,o),
(873,265,cs),
(874,249,l),
(914,249,l),
(914,467,l),
(874,467,l),
(873,451,ls),
(870,399,o),
(854,382,o),
(806,382,cs),
(605,382,l),
(605,652,l),
(763,652,ls),
(832,652,o),
(868,620,o),
(886,544,c),
(927,544,l),
(912,706,l),
(865,700,o),
(818,700,o),
(771,700,cs),
(643,700,ls),
(544,700,o),
(493,710,o),
(430,710,cs),
(205,710,o),
(52,564,o),
(52,350,cs),
(52,133,o),
(197,-10,o),
(418,-10,cs)
);
},
{
closed = 1;
nodes = (
(276,47,o),
(153,189,o),
(153,386,cs),
(153,548,o),
(250,655,o),
(410,655,cs),
(437,655,o),
(461,655,o),
(513,644,c),
(513,54,l),
(501,49,o),
(459,47,o),
(446,47,cs)
);
}
);
width = 998;
},
{
anchors = (
{
name = bottom;
pos = (330,0);
},
{
name = center;
pos = (446,350);
},
{
name = ogonek;
pos = (1398,10);
},
{
name = top;
pos = (330,700);
},
{
name = topleft;
pos = (882,700);
},
{
name = topright;
pos = (842,700);
}
);
layerId = m004;
shapes = (
{
closed = 1;
nodes = (
(440,-10,o),
(475,-7,o),
(509,0,c),
(757,0,ls),
(797,0,o),
(852,-2,o),
(901,-6,c),
(927,191,l),
(896,191,l),
(866,70,o),
(832,37,o),
(721,37,cs),
(613,37,o),
(593,50,o),
(593,102,cs),
(593,337,l),
(804,337,ls),
(850,337,o),
(870,321,o),
(871,283,cs),
(872,249,l),
(902,249,l),
(902,467,l),
(872,467,l),
(870,441,ls),
(866,392,o),
(850,377,o),
(804,377,cs),
(593,377,l),
(593,660,l),
(751,660,ls),
(834,660,o),
(866,632,o),
(885,544,c),
(915,544,l),
(900,706,l),
(862,702,o),
(823,700,o),
(759,700,cs),
(615,700,ls),
(541,700,o),
(472,710,o),
(418,710,cs),
(193,710,o),
(40,564,o),
(40,350,cs),
(40,133,o),
(185,-10,o),
(406,-10,cs)
);
},
{
closed = 1;
nodes = (
(264,32,o),
(141,174,o),
(141,386,cs),
(141,563,o),
(238,668,o),
(388,668,cs),
(425,668,o),
(466,664,o),
(501,656,c),
(501,39,l),
(479,34,o),
(456,32,o),
(434,32,cs)
);
}
);
width = 973;
}
);
unicode = 338;
},
{
color = 6;
glyphname = P;
kernLeft = H;
lastChange = "2023-10-18 14:24:06 +0000";
layers = (
{
anchors = (
{
name = bottom;
pos = (309,0);
},
{
name = top;
pos = (309,700);
}
);
layerId = "CFBFE906-6BC9-42DE-B086-7F9578F7A428";
shapes = (
{
closed = 1;
nodes = (
(367,0,l),
(367,40,l),
(346,41,ls),
(257,45,o),
(247,66,o),
(247,108,cs),
(247,622,ls),
(247,653,o),
(287,658,o),
(337,658,cs),
(437,658,o),
(481,602,o),
(481,514,cs),
(481,401,o),
(402,353,o),
(297,353,cs),
(221,353,l),
(221,307,l),
(325,308,ls),
(501,309,o),
(583,406,o),
(583,524,cs),
(583,631,o),
(511,700,o),
(344,700,cs),
(43,700,l),
(43,660,l),
(64,659,ls),
(143,655,o),
(153,634,o),
(153,592,cs),
(153,108,ls),
(153,66,o),
(143,45,o),
(64,41,cs),
(43,40,l),
(43,0,l)
);
}
);
width = 612;
},
{
anchors = (
{
name = bottom;
pos = (291,0);
},
{
name = top;
pos = (291,700);
}
);
layerId = m004;
shapes = (
{
closed = 1;
nodes = (
(334,0,l),
(334,30,l),
(293,33,ls),
(241,37,o),
(224,54,o),
(224,102,cs),
(224,622,ls),
(224,654,o),
(239,660,o),
(314,660,cs),
(407,660,o),
(458,609,o),
(458,514,cs),
(458,410,o),
(390,350,o),
(274,350,cs),
(198,350,l),
(198,310,l),
(302,311,ls),
(463,313,o),
(560,393,o),
(560,524,cs),
(560,639,o),
(476,700,o),
(317,700,cs),
(30,700,l),
(30,670,l),
(71,666,ls),
(115,662,o),
(130,645,o),
(130,598,cs),
(130,102,ls),
(130,55,o),
(115,38,o),
(71,34,cs),
(30,30,l),
(30,0,l)
);
}
);
width = 579;
}
);
unicode = 80;
},
{
color = 6;
glyphname = Thorn;
kernLeft = H;
lastChange = "2023-10-18 14:24:06 +0000";
layers = (
{
anchors = (
{
name = bottom;
pos = (305,0);
},
{
name = top;
pos = (305,700);
}
);
layerId = "CFBFE906-6BC9-42DE-B086-7F9578F7A428";
shapes = (
{
closed = 1;
nodes = (
(367,0,l),
(367,40,l),
(346,41,ls),
(257,45,o),
(247,66,o),
(247,108,cs),
(247,162,l),
(325,163,ls),
(501,165,o),
(583,261,o),
(583,379,cs),
(583,486,o),
(511,555,o),
(344,555,cs),
(247,555,l),
(247,592,ls),
(247,634,o),
(257,655,o),
(346,659,cs),
(367,660,l),
(367,700,l),
(43,700,l),
(43,660,l),
(64,659,ls),
(143,655,o),
(153,634,o),
(153,592,cs),
(153,108,ls),
(153,66,o),
(143,45,o),
(64,41,cs),
(43,40,l),
(43,0,l)
);
},
{
closed = 1;
nodes = (
(247,477,ls),
(247,508,o),
(287,513,o),
(337,513,cs),
(437,513,o),
(481,457,o),
(481,369,cs),
(481,255,o),
(402,207,o),
(297,207,cs),
(247,207,l)
);
}
);
width = 626;
},
{
anchors = (
{
name = bottom;
pos = (292,0);
},
{
name = top;
pos = (292,700);
}
);
layerId = m004;
shapes = (
{
closed = 1;
nodes = (
(334,0,l),
(334,30,l),
(293,33,ls),
(241,37,o),
(224,54,o),
(224,102,cs),
(224,165,l),
(302,166,ls),
(463,168,o),
(560,248,o),
(560,379,cs),
(560,494,o),
(476,555,o),
(317,555,cs),
(224,555,l),
(224,598,ls),
(224,646,o),
(241,663,o),
(293,667,cs),
(334,670,l),
(334,700,l),
(30,700,l),
(30,670,l),
(71,666,ls),
(115,662,o),
(130,645,o),
(130,598,cs),
(130,102,ls),
(130,55,o),
(115,38,o),
(71,34,cs),
(30,30,l),
(30,0,l)
);
},
{
closed = 1;
nodes = (
(224,477,ls),
(224,509,o),
(239,515,o),
(314,515,cs),
(407,515,o),
(458,464,o),
(458,369,cs),
(458,265,o),
(390,205,o),
(274,205,cs),
(224,205,l)
);
}
);
width = 592;
}
);
unicode = 222;
},
{
color = 6;
glyphname = Q;
kernLeft = O;
kernRight = O;
lastChange = "2023-10-18 14:24:06 +0000";
layers = (
{
anchors = (
{
name = bottom;
pos = (423,0);
},
{
name = top;
pos = (423,700);
}
);
layerId = "CFBFE906-6BC9-42DE-B086-7F9578F7A428";
shapes = (
{
closed = 1;
nodes = (
(641,-10,o),
(794,136,o),
(794,349,cs),
(794,567,o),
(649,710,o),
(430,710,cs),
(205,710,o),
(52,564,o),
(52,350,cs),
(52,133,o),
(197,-10,o),
(418,-10,cs)
);
},
{
closed = 1;
nodes = (
(791,-94,l),
(791,10,l),
(463,10,l),
(453,-8,l),
(761,-94,l)
);
},
{
closed = 1;
nodes = (
(276,47,o),
(153,189,o),
(153,386,cs),
(153,548,o),
(250,653,o),
(400,653,cs),
(570,653,o),
(693,511,o),
(693,314,cs),
(693,152,o),
(596,47,o),
(446,47,cs)
);
}
);
width = 846;
},
{
anchors = (
{
name = bottom;
pos = (411,0);
},
{
name = top;
pos = (411,700);
}
);
layerId = m004;
shapes = (
{
closed = 1;
nodes = (
(629,-10,o),
(782,136,o),
(782,349,cs),
(782,567,o),
(637,710,o),
(418,710,cs),
(193,710,o),
(40,564,o),
(40,350,cs),
(40,133,o),
(185,-10,o),
(406,-10,cs)
);
},
{
closed = 1;
nodes = (
(779,-80,l),
(779,10,l),
(463,10,l),
(452,-8,l),
(759,-80,l)
);
},
{
closed = 1;
nodes = (
(264,32,o),
(141,174,o),
(141,386,cs),
(141,563,o),
(238,668,o),
(388,668,cs),
(558,668,o),
(681,526,o),
(681,314,cs),
(681,137,o),
(584,32,o),
(434,32,cs)
);
}
);
width = 822;
}
);
unicode = 81;
},
{
color = 6;
glyphname = R;
kernLeft = H;
kernRight = R;
lastChange = "2023-10-18 14:24:06 +0000";
layers = (
{
anchors = (
{
name = bottom;
pos = (378,0);
},
{
name = top;
pos = (344,700);
}
);
layerId = "CFBFE906-6BC9-42DE-B086-7F9578F7A428";
shapes = (
{
closed = 1;
nodes = (
(367,0,l),
(367,40,l),
(346,41,ls),
(267,45,o),
(247,59,o),
(247,108,cs),
(247,331,l),
(310,331,ls),
(414,331,o),
(463,235,o),
(489,81,cs),
(499,21,o),
(518,0,o),
(573,0,cs),
(661,0,l),
(661,40,l),
(638,41,ls),
(606,42,o),
(593,59,o),
(589,83,cs),
(566,237,o),
(523,318,o),
(420,348,c),
(560,372,o),
(603,453,o),
(603,527,cs),
(603,640,o),
(521,700,o),
(354,700,cs),
(43,700,l),
(43,660,l),
(64,659,ls),
(133,656,o),
(153,641,o),
(153,592,cs),
(153,108,ls),
(153,59,o),
(133,44,o),
(64,41,cs),
(43,40,l),
(43,0,l)
);
},
{
closed = 1;
nodes = (
(247,622,ls),
(247,648,o),
(273,658,o),
(347,658,cs),
(449,658,o),
(501,611,o),
(501,524,cs),
(501,440,o),
(435,377,o),
(336,377,cs),
(247,377,l)
);
}
);
width = 688;
},
{
anchors = (
{
name = bottom;
pos = (355,0);
},
{
name = top;
pos = (331,700);
}
);
layerId = m004;
shapes = (
{
closed = 1;
nodes = (
(334,0,l),
(334,30,l),
(283,34,ls),
(239,37,o),
(224,55,o),
(224,102,cs),
(224,336,l),
(287,336,ls),
(391,336,o),
(440,235,o),
(466,81,cs),
(476,21,o),
(495,0,o),
(560,0,cs),
(629,0,l),
(629,30,l),
(616,31,ls),
(584,33,o),
(571,49,o),
(566,83,cs),
(541,239,o),
(500,318,o),
(396,348,c),
(537,372,o),
(580,453,o),
(580,527,cs),
(580,640,o),
(498,700,o),
(331,700,cs),
(30,700,l),
(30,670,l),
(71,666,ls),
(115,662,o),
(130,645,o),
(130,598,cs),
(130,102,ls),
(130,55,o),
(115,38,o),
(71,34,cs),
(30,30,l),
(30,0,l)
);
},
{
closed = 1;
nodes = (
(224,624,ls),
(224,650,o),
(250,660,o),
(324,660,cs),
(426,660,o),
(478,611,o),
(478,524,cs),
(478,438,o),
(412,375,o),
(313,375,cs),
(224,375,l)
);
}
);
width = 648;
}
);
unicode = 82;
},
{
color = 6;
glyphname = S;
kernLeft = S;
kernRight = S;
lastChange = "2023-10-18 14:24:06 +0000";
layers = (
{
anchors = (
{
name = bottom;
pos = (285,0);
},
{
name = top;
pos = (285,700);
}
);
layerId = "CFBFE906-6BC9-42DE-B086-7F9578F7A428";
shapes = (
{
closed = 1;
nodes = (
(394,-10,o),
(501,72,o),
(501,190,cs),
(501,280,o),
(457,321,o),
(360,374,cs),
(244,437,ls),
(192,465,o),
(158,503,o),
(158,550,cs),
(158,618,o),
(206,660,o),
(292,660,cs),
(366,660,o),
(416,626,o),
(430,546,c),
(471,546,l),
(471,672,l),
(421,702,o),
(369,710,o),
(312,710,cs),
(167,710,o),
(74,623,o),
(74,517,cs),
(74,441,o),
(119,396,o),
(202,350,cs),
(313,289,ls),
(381,251,o),
(410,215,o),
(410,159,cs),
(410,85,o),
(351,41,o),
(278,41,cs),
(176,41,o),
(119,101,o),
(109,209,c),
(68,209,l),
(68,42,l),
(140,-2,o),
(196,-10,o),
(259,-10,cs)
);
}
);
width = 558;
},
{
anchors = (
{
name = bottom;
pos = (272,0);
},
{
name = top;
pos = (272,700);
}
);
layerId = m004;
shapes = (
{
closed = 1;
nodes = (
(385,-10,o),
(488,75,o),
(488,197,cs),
(488,267,o),
(455,315,o),
(347,374,cs),
(231,437,ls),
(171,469,o),
(140,508,o),
(140,558,cs),
(140,623,o),
(194,669,o),
(279,669,cs),
(363,669,o),
(414,626,o),
(428,546,c),
(458,546,l),
(458,672,l),
(404,698,o),
(353,710,o),
(299,710,cs),
(161,710,o),
(61,629,o),
(61,517,cs),
(61,448,o),
(97,401,o),
(189,350,cs),
(300,289,ls),
(375,248,o),
(402,212,o),
(402,160,cs),
(402,84,o),
(344,31,o),
(256,31,cs),
(159,31,o),
(96,94,o),
(85,209,c),
(55,209,l),
(55,42,l),
(116,5,o),
(175,-10,o),
(237,-10,cs)
);
}
);
width = 530;
}
);
unicode = 83;
},
{
color = 6;
glyphname = Germandbls;
kernLeft = H;
lastChange = "2023-10-18 14:24:06 +0000";
layers = (
{
anchors = (
{
name = bottom;
pos = (325,0);
},
{
name = top;
pos = (325,700);
}
);
layerId = "CFBFE906-6BC9-42DE-B086-7F9578F7A428";
shapes = (
{
closed = 1;
nodes = (
(357,0,l),
(357,40,l),
(336,41,ls),
(257,45,o),
(247,66,o),
(247,108,cs),
(247,700,l),
(43,700,l),
(43,660,l),
(64,659,ls),
(143,655,o),
(153,634,o),
(153,592,cs),
(153,108,ls),
(153,66,o),
(143,45,o),
(64,41,cs),
(43,40,l),
(43,0,l)
);
},
{
closed = 1;
nodes = (
(662,-10,o),
(764,68,o),
(764,190,cs),
(764,272,o),
(719,331,o),
(601,384,cs),
(490,434,l),
(430,354,l),
(554,299,ls),
(648,257,o),
(678,212,o),
(678,153,cs),
(678,87,o),
(621,41,o),
(558,41,cs),
(491,41,o),
(438,84,o),
(427,179,c),
(387,179,l),
(387,32,l),
(448,-5,o),
(507,-10,o),
(549,-10,cs)
);
},
{
closed = 1;
nodes = (
(459,354,l),
(734,650,l),
(734,676,l),
(715,696,l),
(430,390,l),
(430,354,l)
);
},
{
closed = 1;
nodes = (
(734,652,l),
(734,676,l),
(734,700,l),
(163,700,l),
(163,652,l)
);
}
);
width = 815;
},
{
anchors = (
{
name = bottom;
pos = (292,0);
},
{
name = top;
pos = (292,700);
}
);
layerId = m004;
shapes = (
{
closed = 1;
nodes = (
(324,0,l),
(324,30,l),
(283,34,ls),
(234,39,o),
(224,60,o),
(224,102,cs),
(224,700,l),
(30,700,l),
(30,670,l),
(71,666,ls),
(120,661,o),
(130,640,o),
(130,598,cs),
(130,102,ls),
(130,60,o),
(120,39,o),
(71,34,cs),
(30,30,l),
(30,0,l)
);
},
{
closed = 1;
nodes = (
(629,-10,o),
(731,68,o),
(731,190,cs),
(731,272,o),
(686,335,o),
(568,386,cs),
(457,434,l),
(397,354,l),
(521,301,ls),
(615,261,o),
(645,212,o),
(645,153,cs),
(645,77,o),
(588,31,o),
(525,31,cs),
(458,31,o),
(395,74,o),
(384,179,c),
(354,179,l),
(354,32,l),
(415,-5,o),
(474,-10,o),
(516,-10,cs)
);
},
{
closed = 1;
nodes = (
(424,354,l),
(701,660,l),
(701,676,l),
(682,696,l),
(397,380,l),
(397,354,l)
);
},
{
closed = 1;
nodes = (
(657,661,l),
(701,676,l),
(701,700,l),
(113,700,l),
(113,661,l)
);
}
);
width = 768;
}
);
unicode = 7838;
},
{
color = 6;
glyphname = T;
kernLeft = T;
kernRight = T;
lastChange = "2023-10-18 14:24:06 +0000";
layers = (
{
anchors = (
{
name = bottom;
pos = (344,0);
},
{
name = center;
pos = (344,350);
},
{
name = top;
pos = (344,700);
}
);
layerId = "CFBFE906-6BC9-42DE-B086-7F9578F7A428";
shapes = (
{
closed = 1;
nodes = (
(297,66,o),
(287,45,o),
(203,41,cs),
(182,40,l),
(182,0,l),
(506,0,l),
(506,40,l),
(485,41,ls),
(401,45,o),
(391,66,o),
(391,108,cs),
(391,655,l),
(487,651,ls),
(599,646,o),
(621,570,o),
(624,522,c),
(665,522,l),
(656,706,l),
(617,703,o),
(554,700,o),
(512,700,cs),
(176,700,ls),
(134,700,o),
(71,703,o),
(32,706,c),
(23,522,l),
(64,522,l),
(67,570,o),
(89,646,o),
(201,651,cs),
(297,655,l),
(297,108,ls)
);
}
);
width = 688;
},
{
anchors = (
{
name = bottom;
pos = (333,0);
},
{
name = center;
pos = (333,350);
},
{
name = top;
pos = (333,700);
}
);
layerId = m004;
shapes = (
{
closed = 1;
nodes = (
(286,55,o),
(271,39,o),
(212,33,cs),
(181,30,l),
(181,0,l),
(485,0,l),
(485,30,l),
(454,33,ls),
(395,39,o),
(380,55,o),
(380,102,cs),
(380,661,l),
(486,657,ls),
(582,653,o),
(605,630,o),
(623,522,c),
(654,522,l),
(645,706,l),
(601,702,o),
(544,700,o),
(501,700,cs),
(165,700,ls),
(114,700,o),
(59,702,o),
(21,706,c),
(12,522,l),
(43,522,l),
(61,630,o),
(84,653,o),
(180,657,cs),
(286,661,l),
(286,102,ls)
);
}
);
width = 666;
}
);
unicode = 84;
},
{
color = 6;
glyphname = U;
kernLeft = U;
kernRight = U;
lastChange = "2023-10-18 14:24:06 +0000";
layers = (
{
anchors = (
{
name = bottom;
pos = (407,0);
},
{
name = ogonek;
pos = (499,0);
},
{
name = top;
pos = (407,700);
},
{
name = topright;
pos = (803,700);
}
);
layerId = "CFBFE906-6BC9-42DE-B086-7F9578F7A428";
shapes = (
{
closed = 1;
nodes = (
(597,-10,o),
(685,93,o),
(685,318,cs),
(685,592,ls),
(685,640,o),
(704,656,o),
(764,659,cs),
(785,660,l),
(785,700,l),
(530,700,l),
(530,660,l),
(551,659,ls),
(611,656,o),
(630,640,o),
(630,592,cs),
(630,331,ls),
(630,133,o),
(569,47,o),
(432,47,cs),
(292,47,o),
(222,134,o),
(222,305,cs),
(222,592,ls),
(222,640,o),
(241,656,o),
(301,659,cs),
(322,660,l),
(322,700,l),
(28,700,l),
(28,660,l),
(49,659,ls),
(109,656,o),
(128,640,o),
(128,592,cs),
(128,289,ls),
(128,89,o),
(221,-10,o),
(407,-10,cs)
);
}
);
width = 813;
},
{
anchors = (
{
name = bottom;
pos = (387,0);
},
{
name = ogonek;
pos = (481,0);
},
{
name = top;
pos = (387,700);
},
{
name = topright;
pos = (771,700);
}
);
layerId = m004;
shapes = (
{
closed = 1;
nodes = (
(578,-10,o),
(663,92,o),
(663,318,cs),
(663,592,ls),
(663,648,o),
(680,667,o),
(732,669,cs),
(753,670,l),
(753,700,l),
(523,700,l),
(523,670,l),
(544,669,ls),
(600,666,o),
(617,648,o),
(617,592,cs),
(617,331,ls),
(617,131,o),
(552,39,o),
(414,39,cs),
(275,39,o),
(204,129,o),
(204,305,cs),
(204,592,ls),
(204,648,o),
(221,667,o),
(273,669,cs),
(294,670,l),
(294,700,l),
(20,700,l),
(20,670,l),
(41,669,ls),
(93,667,o),
(110,648,o),
(110,592,cs),
(110,289,ls),
(110,89,o),
(203,-10,o),
(389,-10,cs)
);
}
);
width = 773;
}
);
unicode = 85;
},
{
color = 6;
glyphname = V;
kernLeft = V;
kernRight = V;
lastChange = "2023-10-18 14:24:06 +0000";
layers = (
{
anchors = (
{
name = bottom;
pos = (372,0);
},
{
name = top;
pos = (372,700);
}
);
layerId = "CFBFE906-6BC9-42DE-B086-7F9578F7A428";
shapes = (
{
closed = 1;
nodes = (
(388,-5,l),
(619,569,ls),
(641,623,o),
(670,650,o),
(713,656,cs),
(741,660,l),
(741,700,l),
(473,700,l),
(473,660,l),
(502,658,ls),
(567,654,o),
(578,623,o),
(557,569,cs),
(390,131,l),
(220,569,ls),
(199,623,o),
(219,652,o),
(275,657,cs),
(308,660,l),
(308,700,l),
(2,700,l),
(2,660,l),
(25,658,ls),
(78,653,o),
(96,623,o),
(118,569,cs),
(348,-5,l)
);
}
);
width = 737;
},
{
anchors = (
{
name = bottom;
pos = (348,0);
},
{
name = top;
pos = (348,700);
}
);
layerId = m004;
shapes = (
{
closed = 1;
nodes = (
(362,-5,l),
(590,569,ls),
(620,645,o),
(644,661,o),
(702,670,c),
(702,670,l),
(702,700,l),
(464,700,l),
(464,670,l),
(493,668,ls),
(548,664,o),
(562,632,o),
(538,569,cs),
(371,131,l),
(201,569,ls),
(179,626,o),
(196,662,o),
(247,667,cs),
(280,670,l),
(280,700,l),
(-7,700,l),
(-7,670,l),
(-7,670,l),
(49,664,o),
(66,652,o),
(99,569,cs),
(329,-5,l)
);
}
);
width = 691;
}
);
unicode = 86;
},
{
color = 6;
glyphname = W;
kernLeft = W;
kernRight = W;
lastChange = "2023-10-18 14:24:06 +0000";
layers = (
{
anchors = (
{
name = bottom;
pos = (533,0);
},
{
name = top;
pos = (533,700);
}
);
layerId = "CFBFE906-6BC9-42DE-B086-7F9578F7A428";
shapes = (
{
closed = 1;
nodes = (
(372,-5,l),
(551,513,l),
(528,514,l),
(694,-5,l),
(739,-5,l),
(942,569,ls),
(961,623,o),
(993,650,o),
(1036,656,cs),
(1064,660,l),
(1064,700,l),
(799,700,l),
(799,660,l),
(828,658,ls),
(893,654,o),
(904,624,o),
(885,569,cs),
(736,131,l),
(605,569,ls),
(588,625,o),
(605,655,o),
(661,658,cs),
(694,660,l),
(694,700,l),
(404,700,l),
(404,660,l),
(427,658,ls),
(480,653,o),
(493,623,o),
(513,560,c),
(369,131,l),
(219,569,ls),
(200,624,o),
(218,655,o),
(274,658,cs),
(307,660,l),
(307,700,l),
(1,700,l),
(1,660,l),
(24,658,ls),
(77,653,o),
(97,623,o),
(117,569,cs),
(327,-5,l)
);
}
);
width = 1063;
},
{
anchors = (
{
name = bottom;
pos = (513,0);
},
{
name = top;
pos = (513,700);
}
);
layerId = m004;
shapes = (
{
closed = 1;
nodes = (
(350,-5,l),
(529,513,l),
(510,514,l),
(676,-5,l),
(717,-5,l),
(920,569,ls),
(945,640,o),
(970,660,o),
(1032,670,c),
(1032,670,l),
(1032,700,l),
(791,700,l),
(791,670,l),
(820,668,ls),
(873,664,o),
(890,635,o),
(867,569,cs),
(718,131,l),
(587,569,ls),
(568,634,o),
(586,665,o),
(633,668,cs),
(666,670,l),
(666,700,l),
(386,700,l),
(386,670,l),
(409,668,ls),
(452,664,o),
(475,634,o),
(495,560,c),
(351,131,l),
(201,569,ls),
(180,630,o),
(199,665,o),
(247,668,cs),
(280,670,l),
(280,700,l),
(-7,700,l),
(-7,670,l),
(-7,670,l),
(53,664,o),
(70,649,o),
(99,569,cs),
(309,-5,l)
);
}
);
width = 1023;
}
);
unicode = 87;
},
{
color = 6;
glyphname = X;
lastChange = "2023-10-18 14:24:06 +0000";
layers = (
{
anchors = (
{
name = bottom;
pos = (368,0);
},
{
name = top;
pos = (368,700);
}
);
layerId = "CFBFE906-6BC9-42DE-B086-7F9578F7A428";
shapes = (
{
closed = 1;
nodes = (
(712,0,l),
(712,40,l),
(691,41,ls),
(645,43,o),
(616,61,o),
(583,108,cs),
(256,592,ls),
(227,634,o),
(242,656,o),
(302,659,cs),
(323,660,l),
(323,700,l),
(23,700,l),
(23,660,l),
(44,659,ls),
(98,656,o),
(115,646,o),
(152,592,cs),
(479,108,ls),
(508,66,o),
(493,44,o),
(433,41,cs),
(412,40,l),
(412,0,l)
);
},
{
closed = 1;
nodes = (
(284,0,l),
(284,40,l),
(263,41,ls),
(202,44,o),
(187,66,o),
(217,108,cs),
(376,334,l),
(344,374,l),
(152,108,ls),
(118,60,o),
(90,43,o),
(44,41,cs),
(23,40,l),
(23,0,l)
);
},
{
closed = 1;
nodes = (
(583,592,ls),
(617,640,o),
(645,657,o),
(691,659,cs),
(712,660,l),
(712,700,l),
(451,700,l),
(451,660,l),
(472,659,ls),
(533,656,o),
(548,634,o),
(518,592,cs),
(359,366,l),
(391,326,l)
);
}
);
width = 735;
},
{
anchors = (
{
name = bottom;
pos = (342,0);
},
{
name = top;
pos = (342,700);
}
);
layerId = m004;
shapes = (
{
closed = 1;
nodes = (
(676,0,l),
(676,30,l),
(676,30,l),
(622,33,o),
(596,50,o),
(557,108,cs),
(230,592,ls),
(198,639,o),
(214,666,o),
(276,669,cs),
(297,670,l),
(297,700,l),
(7,700,l),
(7,670,l),
(7,670,l),
(68,666,o),
(82,657,o),
(126,592,cs),
(453,108,ls),
(485,61,o),
(469,34,o),
(407,31,cs),
(386,30,l),
(386,0,l)
);
},
{
closed = 1;
nodes = (
(250,0,l),
(250,30,l),
(229,31,ls),
(166,34,o),
(150,61,o),
(183,108,cs),
(342,334,l),
(318,374,l),
(126,108,ls),
(83,48,o),
(60,33,o),
(7,30,c),
(7,30,l),
(7,0,l)
);
},
{
closed = 1;
nodes = (
(557,592,ls),
(600,652,o),
(623,667,o),
(676,670,c),
(676,670,l),
(676,700,l),
(433,700,l),
(433,670,l),
(454,669,ls),
(517,666,o),
(533,639,o),
(500,592,cs),
(341,366,l),
(365,326,l)
);
}
);
width = 683;
}
);
unicode = 88;
},
{
color = 6;
glyphname = Y;
kernLeft = Y;
kernRight = Y;
lastChange = "2023-10-18 14:24:06 +0000";
layers = (
{
anchors = (
{
name = bottom;
pos = (333,0);
},
{
name = top;
pos = (333,700);
},
{
name = topleft;
pos = (25,700);
}
);
layerId = "CFBFE906-6BC9-42DE-B086-7F9578F7A428";
shapes = (
{
closed = 1;
nodes = (
(500,0,l),
(500,40,l),
(479,41,ls),
(395,45,o),
(385,66,o),
(385,108,cs),
(385,338,l),
(548,592,ls),
(579,641,o),
(610,657,o),
(636,659,cs),
(657,660,l),
(657,700,l),
(416,700,l),
(416,660,l),
(437,659,ls),
(498,656,o),
(514,633,o),
(486,589,cs),
(332,345,l),
(378,345,l),
(221,592,ls),
(193,636,o),
(207,656,o),
(267,659,cs),
(288,660,l),
(288,700,l),
(8,700,l),
(8,660,l),
(29,659,ls),
(63,657,o),
(82,646,o),
(117,592,cs),
(291,326,l),
(291,108,ls),
(291,66,o),
(281,45,o),
(197,41,cs),
(176,40,l),
(176,0,l)
);
}
);
width = 669;
},
{
anchors = (
{
name = bottom;
pos = (320,0);
},
{
name = top;
pos = (320,700);
},
{
name = topleft;
pos = (13,700);
}
);
layerId = m004;
shapes = (
{
closed = 1;
nodes = (
(478,0,l),
(478,30,l),
(447,33,ls),
(388,38,o),
(373,55,o),
(373,102,cs),
(373,328,l),
(536,592,ls),
(570,647,o),
(597,667,o),
(641,670,c),
(641,670,l),
(641,700,l),
(430,700,l),
(430,670,l),
(451,669,ls),
(499,666,o),
(513,637,o),
(484,589,cs),
(329,333,l),
(367,333,l),
(209,592,ls),
(179,641,o),
(191,666,o),
(237,669,cs),
(258,670,l),
(258,700,l),
(-2,700,l),
(-2,670,l),
(-2,670,l),
(49,667,o),
(64,657,o),
(105,592,cs),
(279,316,l),
(279,102,ls),
(279,55,o),
(264,38,o),
(205,33,cs),
(174,30,l),
(174,0,l)
);
}
);
width = 646;
}
);
unicode = 89;
},
{
color = 6;
glyphname = Z;
kernLeft = Z;
kernRight = Z;
lastChange = "2023-10-18 14:24:06 +0000";
layers = (
{
anchors = (
{
name = bottom;
pos = (307,0);
},
{
name = center;
pos = (307,350);
},
{
name = top;
pos = (307,700);
}
);
layerId = "CFBFE906-6BC9-42DE-B086-7F9578F7A428";
shapes = (
{
closed = 1;
nodes = (
(566,200,l),
(524,200,l),
(499,88,o),
(453,48,o),
(360,48,cs),
(120,48,l),
(139,13,l),
(564,660,l),
(564,700,l),
(206,700,ls),
(173,700,o),
(117,702,o),
(65,706,c),
(50,534,l),
(91,534,l),
(109,620,o),
(155,652,o),
(234,652,cs),
(491,652,l),
(472,687,l),
(48,40,l),
(48,0,l),
(396,0,ls),
(429,0,o),
(488,-2,o),
(540,-6,c)
);
}
);
width = 617;
},
{
anchors = (
{
name = bottom;
pos = (294,0);
},
{
name = center;
pos = (294,350);
},
{
name = top;
pos = (294,700);
}
);
layerId = m004;
shapes = (
{
closed = 1;
nodes = (
(553,200,l),
(521,200,l),
(491,85,o),
(444,40,o),
(353,40,cs),
(104,40,l),
(131,10,l),
(551,670,l),
(551,700,l),
(193,700,ls),
(150,700,o),
(93,702,o),
(52,706,c),
(36,534,l),
(67,534,l),
(85,619,o),
(131,660,o),
(211,660,cs),
(481,660,l),
(455,690,l),
(35,30,l),
(35,0,l),
(383,0,ls),
(416,0,o),
(470,-2,o),
(527,-6,c)
);
}
);
width = 589;
}
);
unicode = 90;
},
{
color = 6;
glyphname = T.alt;
kernLeft = T.alt;
kernRight = T.alt;
lastChange = "2023-10-18 14:24:06 +0000";
layers = (
{
anchors = (
{
name = bottom;
pos = (341,0);
},
{
name = center;
pos = (341,350);
},
{
name = top;
pos = (341,700);
}
);
layerId = "CFBFE906-6BC9-42DE-B086-7F9578F7A428";
shapes = (
{
closed = 1;
nodes = (
(503,0,l),
(503,40,l),
(482,41,ls),
(398,45,o),
(388,66,o),
(388,108,cs),
(388,655,l),
(486,651,ls),
(588,647,o),
(600,610,o),
(621,542,c),
(662,542,l),
(654,706,l),
(615,703,o),
(552,700,o),
(510,700,c),
(172,700,l),
(130,700,o),
(67,703,o),
(28,706,c),
(20,542,l),
(61,542,l),
(82,610,o),
(94,647,o),
(196,651,cs),
(294,655,l),
(294,108,ls),
(294,66,o),
(284,45,o),
(200,41,cs),
(179,40,l),
(179,0,l)
);
}
);
width = 682;
},
{
anchors = (
{
name = bottom;
pos = (328,0);
},
{
name = center;
pos = (328,350);
},
{
name = top;
pos = (328,700);
}
);
layerId = m004;
shapes = (
{
closed = 1;
nodes = (
(480,0,l),
(480,30,l),
(449,33,ls),
(390,39,o),
(375,55,o),
(375,102,cs),
(375,661,l),
(481,659,l),
(577,657,o),
(592,620,o),
(618,542,c),
(648,542,l),
(639,706,l),
(595,702,o),
(538,700,o),
(495,700,cs),
(161,700,ls),
(110,700,o),
(55,702,o),
(17,706,c),
(8,542,l),
(38,542,l),
(64,620,o),
(79,657,o),
(175,659,cs),
(281,661,l),
(281,102,ls),
(281,55,o),
(266,39,o),
(207,33,cs),
(176,30,l),
(176,0,l)
);
}
);
width = 656;
}
);
},
{
color = 6;
glyphname = a;
kernLeft = a;
kernRight = a;
lastChange = "2023-10-18 14:24:06 +0000";
layers = (
{
anchors = (
{
name = bottom;
pos = (265,0);
},
{
name = ogonek;
pos = (440,0);
},
{
name = top;
pos = (246,520);
}
);
layerId = "CFBFE906-6BC9-42DE-B086-7F9578F7A428";
shapes = (
{
closed = 1;
nodes = (
(221,-10,o),
(268,3,o),
(326,59,c),
(334,59,l),
(338,38,o),
(347,-7,o),
(401,-7,cs),
(414,-7,o),
(436,-1,o),
(480,10,cs),
(515,19,l),
(515,49,l),
(438,54,o),
(415,62,o),
(417,114,cs),
(427,412,ls),
(429,486,o),
(368,530,o),
(281,530,cs),
(189,530,o),
(82,466,o),
(51,388,cs),
(44,368,o),
(58,364,o),
(82,364,cs),
(124,364,o),
(155,378,o),
(159,393,cs),
(172,449,o),
(201,478,o),
(251,478,cs),
(303,478,o),
(338,441,o),
(337,392,cs),
(335,311,l),
(308,302,ls),
(117,238,o),
(52,166,o),
(52,94,cs),
(52,43,o),
(83,-10,o),
(175,-10,cs)
);
},
{
closed = 1;
nodes = (
(177,63,o),
(151,83,o),
(151,119,cs),
(151,154,o),
(178,220,o),
(324,264,cs),
(334,267,l),
(328,99,l),
(303,82,o),
(274,63,o),
(226,63,cs)
);
}
);
width = 529;
},
{
anchors = (
{
name = bottom;
pos = (252,0);
},
{
name = ogonek;
pos = (433,0);
},
{
name = top;
pos = (233,520);
}
);
layerId = m004;
shapes = (
{
closed = 1;
nodes = (
(208,-10,o),
(255,3,o),
(313,59,c),
(321,59,l),
(325,38,o),
(334,-7,o),
(388,-7,cs),
(401,-7,o),
(424,-4,o),
(467,10,cs),
(502,19,l),
(502,42,l),
(425,47,o),
(402,55,o),
(404,107,cs),
(414,412,ls),
(416,486,o),
(355,530,o),
(268,530,cs),
(176,530,o),
(69,466,o),
(38,388,cs),
(32,369,o),
(46,366,o),
(69,366,cs),
(109,366,o),
(135,379,o),
(138,393,cs),
(152,458,o),
(190,488,o),
(235,488,cs),
(292,488,o),
(326,451,o),
(325,402,cs),
(322,303,l),
(297,294,ls),
(105,225,o),
(39,154,o),
(39,87,cs),
(39,41,o),
(65,-10,o),
(156,-10,cs)
);
},
{
closed = 1;
nodes = (
(164,56,o),
(138,76,o),
(138,119,cs),
(138,159,o),
(168,212,o),
(313,266,cs),
(321,269,l),
(315,92,l),
(290,75,o),
(261,56,o),
(213,56,cs)
);
}
);
width = 503;
}
);
unicode = 97;
},
{
color = 6;
glyphname = ae;
kernLeft = a;
kernRight = e;
lastChange = "2023-10-18 14:24:06 +0000";
layers = (
{
anchors = (
{
name = bottom;
pos = (415,0);
},
{
name = top;
pos = (415,520);
}
);
layerId = "CFBFE906-6BC9-42DE-B086-7F9578F7A428";
shapes = (
{
closed = 1;
nodes = (
(245,-10,o),
(292,20,o),
(369,101,c),
(376,101,l),
(420,32,o),
(493,-10,o),
(582,-10,cs),
(670,-10,o),
(727,20,o),
(783,94,c),
(763,113,l),
(723,85,o),
(678,71,o),
(633,71,cs),
(506,71,o),
(423,161,o),
(423,284,cs),
(423,293,o),
(423,302,o),
(424,310,c),
(766,310,l),
(768,324,ls),
(770,338,o),
(770,346,o),
(770,354,cs),
(770,469,o),
(700,530,o),
(599,530,cs),
(529,530,o),
(465,504,o),
(418,460,c),
(398,505,o),
(347,530,o),
(281,530,cs),
(189,530,o),
(82,466,o),
(51,388,cs),
(45,370,o),
(54,364,o),
(82,364,cs),
(124,364,o),
(155,378,o),
(159,393,cs),
(172,449,o),
(201,478,o),
(251,478,cs),
(302,478,o),
(338,441,o),
(337,392,cs),
(335,311,l),
(308,302,ls),
(114,237,o),
(52,166,o),
(52,91,cs),
(52,43,o),
(85,-10,o),
(175,-10,cs)
);
},
{
closed = 1;
nodes = (
(177,63,o),
(151,83,o),
(151,119,cs),
(151,154,o),
(181,210,o),
(324,264,cs),
(334,267,l),
(328,99,l),
(303,82,o),
(274,63,o),
(226,63,cs)
);
},
{
closed = 1;
nodes = (
(451,430,o),
(505,478,o),
(582,478,cs),
(639,478,o),
(674,437,o),
(674,383,cs),
(674,374,o),
(673,364,o),
(671,354,c),
(431,354,l)
);
}
);
width = 825;
},
{
anchors = (
{
name = bottom;
pos = (299,0);
},
{
name = top;
pos = (299,520);
}
);
layerId = m004;
shapes = (
{
closed = 1;
nodes = (
(217,-10,o),
(277,12,o),
(356,95,c),
(363,95,l),
(406,31,o),
(477,-10,o),
(566,-10,cs),
(643,-10,o),
(706,20,o),
(770,94,c),
(750,113,l),
(701,76,o),
(659,61,o),
(612,61,cs),
(487,61,o),
(410,161,o),
(410,296,cs),
(410,301,o),
(410,305,o),
(410,310,c),
(753,310,l),
(755,324,ls),
(757,338,o),
(757,346,o),
(757,354,cs),
(757,469,o),
(687,530,o),
(582,530,cs),
(514,530,o),
(452,504,o),
(405,460,c),
(386,505,o),
(334,530,o),
(268,530,cs),
(176,530,o),
(69,466,o),
(38,388,cs),
(32,369,o),
(46,366,o),
(69,366,cs),
(109,366,o),
(135,379,o),
(138,393,cs),
(152,458,o),
(190,488,o),
(235,488,cs),
(291,488,o),
(326,451,o),
(325,402,cs),
(322,303,l),
(297,294,ls),
(105,225,o),
(39,154,o),
(39,87,cs),
(39,41,o),
(65,-10,o),
(156,-10,cs)
);
},
{
closed = 1;
nodes = (
(164,56,o),
(138,76,o),
(138,119,cs),
(138,159,o),
(168,212,o),
(313,266,cs),
(321,269,l),
(315,92,l),
(290,75,o),
(261,56,o),
(213,56,cs)
);
},
{
closed = 1;
nodes = (
(430,437,o),
(485,491,o),
(560,491,cs),
(625,491,o),
(661,452,o),
(661,385,cs),
(661,373,o),
(660,361,o),
(658,348,c),
(414,348,l)
);
}
);
width = 800;
}
);
unicode = 230;
},
{
color = 6;
glyphname = b;
kernLeft = b;
kernRight = b;
lastChange = "2023-10-18 14:24:06 +0000";
layers = (
{
anchors = (
{
name = bottom;
pos = (314,0);
},
{
name = top;
pos = (314,800);
}
);
layerId = "CFBFE906-6BC9-42DE-B086-7F9578F7A428";
shapes = (
{
closed = 1;
nodes = (
(126,-10,l),
(147,28,l),
(186,3,o),
(231,-10,o),
(303,-10,cs),
(455,-10,o),
(582,106,o),
(582,269,cs),
(582,422,o),
(486,530,o),
(351,530,cs),
(277,530,o),
(242,514,o),
(182,453,c),
(176,453,l),
(176,800,l),
(162,800,l),
(8,756,l),
(8,721,l),
(54,720,o),
(86,712,o),
(86,662,cs),
(86,-10,l)
);
},
{
closed = 1;
nodes = (
(241,42,o),
(176,67,o),
(176,168,cs),
(176,410,l),
(207,438,o),
(242,450,o),
(305,450,cs),
(410,450,o),
(488,357,o),
(488,241,cs),
(488,109,o),
(419,42,o),
(310,42,cs)
);
}
);
width = 630;
},
{
anchors = (
{
name = bottom;
pos = (302,0);
},
{
name = top;
pos = (302,800);
}
);
layerId = m004;
shapes = (
{
closed = 1;
nodes = (
(104,-10,l),
(134,38,l),
(177,6,o),
(233,-10,o),
(291,-10,cs),
(450,-10,o),
(570,108,o),
(570,275,cs),
(570,426,o),
(475,530,o),
(337,530,cs),
(273,530,o),
(223,507,o),
(170,453,c),
(164,453,l),
(164,800,l),
(150,800,l),
(-4,756,l),
(-4,731,l),
(63,723,o),
(74,708,o),
(74,666,cs),
(74,-10,l)
);
},
{
closed = 1;
nodes = (
(212,28,o),
(164,87,o),
(164,183,cs),
(164,410,l),
(201,447,o),
(248,465,o),
(297,465,cs),
(409,465,o),
(476,373,o),
(476,236,cs),
(476,104,o),
(413,28,o),
(306,28,cs)
);
}
);
width = 606;
},
{
anchors = (
{
name = bottom;
pos = (314,0);
},
{
name = top;
pos = (314,800);
}
);
associatedMasterId = "CFBFE906-6BC9-42DE-B086-7F9578F7A428";
layerId = "F973B25A-A501-46E1-A288-DDAE1A59C6C9";
name = "3 Oct 23 at 15:13";
shapes = (
{
closed = 1;
nodes = (
(455,-10,o),
(582,106,o),
(582,269,cs),
(582,422,o),
(486,530,o),
(351,530,cs),
(270,530,o),
(236,511,o),
(165,435,c),
(166,401,l),
(200,435,o),
(235,450,o),
(305,450,cs),
(410,450,o),
(488,357,o),
(488,241,cs),
(488,109,o),
(419,42,o),
(310,42,cs),
(241,42,o),
(176,67,o),
(176,168,c),
(110,57,l),
(159,14,o),
(207,-10,o),
(303,-10,cs)
);
},
{
closed = 1;
nodes = (
(126,-10,l),
(159,49,l),
(176,32,l),
(176,437,l),
(184,437,l),
(184,453,l),
(176,453,l),
(176,800,l),
(162,800,l),
(8,756,l),
(8,721,l),
(54,720,o),
(86,712,o),
(86,662,cs),
(86,-10,l)
);
}
);
width = 630;
}
);
unicode = 98;
},
{
color = 6;
glyphname = c;
kernLeft = o;
kernRight = c;
lastChange = "2023-10-18 14:24:06 +0000";
layers = (
{
anchors = (
{
name = bottom;
pos = (286,0);
},
{
name = top;
pos = (286,520);
}
);
layerId = "CFBFE906-6BC9-42DE-B086-7F9578F7A428";
shapes = (
{
closed = 1;
nodes = (
(373,-10,o),
(436,20,o),
(499,94,c),
(479,113,l),
(429,75,o),
(385,61,o),
(339,61,cs),
(222,61,o),
(139,156,o),
(139,288,cs),
(139,400,o),
(200,478,o),
(293,478,cs),
(316,478,o),
(339,473,o),
(358,455,cs),
(412,406,ls),
(430,390,o),
(493,411,o),
(493,444,cs),
(493,479,o),
(425,530,o),
(321,530,cs),
(164,530,o),
(48,412,o),
(48,253,cs),
(48,103,o),
(152,-10,o),
(298,-10,cs)
);
}
);
width = 534;
},
{
anchors = (
{
name = bottom;
pos = (274,0);
},
{
name = top;
pos = (274,520);
}
);
layerId = m004;
shapes = (
{
closed = 1;
nodes = (
(361,-10,o),
(424,20,o),
(487,94,c),
(467,113,l),
(417,75,o),
(373,61,o),
(327,61,cs),
(210,61,o),
(127,156,o),
(127,288,cs),
(127,400,o),
(185,489,o),
(278,489,cs),
(304,489,o),
(319,484,o),
(337,468,cs),
(401,411,ls),
(420,394,o),
(481,411,o),
(481,444,cs),
(481,479,o),
(413,530,o),
(309,530,cs),
(152,530,o),
(36,412,o),
(36,253,cs),
(36,103,o),
(140,-10,o),
(286,-10,cs)
);
}
);
width = 510;
}
);
unicode = 99;
},
{
color = 6;
glyphname = d;
kernLeft = d;
kernRight = d;
lastChange = "2023-10-18 14:24:06 +0000";
layers = (
{
anchors = (
{
name = bottom;
pos = (328,0);
},
{
name = center;
pos = (328,260);
},
{
name = top;
pos = (328,800);
},
{
name = topright;
pos = (629,520);
}
);
layerId = "CFBFE906-6BC9-42DE-B086-7F9578F7A428";
shapes = (
{
closed = 1;
nodes = (
(353,-10,o),
(388,6,o),
(448,67,c),
(457,67,l),
(457,-2,l),
(471,-2,l),
(624,34,l),
(624,67,l),
(608,69,ls),
(554,76,o),
(544,93,o),
(544,135,cs),
(544,800,l),
(530,800,l),
(376,756,l),
(376,721,l),
(422,720,o),
(454,712,o),
(454,662,cs),
(454,493,l),
(415,519,o),
(371,530,o),
(317,530,cs),
(165,530,o),
(48,409,o),
(48,251,cs),
(48,98,o),
(144,-10,o),
(279,-10,cs)
);
},
{
closed = 1;
nodes = (
(220,70,o),
(142,163,o),
(142,279,cs),
(142,406,o),
(201,478,o),
(310,478,cs),
(383,478,o),
(454,433,o),
(454,342,cs),
(454,110,l),
(423,82,o),
(388,70,o),
(325,70,cs)
);
}
);
width = 650;
},
{
anchors = (
{
name = bottom;
pos = (316,0);
},
{
name = center;
pos = (316,260);
},
{
name = top;
pos = (316,800);
},
{
name = topright;
pos = (617,520);
}
);
layerId = m004;
shapes = (
{
closed = 1;
nodes = (
(322,-10,o),
(379,6,o),
(436,67,c),
(445,67,l),
(445,-2,l),
(459,-2,l),
(612,34,l),
(612,61,l),
(612,61,l),
(543,69,o),
(532,84,o),
(532,126,cs),
(532,800,l),
(518,800,l),
(364,756,l),
(364,731,l),
(431,723,o),
(442,708,o),
(442,666,cs),
(442,493,l),
(399,521,o),
(351,530,o),
(305,530,cs),
(153,530,o),
(36,409,o),
(36,246,cs),
(36,98,o),
(132,-10,o),
(269,-10,cs)
);
},
{
closed = 1;
nodes = (
(204,55,o),
(130,148,o),
(130,290,cs),
(130,421,o),
(189,492,o),
(298,492,cs),
(371,492,o),
(442,448,o),
(442,342,cs),
(442,110,l),
(401,67,o),
(357,55,o),
(316,55,cs)
);
}
);
width = 625;
},
{
anchors = (
{
name = bottom;
pos = (328,0);
},
{
name = center;
pos = (328,260);
},
{
name = top;
pos = (328,800);
},
{
name = topright;
pos = (629,520);
}
);
associatedMasterId = "CFBFE906-6BC9-42DE-B086-7F9578F7A428";
layerId = "D6641AD6-8360-4E5E-9CA2-B99F5EE1249A";
name = "3 Oct 23 at 15:13";
shapes = (
{
closed = 1;
nodes = (
(360,-10,o),
(394,9,o),
(465,85,c),
(464,119,l),
(430,85,o),
(395,70,o),
(325,70,cs),
(220,70,o),
(142,163,o),
(142,279,cs),
(142,406,o),
(201,478,o),
(310,478,cs),
(383,478,o),
(454,433,o),
(454,342,c),
(480,472,l),
(435,513,o),
(383,530,o),
(317,530,cs),
(165,530,o),
(48,409,o),
(48,251,cs),
(48,98,o),
(144,-10,o),
(279,-10,cs)
);
},
{
closed = 1;
nodes = (
(463,67,l),
(463,83,l),
(446,83,l),
(444,67,l)
);
},
{
closed = 1;
nodes = (
(471,-2,l),
(624,34,l),
(624,67,l),
(608,69,ls),
(554,76,o),
(544,93,o),
(544,135,cs),
(544,685,l),
(544,800,l),
(530,800,l),
(376,756,l),
(376,721,l),
(422,720,o),
(454,712,o),
(454,662,cs),
(454,67,l),
(457,67,l),
(457,-2,l)
);
}
);
width = 650;
}
);
unicode = 100;
},
{
color = 3;
glyphname = dcaron;
kernLeft = d;
kernRight = d;
lastChange = "2023-10-18 14:24:06 +0000";
layers = (
{
layerId = "CFBFE906-6BC9-42DE-B086-7F9578F7A428";
shapes = (
{
closed = 1;
nodes = (
(677,600,o),
(715,641,o),
(715,702,cs),
(715,742,o),
(692,780,o),
(647,780,cs),
(613,780,o),
(588,756,o),
(588,724,cs),
(588,692,o),
(612,670,o),
(642,670,cs),
(673,670,o),
(696,693,o),
(696,725,c),
(669,703,l),
(669,652,o),
(647,626,o),
(589,592,c),
(609,564,l)
);
},
{
ref = d;
}
);
width = 661;
},
{
layerId = m004;
shapes = (
{
closed = 1;
nodes = (
(664,600,o),
(702,641,o),
(702,702,cs),
(702,742,o),
(679,780,o),
(634,780,cs),
(600,780,o),
(575,756,o),
(575,724,cs),
(575,692,o),
(599,670,o),
(629,670,cs),
(660,670,o),
(683,693,o),
(683,725,c),
(660,693,l),
(660,652,o),
(636,622,o),
(579,588,c),
(596,564,l)
);
},
{
ref = d;
}
);
width = 635;
}
);
unicode = 271;
},
{
color = 3;
glyphname = dcroat;
kernLeft = d;
kernRight = d;
lastChange = "2023-10-18 14:24:06 +0000";
layers = (
{
guides = (
{
angle = 90;
pos = (951,67);
}
);
layerId = "CFBFE906-6BC9-42DE-B086-7F9578F7A428";
shapes = (
{
closed = 1;
nodes = (
(626,591,l),
(626,635,l),
(310,635,l),
(310,591,l)
);
},
{
ref = d;
}
);
width = 651;
},
{
guides = (
{
angle = 90;
pos = (603,61);
}
);
layerId = m004;
shapes = (
{
closed = 1;
nodes = (
(612,597,l),
(612,635,l),
(296,635,l),
(296,597,l)
);
},
{
ref = d;
}
);
width = 625;
}
);
unicode = 273;
},
{
color = 6;
glyphname = eth;
lastChange = "2023-10-18 14:24:06 +0000";
layers = (
{
layerId = "CFBFE906-6BC9-42DE-B086-7F9578F7A428";
shapes = (
{
closed = 1;
nodes = (
(439,-10,o),
(537,100,o),
(537,278,cs),
(537,313,o),
(521,357,o),
(491,392,c),
(455,388,l),
(434,438,o),
(370,477,o),
(290,477,cs),
(146,477,o),
(49,371,o),
(49,234,cs),
(49,91,o),
(146,-10,o),
(292,-10,cs)
);
},
{
closed = 1;
nodes = (
(192,44,o),
(137,155,o),
(137,257,cs),
(137,367,o),
(196,427,o),
(279,427,cs),
(390,427,o),
(448,318,o),
(448,211,cs),
(448,105,o),
(388,44,o),
(305,44,cs)
);
},
{
closed = 1;
nodes = (
(537,498,o),
(415,684,o),
(147,800,c),
(117,770,l),
(292,687,o),
(439,505,o),
(447,353,c),
(537,278,l)
);
},
{
closed = 1;
nodes = (
(467,733,l),
(437,768,l),
(169,578,l),
(199,543,l)
);
}
);
width = 593;
},
{
layerId = m004;
shapes = (
{
closed = 1;
nodes = (
(427,-10,o),
(525,100,o),
(525,278,cs),
(525,313,o),
(509,357,o),
(479,392,c),
(443,388,l),
(422,438,o),
(358,477,o),
(277,477,cs),
(134,477,o),
(37,371,o),
(37,234,cs),
(37,91,o),
(134,-10,o),
(280,-10,cs)
);
},
{
closed = 1;
nodes = (
(180,29,o),
(125,140,o),
(125,257,cs),
(125,380,o),
(184,440,o),
(267,440,cs),
(378,440,o),
(436,331,o),
(436,211,cs),
(436,90,o),
(376,29,o),
(293,29,cs)
);
},
{
closed = 1;
nodes = (
(525,498,o),
(403,684,o),
(135,800,c),
(115,780,l),
(290,697,o),
(427,505,o),
(435,353,c),
(525,278,l)
);
},
{
closed = 1;
nodes = (
(445,743,l),
(425,768,l),
(157,578,l),
(177,553,l)
);
}
);
width = 569;
}
);
unicode = 240;
},
{
color = 6;
glyphname = e;
kernLeft = o;
kernRight = e;
lastChange = "2023-10-18 14:24:06 +0000";
layers = (
{
anchors = (
{
name = bottom;
pos = (286,0);
},
{
name = ogonek;
pos = (375,0);
},
{
name = top;
pos = (286,520);
}
);
layerId = "CFBFE906-6BC9-42DE-B086-7F9578F7A428";
shapes = (
{
closed = 1;
nodes = (
(386,-10,o),
(443,20,o),
(499,94,c),
(479,113,l),
(439,85,o),
(394,71,o),
(349,71,cs),
(222,71,o),
(139,161,o),
(139,284,cs),
(139,400,o),
(200,478,o),
(298,478,cs),
(355,478,o),
(390,437,o),
(390,383,cs),
(390,374,o),
(389,364,o),
(387,354,c),
(126,354,l),
(126,310,l),
(482,310,l),
(484,324,ls),
(486,338,o),
(486,346,o),
(486,354,cs),
(486,469,o),
(416,530,o),
(315,530,cs),
(166,530,o),
(48,412,o),
(48,261,cs),
(48,103,o),
(152,-10,o),
(298,-10,cs)
);
}
);
width = 541;
},
{
anchors = (
{
name = bottom;
pos = (274,0);
},
{
name = ogonek;
pos = (354,0);
},
{
name = top;
pos = (274,520);
}
);
layerId = m004;
shapes = (
{
closed = 1;
nodes = (
(360,-10,o),
(423,20,o),
(487,94,c),
(467,113,l),
(418,76,o),
(376,61,o),
(329,61,cs),
(204,61,o),
(127,161,o),
(127,296,cs),
(127,415,o),
(188,491,o),
(277,491,cs),
(342,491,o),
(378,452,o),
(378,385,cs),
(378,373,o),
(377,361,o),
(375,348,c),
(111,348,l),
(111,310,l),
(470,310,l),
(472,324,ls),
(474,338,o),
(474,346,o),
(474,354,cs),
(474,469,o),
(404,530,o),
(299,530,cs),
(154,530,o),
(36,412,o),
(36,251,cs),
(36,103,o),
(134,-10,o),
(283,-10,cs)
);
}
);
width = 517;
}
);
unicode = 101;
},
{
color = 6;
glyphname = f;
kernLeft = f;
kernRight = f;
lastChange = "2023-10-18 14:24:06 +0000";
layers = (
{
anchors = (
{
name = bottom;
pos = (215,0);
},
{
name = top;
pos = (215,800);
}
);
guides = (
{
angle = 60;
pos = (359,477);
}
);
layerId = "CFBFE906-6BC9-42DE-B086-7F9578F7A428";
shapes = (
{
closed = 1;
nodes = (
(313,0,l),
(313,40,l),
(292,41,ls),
(231,44,o),
(212,60,o),
(212,108,cs),
(212,452,l),
(357,452,l),
(382,495,l),
(382,520,l),
(212,520,l),
(212,563,ls),
(212,680,o),
(286,747,o),
(336,747,cs),
(344,747,o),
(352,745,o),
(359,742,cs),
(431,711,ls),
(457,700,o),
(491,721,o),
(491,749,cs),
(491,782,o),
(441,804,o),
(389,804,cs),
(256,804,o),
(122,681,o),
(122,526,cs),
(122,520,l),
(58,520,l),
(33,477,l),
(33,452,l),
(122,452,l),
(122,88,ls),
(122,59,o),
(105,46,o),
(64,42,cs),
(43,40,l),
(43,0,l)
);
}
);
width = 396;
},
{
anchors = (
{
name = bottom;
pos = (201,0);
},
{
name = top;
pos = (201,800);
}
);
layerId = m004;
shapes = (
{
closed = 1;
nodes = (
(298,0,l),
(298,30,l),
(253,36,ls),
(212,41,o),
(198,58,o),
(198,104,cs),
(198,460,l),
(342,460,l),
(368,505,l),
(368,520,l),
(198,520,l),
(198,573,ls),
(198,680,o),
(272,757,o),
(322,757,cs),
(330,757,o),
(338,755,o),
(345,752,cs),
(422,716,ls),
(449,703,o),
(477,726,o),
(477,749,cs),
(477,782,o),
(427,804,o),
(375,804,cs),
(242,804,o),
(108,681,o),
(108,536,cs),
(108,520,l),
(45,520,l),
(19,475,l),
(19,460,l),
(108,460,l),
(108,94,ls),
(108,53,o),
(99,42,o),
(58,35,cs),
(28,30,l),
(28,0,l)
);
}
);
width = 367;
}
);
unicode = 102;
},
{
color = 6;
glyphname = g;
kernLeft = g;
kernRight = g;
lastChange = "2023-10-18 14:24:06 +0000";
layers = (
{
anchors = (
{
name = bottom;
pos = (267,-257);
},
{
name = top;
pos = (267,520);
}
);
layerId = "CFBFE906-6BC9-42DE-B086-7F9578F7A428";
shapes = (
{
closed = 1;
nodes = (
(382,-257,o),
(511,-161,o),
(511,-36,cs),
(511,35,o),
(470,72,o),
(383,79,cs),
(202,94,ls),
(162,97,o),
(147,105,o),
(147,123,cs),
(147,132,o),
(151,138,o),
(175,165,cs),
(205,199,l),
(157,199,l),
(126,169,ls),
(89,134,o),
(62,117,o),
(62,83,cs),
(62,41,o),
(106,14,o),
(183,8,cs),
(358,-5,ls),
(428,-10,o),
(453,-27,o),
(453,-72,cs),
(453,-142,o),
(385,-188,o),
(265,-188,cs),
(180,-188,o),
(124,-159,o),
(124,-99,cs),
(124,-59,o),
(148,-34,o),
(197,22,c),
(151,28,l),
(96,-27,ls),
(50,-73,o),
(39,-107,o),
(39,-135,cs),
(39,-207,o),
(112,-257,o),
(226,-257,cs)
);
},
{
closed = 1;
nodes = (
(364,176,o),
(444,256,o),
(444,354,cs),
(444,441,o),
(383,498,o),
(299,513,c),
(248,530,l),
(132,530,o),
(52,453,o),
(52,354,cs),
(52,250,o),
(132,176,o),
(248,176,cs)
);
},
{
closed = 1;
nodes = (
(179,225,o),
(140,300,o),
(140,369,cs),
(140,439,o),
(175,481,o),
(238,481,cs),
(315,481,o),
(356,408,o),
(356,336,cs),
(356,267,o),
(321,225,o),
(258,225,cs)
);
},
{
closed = 1;
nodes = (
(515,505,l),
(515,575,l),
(487,575,l),
(248,530,l),
(248,505,l)
);
}
);
width = 535;
},
{
anchors = (
{
name = bottom;
pos = (255,-257);
},
{
name = top;
pos = (255,520);
}
);
layerId = m004;
shapes = (
{
closed = 1;
nodes = (
(372,-257,o),
(499,-160,o),
(499,-36,cs),
(499,35,o),
(458,72,o),
(371,79,cs),
(180,95,ls),
(148,98,o),
(135,108,o),
(135,126,cs),
(135,136,o),
(139,143,o),
(158,165,cs),
(188,199,l),
(145,199,l),
(114,169,ls),
(77,134,o),
(50,117,o),
(50,83,cs),
(50,41,o),
(91,14,o),
(153,9,cs),
(346,-5,ls),
(423,-11,o),
(448,-28,o),
(448,-72,cs),
(448,-142,o),
(381,-188,o),
(269,-188,cs),
(167,-188,o),
(106,-156,o),
(106,-96,cs),
(106,-59,o),
(131,-30,o),
(177,22,c),
(139,28,l),
(84,-27,ls),
(38,-73,o),
(27,-107,o),
(27,-135,cs),
(27,-207,o),
(101,-257,o),
(215,-257,cs)
);
},
{
closed = 1;
nodes = (
(348,176,o),
(432,252,o),
(432,356,cs),
(432,445,o),
(370,511,o),
(279,527,c),
(238,530,l),
(123,530,o),
(40,456,o),
(40,352,cs),
(40,249,o),
(121,176,o),
(234,176,cs)
);
},
{
closed = 1;
nodes = (
(173,215,o),
(128,273,o),
(128,365,cs),
(128,446,o),
(164,491,o),
(228,491,cs),
(299,491,o),
(344,433,o),
(344,341,cs),
(344,260,o),
(308,215,o),
(244,215,cs)
);
},
{
closed = 1;
nodes = (
(505,515,l),
(505,578,l),
(486,578,l),
(238,530,l),
(238,515,l)
);
}
);
width = 510;
}
);
unicode = 103;
},
{
color = 6;
glyphname = h;
kernLeft = h;
kernRight = n;
lastChange = "2023-10-18 14:24:06 +0000";
layers = (
{
anchors = (
{
name = bottom;
pos = (322,0);
},
{
name = center;
pos = (322,400);
},
{
name = top;
pos = (153,742);
}
);
layerId = "CFBFE906-6BC9-42DE-B086-7F9578F7A428";
shapes = (
{
closed = 1;
nodes = (
(278,0,l),
(278,40,l),
(257,42,ls),
(208,47,o),
(198,66,o),
(198,108,cs),
(198,409,l),
(239,440,o),
(276,455,o),
(331,455,cs),
(397,455,o),
(448,437,o),
(448,354,cs),
(448,108,ls),
(448,66,o),
(438,47,o),
(389,42,cs),
(368,40,l),
(368,0,l),
(618,0,l),
(618,40,l),
(597,42,ls),
(548,47,o),
(538,66,o),
(538,108,cs),
(538,394,ls),
(538,480,o),
(481,530,o),
(386,530,cs),
(310,530,o),
(263,508,o),
(204,456,c),
(198,456,l),
(198,800,l),
(184,800,l),
(30,756,l),
(30,721,l),
(76,720,o),
(108,712,o),
(108,662,cs),
(108,108,ls),
(108,66,o),
(98,47,o),
(49,42,cs),
(28,40,l),
(28,0,l)
);
}
);
width = 644;
},
{
anchors = (
{
name = bottom;
pos = (308,0);
},
{
name = center;
pos = (308,400);
},
{
name = top;
pos = (139,742);
}
);
layerId = m004;
shapes = (
{
closed = 1;
nodes = (
(264,0,l),
(264,30,l),
(234,35,ls),
(194,42,o),
(184,52,o),
(184,94,cs),
(184,414,l),
(227,452,o),
(265,470,o),
(317,470,cs),
(396,470,o),
(434,437,o),
(434,364,cs),
(434,94,ls),
(434,52,o),
(424,42,o),
(384,35,cs),
(354,30,l),
(354,0,l),
(604,0,l),
(604,30,l),
(574,35,ls),
(534,42,o),
(524,52,o),
(524,94,cs),
(524,394,ls),
(524,480,o),
(467,530,o),
(372,530,cs),
(295,530,o),
(252,509,o),
(190,456,c),
(184,456,l),
(184,800,l),
(170,800,l),
(16,756,l),
(16,731,l),
(83,723,o),
(94,708,o),
(94,666,cs),
(94,94,ls),
(94,52,o),
(84,42,o),
(44,35,cs),
(14,30,l),
(14,0,l)
);
}
);
width = 616;
}
);
unicode = 104;
},
{
color = 3;
glyphname = hbar;
kernLeft = h;
kernRight = n;
lastChange = "2023-10-18 14:24:06 +0000";
layers = (
{
layerId = "CFBFE906-6BC9-42DE-B086-7F9578F7A428";
shapes = (
{
closed = 1;
nodes = (
(348,591,l),
(348,635,l),
(32,635,l),
(32,591,l)
);
},
{
ref = h;
}
);
width = 644;
},
{
layerId = m004;
shapes = (
{
closed = 1;
nodes = (
(335,597,l),
(335,635,l),
(19,635,l),
(19,597,l)
);
},
{
ref = h;
}
);
width = 616;
}
);
unicode = 295;
},
{
color = 6;
glyphname = idotless;
kernLeft = i;
kernRight = i;
lastChange = "2023-10-18 14:24:06 +0000";
layers = (
{
anchors = (
{
name = bottom;
pos = (163,0);
},
{
name = ogonek;
pos = (229,0);
},
{
name = top;
pos = (152,520);
}
);
layerId = "CFBFE906-6BC9-42DE-B086-7F9578F7A428";
shapes = (
{
closed = 1;
nodes = (
(287,0,l),
(287,40,l),
(266,42,ls),
(217,47,o),
(207,66,o),
(207,108,cs),
(207,526,l),
(193,526,l),
(39,482,l),
(39,447,l),
(85,446,o),
(117,438,o),
(117,388,cs),
(117,108,ls),
(117,66,o),
(107,47,o),
(58,42,cs),
(37,40,l),
(37,0,l)
);
}
);
width = 316;
},
{
anchors = (
{
name = bottom;
pos = (147,0);
},
{
name = ogonek;
pos = (212,0);
},
{
name = top;
pos = (137,520);
}
);
layerId = m004;
shapes = (
{
closed = 1;
nodes = (
(272,0,l),
(272,30,l),
(242,35,ls),
(202,42,o),
(192,52,o),
(192,94,cs),
(192,526,l),
(178,526,l),
(24,482,l),
(24,457,l),
(91,449,o),
(102,434,o),
(102,392,cs),
(102,94,ls),
(102,52,o),
(92,42,o),
(52,35,cs),
(22,30,l),
(22,0,l)
);
}
);
width = 287;
}
);
unicode = 305;
},
{
color = 6;
glyphname = jdotless;
kernLeft = j;
kernRight = j;
lastChange = "2023-10-18 14:24:06 +0000";
layers = (
{
anchors = (
{
name = bottom;
pos = (151,-257);
},
{
name = top;
pos = (151,520);
}
);
layerId = "CFBFE906-6BC9-42DE-B086-7F9578F7A428";
shapes = (
{
closed = 1;
nodes = (
(136,-257,o),
(196,-144,o),
(196,-9,cs),
(196,526,l),
(182,526,l),
(28,482,l),
(28,447,l),
(85,446,o),
(106,430,o),
(106,388,cs),
(106,-56,ls),
(106,-134,o),
(97,-201,o),
(56,-201,cs),
(48,-201,o),
(39,-201,o),
(16,-191,cs),
(-28,-171,ls),
(-60,-157,o),
(-87,-188,o),
(-87,-213,cs),
(-87,-238,o),
(-42,-257,o),
(2,-257,cs)
);
}
);
width = 282;
},
{
anchors = (
{
name = bottom;
pos = (137,-257);
},
{
name = top;
pos = (137,520);
}
);
layerId = m004;
shapes = (
{
closed = 1;
nodes = (
(122,-257,o),
(182,-144,o),
(182,-9,cs),
(182,526,l),
(168,526,l),
(14,482,l),
(14,457,l),
(81,449,o),
(92,434,o),
(92,392,cs),
(92,-56,ls),
(92,-144,o),
(83,-211,o),
(45,-211,cs),
(39,-211,o),
(33,-209,o),
(26,-206,cs),
(-45,-175,ls),
(-69,-165,o),
(-101,-188,o),
(-101,-213,cs),
(-101,-238,o),
(-56,-257,o),
(-12,-257,cs)
);
}
);
width = 256;
}
);
unicode = 567;
},
{
color = 6;
glyphname = k;
kernLeft = h;
kernRight = k;
lastChange = "2023-10-18 14:24:06 +0000";
layers = (
{
anchors = (
{
name = bottom;
pos = (304,0);
},
{
name = top;
pos = (304,800);
}
);
layerId = "CFBFE906-6BC9-42DE-B086-7F9578F7A428";
shapes = (
{
closed = 1;
nodes = (
(278,0,l),
(278,40,l),
(257,42,ls),
(208,47,o),
(198,66,o),
(198,108,c),
(198,800,l),
(184,800,l),
(30,756,l),
(30,721,l),
(76,720,o),
(108,712,o),
(108,662,cs),
(108,108,ls),
(108,66,o),
(98,47,o),
(49,42,cs),
(28,40,l),
(28,0,l)
);
},
{
closed = 1;
nodes = (
(591,0,l),
(591,40,l),
(571,42,ls),
(540,45,o),
(514,67,o),
(481,118,cs),
(334,348,l),
(269,290,l),
(381,118,ls),
(406,80,o),
(420,44,o),
(360,41,cs),
(338,40,l),
(338,0,l)
);
},
{
closed = 1;
nodes = (
(439,415,ls),
(475,448,o),
(507,475,o),
(560,478,cs),
(591,480,l),
(591,520,l),
(339,520,l),
(339,480,l),
(362,479,ls),
(414,477,o),
(418,458,o),
(371,415,cs),
(139,199,l),
(178,176,l)
);
}
);
width = 615;
},
{
anchors = (
{
name = bottom;
pos = (290,0);
},
{
name = top;
pos = (290,800);
}
);
layerId = m004;
shapes = (
{
closed = 1;
nodes = (
(264,0,l),
(264,30,l),
(234,35,ls),
(194,42,o),
(184,52,o),
(184,94,cs),
(184,800,l),
(170,800,l),
(16,756,l),
(16,731,l),
(83,723,o),
(94,708,o),
(94,666,cs),
(94,94,ls),
(94,52,o),
(84,42,o),
(44,35,cs),
(14,30,l),
(14,0,l)
);
},
{
closed = 1;
nodes = (
(577,0,l),
(577,30,l),
(557,32,ls),
(526,35,o),
(499,56,o),
(467,108,cs),
(320,348,l),
(256,290,l),
(368,108,ls),
(391,70,o),
(407,34,o),
(347,31,cs),
(325,30,l),
(325,0,l)
);
},
{
closed = 1;
nodes = (
(452,441,ls),
(491,476,o),
(523,487,o),
(577,490,c),
(577,490,l),
(577,520,l),
(330,520,l),
(330,490,l),
(354,489,ls),
(406,487,o),
(412,462,o),
(366,419,cs),
(124,191,l),
(152,165,l)
);
}
);
width = 586;
}
);
unicode = 107;
},
{
color = 6;
glyphname = l;
kernLeft = l;
kernRight = l;
lastChange = "2023-10-18 14:24:06 +0000";
layers = (
{
anchors = (
{
name = bottom;
pos = (154,0);
},
{
name = center;
pos = (154,400);
},
{
name = top;
pos = (154,800);
},
{
name = topright;
pos = (284,800);
}
);
layerId = "CFBFE906-6BC9-42DE-B086-7F9578F7A428";
shapes = (
{
closed = 1;
nodes = (
(278,0,l),
(278,40,l),
(257,42,ls),
(208,47,o),
(198,66,o),
(198,108,cs),
(198,800,l),
(184,800,l),
(30,756,l),
(30,721,l),
(76,720,o),
(108,712,o),
(108,662,cs),
(108,108,ls),
(108,66,o),
(98,47,o),
(49,42,cs),
(28,40,l),
(28,0,l)
);
}
);
width = 306;
},
{
anchors = (
{
name = bottom;
pos = (140,0);
},
{
name = center;
pos = (140,400);
},
{
name = top;
pos = (140,800);
},
{
name = topright;
pos = (270,800);
}
);
layerId = m004;
shapes = (
{
closed = 1;
nodes = (
(264,0,l),
(264,30,l),
(234,35,ls),
(194,42,o),
(184,52,o),
(184,94,cs),
(184,800,l),
(170,800,l),
(16,756,l),
(16,731,l),
(83,723,o),
(94,708,o),
(94,666,cs),
(94,94,ls),
(94,52,o),
(84,42,o),
(44,35,cs),
(14,30,l),
(14,0,l)
);
}
);
width = 278;
}
);
unicode = 108;
},
{
color = 3;
glyphname = lcaron;
kernLeft = l;
kernRight = l;
lastChange = "2023-10-18 14:24:06 +0000";
layers = (
{
layerId = "CFBFE906-6BC9-42DE-B086-7F9578F7A428";
shapes = (
{
closed = 1;
nodes = (
(345,600,o),
(383,641,o),
(383,702,cs),
(383,742,o),
(360,780,o),
(315,780,cs),
(281,780,o),
(256,756,o),
(256,724,cs),
(256,692,o),
(280,670,o),
(310,670,cs),
(341,670,o),
(364,693,o),
(364,725,c),
(337,703,l),
(337,652,o),
(315,626,o),
(257,592,c),
(277,564,l)
);
},
{
ref = l;
}
);
width = 318;
},
{
layerId = m004;
shapes = (
{
closed = 1;
nodes = (
(333,600,o),
(371,641,o),
(371,702,cs),
(371,742,o),
(348,780,o),
(303,780,cs),
(269,780,o),
(244,756,o),
(244,724,cs),
(244,692,o),
(268,670,o),
(298,670,cs),
(329,670,o),
(352,693,o),
(352,725,c),
(329,693,l),
(329,652,o),
(305,622,o),
(248,588,c),
(265,564,l)
);
},
{
ref = l;
}
);
width = 291;
}
);
unicode = 318;
},
{
color = 3;
glyphname = lslash;
lastChange = "2023-10-18 14:24:06 +0000";
layers = (
{
guides = (
{
angle = 90;
pos = (622,40);
}
);
layerId = "CFBFE906-6BC9-42DE-B086-7F9578F7A428";
shapes = (
{
closed = 1;
nodes = (
(296,416,l),
(296,463,l),
(46,361,l),
(46,314,l)
);
},
{
pos = (14,0);
ref = l;
}
);
width = 336;
},
{
guides = (
{
angle = 90;
pos = (273,30);
}
);
layerId = m004;
shapes = (
{
closed = 1;
nodes = (
(282,419,l),
(282,461,l),
(32,359,l),
(32,317,l)
);
},
{
pos = (13,0);
ref = l;
}
);
width = 308;
}
);
unicode = 322;
},
{
color = 6;
glyphname = m;
kernLeft = n;
kernRight = n;
lastChange = "2023-10-18 14:24:06 +0000";
layers = (
{
anchors = (
{
name = bottom;
pos = (471,0);
},
{
name = top;
pos = (471,520);
}
);
layerId = "CFBFE906-6BC9-42DE-B086-7F9578F7A428";
shapes = (
{
closed = 1;
nodes = (
(287,0,l),
(287,40,l),
(266,42,ls),
(217,47,o),
(207,66,o),
(207,108,cs),
(207,409,l),
(248,440,o),
(285,455,o),
(335,455,cs),
(386,455,o),
(427,437,o),
(427,358,cs),
(427,108,ls),
(427,66,o),
(417,47,o),
(368,42,cs),
(347,40,l),
(347,0,l),
(597,0,l),
(597,40,l),
(576,42,ls),
(527,47,o),
(517,66,o),
(517,108,cs),
(517,406,l),
(561,442,o),
(597,455,o),
(645,455,cs),
(696,455,o),
(737,437,o),
(737,358,cs),
(737,108,ls),
(737,66,o),
(727,47,o),
(678,42,cs),
(657,40,l),
(657,0,l),
(907,0,l),
(907,40,l),
(886,42,ls),
(837,47,o),
(827,66,o),
(827,108,cs),
(827,407,ls),
(827,481,o),
(788,530,o),
(696,530,cs),
(628,530,o),
(584,508,o),
(519,450,c),
(511,450,l),
(499,492,o),
(458,530,o),
(386,530,cs),
(314,530,o),
(271,507,o),
(209,453,c),
(204,453,l),
(204,526,l),
(190,526,l),
(39,482,l),
(39,447,l),
(85,446,o),
(117,438,o),
(117,388,cs),
(117,108,ls),
(117,66,o),
(107,47,o),
(58,42,cs),
(37,40,l),
(37,0,l)
);
}
);
width = 934;
},
{
anchors = (
{
name = bottom;
pos = (456,0);
},
{
name = top;
pos = (456,520);
}
);
layerId = m004;
shapes = (
{
closed = 1;
nodes = (
(272,0,l),
(272,30,l),
(242,35,ls),
(202,42,o),
(192,52,o),
(192,94,cs),
(192,414,l),
(235,452,o),
(273,470,o),
(323,470,cs),
(374,470,o),
(412,457,o),
(412,377,cs),
(412,94,ls),
(412,52,o),
(402,42,o),
(362,35,cs),
(332,30,l),
(332,0,l),
(582,0,l),
(582,30,l),
(552,35,ls),
(512,42,o),
(502,52,o),
(502,94,cs),
(502,414,l),
(547,453,o),
(584,470,o),
(633,470,cs),
(684,470,o),
(722,457,o),
(722,377,cs),
(722,94,ls),
(722,52,o),
(712,42,o),
(672,35,cs),
(642,30,l),
(642,0,l),
(892,0,l),
(892,30,l),
(862,35,ls),
(822,42,o),
(812,52,o),
(812,94,cs),
(812,407,ls),
(812,500,o),
(752,530,o),
(679,530,cs),
(617,530,o),
(569,509,o),
(500,450,c),
(495,450,l),
(478,510,o),
(428,530,o),
(369,530,cs),
(307,530,o),
(259,509,o),
(195,453,c),
(189,453,l),
(189,526,l),
(175,526,l),
(24,482,l),
(24,457,l),
(91,449,o),
(102,434,o),
(102,392,cs),
(102,94,ls),
(102,52,o),
(92,42,o),
(52,35,cs),
(22,30,l),
(22,0,l)
);
}
);
width = 905;
}
);
unicode = 109;
},
{
color = 6;
glyphname = n;
kernLeft = n;
kernRight = n;
lastChange = "2023-10-18 14:24:06 +0000";
layers = (
{
anchors = (
{
name = bottom;
pos = (331,0);
},
{
name = top;
pos = (326,520);
}
);
layerId = "CFBFE906-6BC9-42DE-B086-7F9578F7A428";
shapes = (
{
closed = 1;
nodes = (
(287,0,l),
(287,40,l),
(266,42,ls),
(217,47,o),
(207,66,o),
(207,108,cs),
(207,409,l),
(248,440,o),
(285,455,o),
(340,455,cs),
(406,455,o),
(457,437,o),
(457,355,cs),
(457,108,ls),
(457,66,o),
(447,47,o),
(398,42,cs),
(377,40,l),
(377,0,l),
(627,0,l),
(627,40,l),
(606,42,ls),
(557,47,o),
(547,66,o),
(547,108,cs),
(547,395,ls),
(547,480,o),
(490,530,o),
(395,530,cs),
(320,530,o),
(272,507,o),
(210,453,c),
(204,453,l),
(204,526,l),
(190,526,l),
(39,482,l),
(39,447,l),
(85,446,o),
(117,438,o),
(117,388,cs),
(117,108,ls),
(117,66,o),
(107,47,o),
(58,42,cs),
(37,40,l),
(37,0,l)
);
}
);
width = 653;
},
{
anchors = (
{
name = bottom;
pos = (316,0);
},
{
name = top;
pos = (311,520);
}
);
layerId = m004;
shapes = (
{
closed = 1;
nodes = (
(272,0,l),
(272,30,l),
(242,35,ls),
(202,42,o),
(192,52,o),
(192,94,cs),
(192,414,l),
(235,452,o),
(273,470,o),
(325,470,cs),
(404,470,o),
(442,437,o),
(442,364,cs),
(442,94,ls),
(442,52,o),
(432,42,o),
(392,35,cs),
(362,30,l),
(362,0,l),
(612,0,l),
(612,30,l),
(582,35,ls),
(542,42,o),
(532,52,o),
(532,94,cs),
(532,394,ls),
(532,480,o),
(475,530,o),
(380,530,cs),
(307,530,o),
(259,509,o),
(195,453,c),
(189,453,l),
(189,526,l),
(175,526,l),
(24,482,l),
(24,457,l),
(91,449,o),
(102,434,o),
(102,392,cs),
(102,94,ls),
(102,52,o),
(92,42,o),
(52,35,cs),
(22,30,l),
(22,0,l)
);
}
);
width = 624;
}
);
unicode = 110;
},
{
color = 6;
glyphname = eng;
kernLeft = n;
kernRight = j;
lastChange = "2023-10-18 14:24:06 +0000";
layers = (
{
layerId = "CFBFE906-6BC9-42DE-B086-7F9578F7A428";
shapes = (
{
closed = 1;
nodes = (
(487,-257,o),
(547,-144,o),
(547,-9,cs),
(547,395,ls),
(547,480,o),
(490,530,o),
(395,530,cs),
(320,530,o),
(272,507,o),
(210,453,c),
(204,453,l),
(204,526,l),
(190,526,l),
(39,482,l),
(39,447,l),
(85,446,o),
(117,438,o),
(117,388,cs),
(117,108,ls),
(117,66,o),
(107,47,o),
(58,42,cs),
(37,40,l),
(37,0,l),
(287,0,l),
(287,40,l),
(266,42,ls),
(217,47,o),
(207,66,o),
(207,108,cs),
(207,409,l),
(248,440,o),
(285,455,o),
(340,455,cs),
(406,455,o),
(457,437,o),
(457,355,cs),
(457,-56,ls),
(457,-134,o),
(448,-201,o),
(407,-201,cs),
(399,-201,o),
(390,-201,o),
(367,-191,cs),
(323,-171,ls),
(291,-157,o),
(264,-188,o),
(264,-213,cs),
(264,-238,o),
(309,-257,o),
(353,-257,cs)
);
}
);
width = 620;
},
{
layerId = m004;
shapes = (
{
closed = 1;
nodes = (
(472,-257,o),
(532,-144,o),
(532,-9,cs),
(532,394,ls),
(532,480,o),
(475,530,o),
(380,530,cs),
(307,530,o),
(259,509,o),
(195,453,c),
(189,453,l),
(189,526,l),
(175,526,l),
(24,482,l),
(24,457,l),
(91,449,o),
(102,434,o),
(102,392,cs),
(102,94,ls),
(102,52,o),
(92,42,o),
(52,35,cs),
(22,30,l),
(22,0,l),
(272,0,l),
(272,30,l),
(242,35,ls),
(202,42,o),
(192,52,o),
(192,94,cs),
(192,414,l),
(235,452,o),
(273,470,o),
(325,470,cs),
(404,470,o),
(442,437,o),
(442,364,cs),
(442,-56,ls),
(442,-144,o),
(433,-211,o),
(395,-211,cs),
(389,-211,o),
(383,-209,o),
(376,-206,cs),
(305,-175,ls),
(281,-165,o),
(249,-188,o),
(249,-213,cs),
(249,-238,o),
(294,-257,o),
(338,-257,cs)
);
}
);
width = 593;
}
);
metricLeft = n;
metricRight = j;
unicode = 331;
},
{
color = 6;
glyphname = o;
kernLeft = o;
kernRight = o;
lastChange = "2023-10-18 14:24:06 +0000";
layers = (
{
anchors = (
{
name = bottom;
pos = (319,0);
},
{
name = center;
pos = (319,260);
},
{
name = ogonek;
pos = (568,10);
},
{
name = top;
pos = (315,520);
},
{
name = topright;
pos = (610,520);
}
);
layerId = "CFBFE906-6BC9-42DE-B086-7F9578F7A428";
shapes = (
{
closed = 1;
nodes = (
(481,-10,o),
(589,98,o),
(589,260,cs),
(589,421,o),
(480,530,o),
(318,530,cs),
(156,530,o),
(48,422,o),
(48,260,cs),
(48,99,o),
(157,-10,o),
(319,-10,cs)
);
},
{
closed = 1;
nodes = (
(224,44,o),
(145,143,o),
(145,286,cs),
(145,406,o),
(202,476,o),
(298,476,cs),
(413,476,o),
(492,377,o),
(492,234,cs),
(492,114,o),
(435,44,o),
(339,44,cs)
);
}
);
width = 637;
},
{
anchors = (
{
name = bottom;
pos = (307,0);
},
{
name = center;
pos = (307,260);
},
{
name = ogonek;
pos = (556,10);
},
{
name = top;
pos = (303,520);
},
{
name = topright;
pos = (598,520);
}
);
layerId = m004;
shapes = (
{
closed = 1;
nodes = (
(469,-10,o),
(577,108,o),
(577,261,cs),
(577,421,o),
(468,530,o),
(306,530,cs),
(144,530,o),
(36,412,o),
(36,260,cs),
(36,99,o),
(145,-10,o),
(306,-10,cs)
);
},
{
closed = 1;
nodes = (
(198,29,o),
(133,151,o),
(133,285,cs),
(133,423,o),
(200,491,o),
(291,491,cs),
(415,491,o),
(480,369,o),
(480,234,cs),
(480,97,o),
(413,29,o),
(322,29,cs)
);
}
);
width = 613;
}
);
unicode = 111;
},
{
color = 3;
glyphname = oslash;
kernLeft = o;
kernRight = o;
lastChange = "2023-10-18 14:24:06 +0000";
layers = (
{
anchors = (
{
name = top;
pos = (308,520);
}
);
layerId = "CFBFE906-6BC9-42DE-B086-7F9578F7A428";
shapes = (
{
closed = 1;
nodes = (
(152,-48,l),
(542,570,l),
(488,570,l),
(98,-48,l)
);
},
{
ref = o;
}
);
width = 637;
},
{
anchors = (
{
name = top;
pos = (295,520);
}
);
layerId = m004;
shapes = (
{
closed = 1;
nodes = (
(136,-48,l),
(526,570,l),
(478,570,l),
(88,-48,l)
);
},
{
pos = (0,1);
ref = o;
}
);
width = 613;
}
);
unicode = 248;
},
{
color = 6;
glyphname = oe;
kernLeft = o;
kernRight = e;
lastChange = "2023-10-18 14:24:06 +0000";
layers = (
{
anchors = (
{
name = bottom;
pos = (307,0);
},
{
name = center;
pos = (319,260);
},
{
name = ogonek;
pos = (1124,10);
},
{
name = top;
pos = (307,520);
},
{
name = topright;
pos = (610,520);
}
);
layerId = "CFBFE906-6BC9-42DE-B086-7F9578F7A428";
shapes = (
{
closed = 1;
nodes = (
(431,-10,o),
(523,51,o),
(560,151,c),
(556,379,l),
(515,473,o),
(426,530,o),
(318,530,cs),
(156,530,o),
(48,422,o),
(48,260,cs),
(48,99,o),
(157,-10,o),
(319,-10,cs)
);
},
{
closed = 1;
nodes = (
(224,44,o),
(145,143,o),
(145,286,cs),
(145,406,o),
(202,476,o),
(298,476,cs),
(403,476,o),
(482,377,o),
(482,234,cs),
(482,114,o),
(425,44,o),
(339,44,cs)
);
},
{
closed = 1;
nodes = (
(820,-10,o),
(877,20,o),
(933,94,c),
(913,113,l),
(873,85,o),
(828,71,o),
(783,71,cs),
(656,71,o),
(573,161,o),
(573,284,cs),
(573,400,o),
(634,478,o),
(732,478,cs),
(799,478,o),
(836,422,o),
(821,354,c),
(560,354,l),
(560,310,l),
(916,310,l),
(919,329,l),
(930,460,o),
(857,530,o),
(749,530,cs),
(600,530,o),
(482,412,o),
(482,261,cs),
(482,103,o),
(586,-10,o),
(732,-10,cs)
);
}
);
width = 975;
},
{
anchors = (
{
name = bottom;
pos = (295,0);
},
{
name = center;
pos = (307,260);
},
{
name = ogonek;
pos = (1092,10);
},
{
name = top;
pos = (295,520);
},
{
name = topright;
pos = (598,520);
}
);
layerId = m004;
shapes = (
{
closed = 1;
nodes = (
(404,-10,o),
(488,42,o),
(533,122,c),
(531,405,l),
(486,483,o),
(403,530,o),
(306,530,cs),
(144,530,o),
(36,412,o),
(36,260,cs),
(36,99,o),
(145,-10,o),
(306,-10,cs)
);
},
{
closed = 1;
nodes = (
(198,29,o),
(133,151,o),
(133,285,cs),
(133,423,o),
(200,491,o),
(291,491,cs),
(405,491,o),
(470,369,o),
(470,234,cs),
(470,97,o),
(403,29,o),
(322,29,cs)
);
},
{
closed = 1;
nodes = (
(794,-10,o),
(857,20,o),
(921,94,c),
(901,113,l),
(852,76,o),
(810,61,o),
(763,61,cs),
(638,61,o),
(561,161,o),
(561,296,cs),
(561,415,o),
(622,491,o),
(711,491,cs),
(787,491,o),
(824,437,o),
(809,348,c),
(545,348,l),
(545,310,l),
(904,310,l),
(907,329,l),
(918,460,o),
(845,530,o),
(733,530,cs),
(588,530,o),
(470,412,o),
(470,251,cs),
(470,103,o),
(568,-10,o),
(717,-10,cs)
);
}
);
width = 951;
}
);
unicode = 339;
},
{
color = 6;
glyphname = p;
kernLeft = n;
kernRight = b;
lastChange = "2023-10-18 14:24:06 +0000";
layers = (
{
anchors = (
{
name = bottom;
pos = (323,0);
},
{
name = top;
pos = (323,520);
}
);
layerId = "CFBFE906-6BC9-42DE-B086-7F9578F7A428";
shapes = (
{
closed = 1;
nodes = (
(297,-247,l),
(297,-207,l),
(276,-205,ls),
(207,-198,o),
(196,-181,o),
(196,-139,cs),
(196,32,l),
(237,-1,o),
(279,-10,o),
(333,-10,cs),
(485,-10,o),
(602,111,o),
(602,269,cs),
(602,422,o),
(506,530,o),
(371,530,cs),
(297,530,o),
(262,514,o),
(202,453,c),
(193,453,l),
(193,526,l),
(179,526,l),
(28,482,l),
(28,447,l),
(74,446,o),
(106,438,o),
(106,388,cs),
(106,-159,ls),
(106,-187,o),
(90,-201,o),
(48,-205,cs),
(27,-207,l),
(27,-247,l)
);
},
{
closed = 1;
nodes = (
(267,42,o),
(196,97,o),
(196,178,cs),
(196,410,l),
(227,438,o),
(262,450,o),
(325,450,cs),
(430,450,o),
(508,357,o),
(508,241,cs),
(508,114,o),
(449,42,o),
(340,42,cs)
);
}
);
width = 651;
},
{
anchors = (
{
name = bottom;
pos = (309,0);
},
{
name = top;
pos = (309,520);
}
);
layerId = m004;
shapes = (
{
closed = 1;
nodes = (
(282,-247,l),
(282,-217,l),
(237,-211,ls),
(196,-206,o),
(182,-189,o),
(182,-143,cs),
(182,19,l),
(220,0,o),
(264,-10,o),
(309,-10,cs),
(468,-10,o),
(588,108,o),
(588,275,cs),
(588,426,o),
(493,530,o),
(355,530,cs),
(291,530,o),
(241,507,o),
(185,453,c),
(179,453,l),
(179,526,l),
(165,526,l),
(14,482,l),
(14,457,l),
(81,449,o),
(92,434,o),
(92,392,cs),
(92,-153,ls),
(92,-194,o),
(83,-205,o),
(42,-212,cs),
(12,-217,l),
(12,-247,l)
);
},
{
closed = 1;
nodes = (
(230,28,o),
(182,87,o),
(182,183,cs),
(182,413,l),
(219,447,o),
(266,465,o),
(315,465,cs),
(427,465,o),
(494,373,o),
(494,236,cs),
(494,104,o),
(431,28,o),
(324,28,cs)
);
}
);
width = 624;
},
{
anchors = (
{
name = bottom;
pos = (323,0);
},
{
name = top;
pos = (323,520);
}
);
associatedMasterId = "CFBFE906-6BC9-42DE-B086-7F9578F7A428";
layerId = "8E9FE928-95E2-4F8C-8DC1-B8206C7E3980";
name = "3 Oct 23 at 15:14";
shapes = (
{
closed = 1;
nodes = (
(485,-10,o),
(602,111,o),
(602,269,cs),
(602,422,o),
(506,530,o),
(371,530,cs),
(290,530,o),
(256,511,o),
(185,435,c),
(186,401,l),
(220,435,o),
(255,450,o),
(325,450,cs),
(430,450,o),
(508,357,o),
(508,241,cs),
(508,114,o),
(449,42,o),
(340,42,cs),
(267,42,o),
(196,97,o),
(196,178,c),
(170,57,l),
(219,3,o),
(267,-10,o),
(333,-10,cs)
);
},
{
closed = 1;
nodes = (
(297,-247,l),
(297,-207,l),
(276,-205,ls),
(207,-198,o),
(196,-181,o),
(196,-139,cs),
(196,437,l),
(204,437,l),
(214,453,l),
(193,453,l),
(193,526,l),
(179,526,l),
(28,482,l),
(28,447,l),
(74,446,o),
(106,438,o),
(106,388,cs),
(106,-159,ls),
(106,-187,o),
(90,-201,o),
(48,-205,cs),
(27,-207,l),
(27,-247,l)
);
}
);
width = 651;
}
);
unicode = 112;
},
{
color = 6;
glyphname = thorn;
kernLeft = b;
kernRight = b;
lastChange = "2023-10-18 14:24:06 +0000";
layers = (
{
anchors = (
{
name = bottom;
pos = (283,0);
},
{
name = top;
pos = (283,520);
}
);
layerId = "CFBFE906-6BC9-42DE-B086-7F9578F7A428";
shapes = (
{
closed = 1;
nodes = (
(277,-247,l),
(277,-207,l),
(256,-205,ls),
(187,-198,o),
(176,-181,o),
(176,-139,cs),
(176,32,l),
(217,-1,o),
(259,-10,o),
(313,-10,cs),
(465,-10,o),
(582,111,o),
(582,269,cs),
(582,422,o),
(486,530,o),
(351,530,cs),
(277,530,o),
(242,514,o),
(182,453,c),
(176,453,l),
(176,800,l),
(162,800,l),
(8,756,l),
(8,721,l),
(54,720,o),
(86,712,o),
(86,662,cs),
(86,-159,ls),
(86,-187,o),
(70,-201,o),
(28,-205,cs),
(7,-207,l),
(7,-247,l)
);
},
{
closed = 1;
nodes = (
(247,42,o),
(176,97,o),
(176,178,cs),
(176,410,l),
(207,438,o),
(242,450,o),
(305,450,cs),
(410,450,o),
(488,357,o),
(488,241,cs),
(488,114,o),
(429,42,o),
(320,42,cs)
);
}
);
width = 631;
},
{
anchors = (
{
name = bottom;
pos = (270,0);
},
{
name = top;
pos = (270,520);
}
);
layerId = m004;
shapes = (
{
closed = 1;
nodes = (
(264,-247,l),
(264,-217,l),
(219,-211,ls),
(178,-206,o),
(164,-189,o),
(164,-143,cs),
(164,19,l),
(202,0,o),
(246,-10,o),
(291,-10,cs),
(450,-10,o),
(570,108,o),
(570,275,cs),
(570,426,o),
(475,530,o),
(337,530,cs),
(273,530,o),
(223,507,o),
(170,453,c),
(164,453,l),
(164,800,l),
(150,800,l),
(-4,756,l),
(-4,731,l),
(63,723,o),
(74,708,o),
(74,666,cs),
(74,-153,ls),
(74,-194,o),
(65,-205,o),
(24,-212,cs),
(-6,-217,l),
(-6,-247,l)
);
},
{
closed = 1;
nodes = (
(212,28,o),
(164,87,o),
(164,183,cs),
(164,413,l),
(201,447,o),
(248,465,o),
(297,465,cs),
(409,465,o),
(476,373,o),
(476,236,cs),
(476,104,o),
(413,28,o),
(306,28,cs)
);
}
);
width = 606;
},
{
anchors = (
{
name = bottom;
pos = (283,0);
},
{
name = top;
pos = (283,520);
}
);
associatedMasterId = "CFBFE906-6BC9-42DE-B086-7F9578F7A428";
layerId = "C68D92DD-D2A9-4641-AC11-4B19015E907A";
name = "3 Oct 23 at 15:14";
shapes = (
{
closed = 1;
nodes = (
(465,-10,o),
(582,111,o),
(582,269,cs),
(582,422,o),
(486,530,o),
(351,530,cs),
(270,530,o),
(236,511,o),
(165,435,c),
(166,401,l),
(200,435,o),
(235,450,o),
(305,450,cs),
(410,450,o),
(488,357,o),
(488,241,cs),
(488,114,o),
(429,42,o),
(320,42,cs),
(247,42,o),
(176,97,o),
(176,178,c),
(150,57,l),
(199,3,o),
(247,-10,o),
(313,-10,cs)
);
},
{
closed = 1;
nodes = (
(277,-247,l),
(277,-207,l),
(256,-205,ls),
(187,-198,o),
(176,-181,o),
(176,-139,cs),
(176,437,l),
(184,437,l),
(194,453,l),
(173,453,l),
(173,526,l),
(159,526,l),
(86,388,l),
(86,-159,ls),
(86,-187,o),
(70,-201,o),
(28,-205,cs),
(7,-207,l),
(7,-247,l)
);
},
{
closed = 1;
nodes = (
(126,-10,l),
(159,49,l),
(176,32,l),
(176,437,l),
(184,437,l),
(184,453,l),
(176,453,l),
(176,800,l),
(162,800,l),
(8,756,l),
(8,721,l),
(54,720,o),
(86,712,o),
(86,662,cs),
(86,-10,l)
);
}
);
width = 631;
},
{
anchors = (
{
name = bottom;
pos = (270,0);
},
{
name = top;
pos = (270,520);
}
);
associatedMasterId = m004;
layerId = "A154CFCB-6781-4AC9-B048-6C9AC823B68A";
name = "3 Oct 23 at 15:15";
shapes = (
{
closed = 1;
nodes = (
(264,-247,l),
(264,-217,l),
(219,-211,ls),
(178,-206,o),
(164,-189,o),
(164,-143,cs),
(164,19,l),
(202,0,o),
(246,-10,o),
(291,-10,cs),
(450,-10,o),
(570,108,o),
(570,275,cs),
(570,426,o),
(475,530,o),
(337,530,cs),
(273,530,o),
(223,507,o),
(170,453,c),
(161,453,l),
(161,526,l),
(74,392,l),
(74,-153,ls),
(74,-194,o),
(65,-205,o),
(24,-212,cs),
(-6,-217,l),
(-6,-247,l)
);
},
{
closed = 1;
nodes = (
(153,433,l),
(170,453,l),
(164,453,l),
(164,800,l),
(150,800,l),
(-4,756,l),
(-4,731,l),
(63,723,o),
(74,708,o),
(74,666,cs),
(74,-10,l)
);
},
{
closed = 1;
nodes = (
(212,28,o),
(164,87,o),
(164,183,cs),
(164,413,l),
(201,447,o),
(248,465,o),
(297,465,cs),
(409,465,o),
(476,373,o),
(476,236,cs),
(476,104,o),
(413,28,o),
(306,28,cs)
);
}
);
width = 606;
}
);
unicode = 254;
},
{
color = 6;
glyphname = q;
kernLeft = d;
kernRight = u;
lastChange = "2023-10-18 14:24:06 +0000";
layers = (
{
anchors = (
{
name = bottom;
pos = (319,0);
},
{
name = top;
pos = (319,520);
}
);
layerId = "CFBFE906-6BC9-42DE-B086-7F9578F7A428";
shapes = (
{
closed = 1;
nodes = (
(623,-247,l),
(623,-207,l),
(602,-205,ls),
(560,-201,o),
(544,-187,o),
(544,-159,cs),
(544,530,l),
(504,530,l),
(482,491,l),
(441,516,o),
(392,530,o),
(327,530,cs),
(165,530,o),
(48,409,o),
(48,251,cs),
(48,98,o),
(144,-10,o),
(279,-10,cs),
(353,-10,o),
(388,6,o),
(448,67,c),
(454,67,l),
(454,-139,ls),
(454,-181,o),
(443,-198,o),
(374,-205,cs),
(353,-207,l),
(353,-247,l)
);
},
{
closed = 1;
nodes = (
(220,70,o),
(142,163,o),
(142,279,cs),
(142,406,o),
(201,478,o),
(320,478,cs),
(379,478,o),
(454,453,o),
(454,352,cs),
(454,110,l),
(423,82,o),
(388,70,o),
(325,70,cs)
);
}
);
width = 630;
},
{
anchors = (
{
name = bottom;
pos = (307,0);
},
{
name = top;
pos = (307,520);
}
);
layerId = m004;
shapes = (
{
closed = 1;
nodes = (
(611,-247,l),
(611,-217,l),
(581,-212,ls),
(541,-205,o),
(532,-195,o),
(532,-153,cs),
(532,530,l),
(502,530,l),
(472,490,l),
(419,517,o),
(368,530,o),
(315,530,cs),
(154,530,o),
(36,410,o),
(36,246,cs),
(36,97,o),
(133,-10,o),
(267,-10,cs),
(331,-10,o),
(388,16,o),
(436,67,c),
(442,67,l),
(442,-143,ls),
(442,-189,o),
(428,-205,o),
(386,-211,cs),
(341,-217,l),
(341,-247,l)
);
},
{
closed = 1;
nodes = (
(205,55,o),
(130,152,o),
(130,293,cs),
(130,423,o),
(192,492,o),
(301,492,cs),
(391,492,o),
(442,434,o),
(442,336,cs),
(442,110,l),
(401,70,o),
(366,55,o),
(313,55,cs)
);
}
);
width = 606;
},
{
anchors = (
{
name = bottom;
pos = (319,0);
},
{
name = top;
pos = (319,520);
}
);
associatedMasterId = "CFBFE906-6BC9-42DE-B086-7F9578F7A428";
layerId = "E24AA574-2B8B-431F-8774-FCC9E8D8387C";
name = "3 Oct 23 at 15:15";
shapes = (
{
closed = 1;
nodes = (
(360,-10,o),
(394,9,o),
(465,85,c),
(464,119,l),
(430,85,o),
(395,70,o),
(325,70,cs),
(220,70,o),
(142,163,o),
(142,279,cs),
(142,406,o),
(201,478,o),
(320,478,cs),
(379,478,o),
(454,453,o),
(454,352,c),
(520,463,l),
(471,506,o),
(413,530,o),
(327,530,cs),
(165,530,o),
(48,409,o),
(48,251,cs),
(48,98,o),
(144,-10,o),
(279,-10,cs)
);
},
{
closed = 1;
nodes = (
(623,-247,l),
(623,-207,l),
(602,-205,ls),
(560,-201,o),
(544,-187,o),
(544,-159,cs),
(544,530,l),
(504,530,l),
(471,471,l),
(454,488,l),
(454,83,l),
(446,83,l),
(436,67,l),
(454,67,l),
(454,-139,ls),
(454,-181,o),
(443,-198,o),
(374,-205,cs),
(353,-207,l),
(353,-247,l)
);
}
);
width = 630;
}
);
unicode = 113;
},
{
color = 6;
glyphname = r;
kernLeft = n;
kernRight = r;
lastChange = "2023-10-18 14:24:06 +0000";
layers = (
{
anchors = (
{
name = bottom;
pos = (173,0);
},
{
name = top;
pos = (222,520);
}
);
layerId = "CFBFE906-6BC9-42DE-B086-7F9578F7A428";
shapes = (
{
closed = 1;
nodes = (
(307,0,l),
(307,40,l),
(286,42,ls),
(223,48,o),
(207,62,o),
(207,108,cs),
(207,381,l),
(223,410,o),
(272,474,o),
(313,451,cs),
(352,429,ls),
(383,411,o),
(431,438,o),
(431,474,cs),
(431,508,o),
(406,528,o),
(358,528,cs),
(288,528,o),
(241,487,o),
(213,446,c),
(204,446,l),
(204,526,l),
(190,526,l),
(39,482,l),
(39,447,l),
(96,446,o),
(117,430,o),
(117,388,cs),
(117,108,ls),
(117,62,o),
(103,46,o),
(58,42,cs),
(37,40,l),
(37,0,l)
);
}
);
width = 443;
},
{
anchors = (
{
name = bottom;
pos = (157,0);
},
{
name = top;
pos = (207,520);
}
);
layerId = m004;
shapes = (
{
closed = 1;
nodes = (
(292,0,l),
(292,30,l),
(242,36,ls),
(202,41,o),
(192,52,o),
(192,94,cs),
(192,391,ls),
(192,397,o),
(262,478,o),
(293,460,cs),
(341,432,ls),
(372,414,o),
(416,441,o),
(416,474,cs),
(416,506,o),
(391,528,o),
(343,528,cs),
(280,528,o),
(231,494,o),
(198,446,c),
(189,446,l),
(189,526,l),
(175,526,l),
(24,482,l),
(24,457,l),
(87,449,o),
(102,437,o),
(102,392,cs),
(102,94,ls),
(102,53,o),
(93,42,o),
(52,35,cs),
(22,30,l),
(22,0,l)
);
}
);
width = 417;
}
);
unicode = 114;
},
{
color = 6;
glyphname = s;
kernLeft = s;
kernRight = s;
lastChange = "2023-10-18 14:24:06 +0000";
layers = (
{
anchors = (
{
name = bottom;
pos = (228,0);
},
{
name = top;
pos = (228,520);
}
);
layerId = "CFBFE906-6BC9-42DE-B086-7F9578F7A428";
shapes = (
{
closed = 1;
nodes = (
(307,-10,o),
(399,47,o),
(399,143,cs),
(399,218,o),
(360,250,o),
(286,288,cs),
(220,322,ls),
(168,349,o),
(147,376,o),
(147,408,cs),
(147,448,o),
(180,483,o),
(238,483,cs),
(311,483,o),
(337,427,o),
(345,386,c),
(384,386,l),
(384,502,l),
(349,518,o),
(307,530,o),
(253,530,cs),
(146,530,o),
(66,469,o),
(66,384,cs),
(66,323,o),
(93,286,o),
(180,240,cs),
(244,206,ls),
(288,182,o),
(318,161,o),
(318,117,cs),
(318,72,o),
(281,37,o),
(220,37,cs),
(155,37,o),
(109,79,o),
(98,158,c),
(59,158,l),
(59,33,l),
(118,5,o),
(157,-10,o),
(209,-10,cs)
);
}
);
width = 452;
},
{
anchors = (
{
name = bottom;
pos = (218,0);
},
{
name = top;
pos = (218,520);
}
);
layerId = m004;
shapes = (
{
closed = 1;
nodes = (
(297,-10,o),
(389,46,o),
(389,150,cs),
(389,217,o),
(350,250,o),
(276,288,cs),
(210,322,ls),
(156,350,o),
(135,376,o),
(135,413,cs),
(135,458,o),
(168,493,o),
(228,493,cs),
(299,493,o),
(332,443,o),
(345,386,c),
(374,386,l),
(374,502,l),
(339,518,o),
(295,530,o),
(246,530,cs),
(136,530,o),
(56,469,o),
(56,380,cs),
(56,335,o),
(76,289,o),
(162,244,cs),
(234,206,ls),
(280,182,o),
(310,161,o),
(310,114,cs),
(310,62,o),
(273,27,o),
(212,27,cs),
(148,27,o),
(93,64,o),
(78,158,c),
(49,158,l),
(49,23,l),
(85,3,o),
(148,-10,o),
(199,-10,cs)
);
}
);
width = 431;
}
);
unicode = 115;
},
{
color = 6;
glyphname = germandbls;
kernLeft = f;
lastChange = "2023-10-18 14:24:06 +0000";
layers = (
{
anchors = (
{
name = bottom;
pos = (307,0);
},
{
name = top;
pos = (307,520);
}
);
layerId = "CFBFE906-6BC9-42DE-B086-7F9578F7A428";
shapes = (
{
closed = 1;
nodes = (
(583,-10,o),
(675,46,o),
(675,150,cs),
(675,222,o),
(634,253,o),
(562,295,cs),
(506,328,ls),
(461,355,o),
(431,373,o),
(431,410,cs),
(431,447,o),
(462,476,o),
(496,503,cs),
(547,543,o),
(601,574,o),
(601,655,cs),
(601,761,o),
(503,804,o),
(404,804,cs),
(251,804,o),
(122,691,o),
(122,541,cs),
(122,520,l),
(58,520,l),
(33,477,l),
(33,452,l),
(122,452,l),
(122,88,ls),
(122,59,o),
(105,46,o),
(64,42,cs),
(43,40,l),
(43,0,l),
(303,0,l),
(303,40,l),
(292,41,ls),
(231,47,o),
(212,60,o),
(212,108,cs),
(212,588,ls),
(212,685,o),
(271,751,o),
(371,751,cs),
(454,751,o),
(512,702,o),
(512,633,cs),
(512,591,o),
(489,557,o),
(451,528,cs),
(408,496,o),
(352,452,o),
(352,385,cs),
(352,327,o),
(382,295,o),
(458,250,cs),
(520,213,ls),
(564,187,o),
(596,166,o),
(596,114,cs),
(596,72,o),
(559,37,o),
(501,37,cs),
(449,37,o),
(399,61,o),
(384,145,c),
(345,145,l),
(345,20,l),
(381,0,o),
(444,-10,o),
(490,-10,cs)
);
}
);
width = 703;
},
{
anchors = (
{
name = bottom;
pos = (408,0);
},
{
name = top;
pos = (408,520);
}
);
layerId = m004;
shapes = (
{
closed = 1;
nodes = (
(564,-10,o),
(656,46,o),
(656,150,cs),
(656,222,o),
(615,253,o),
(543,295,cs),
(487,328,ls),
(442,355,o),
(412,373,o),
(412,410,cs),
(412,447,o),
(443,477,o),
(477,503,cs),
(529,542,o),
(582,574,o),
(582,655,cs),
(582,761,o),
(484,804,o),
(385,804,cs),
(232,804,o),
(108,691,o),
(108,546,cs),
(108,520,l),
(45,520,l),
(19,475,l),
(19,460,l),
(108,460,l),
(108,94,ls),
(108,53,o),
(99,42,o),
(58,35,cs),
(28,30,l),
(28,0,l),
(285,0,l),
(285,30,l),
(254,36,ls),
(213,44,o),
(198,58,o),
(198,104,cs),
(198,593,ls),
(198,695,o),
(252,761,o),
(352,761,cs),
(435,761,o),
(493,712,o),
(493,633,cs),
(493,581,o),
(470,547,o),
(432,518,cs),
(389,486,o),
(333,452,o),
(333,385,cs),
(333,327,o),
(363,295,o),
(439,250,cs),
(501,213,ls),
(545,187,o),
(577,166,o),
(577,114,cs),
(577,62,o),
(540,27,o),
(484,27,cs),
(421,27,o),
(371,61,o),
(356,145,c),
(326,145,l),
(326,20,l),
(362,0,o),
(425,-10,o),
(471,-10,cs)
);
}
);
width = 672;
}
);
unicode = 223;
},
{
color = 6;
glyphname = t;
kernLeft = t;
kernRight = t;
lastChange = "2023-10-18 14:24:06 +0000";
layers = (
{
anchors = (
{
name = bottom;
pos = (227,0);
},
{
name = center;
pos = (217,260);
},
{
name = top;
pos = (217,520);
},
{
name = topright;
pos = (391,520);
}
);
layerId = "CFBFE906-6BC9-42DE-B086-7F9578F7A428";
shapes = (
{
closed = 1;
nodes = (
(292,-10,o),
(359,25,o),
(407,73,c),
(389,93,l),
(362,79,o),
(320,68,o),
(287,68,cs),
(231,68,o),
(187,79,o),
(187,160,cs),
(187,493,l),
(187,522,l),
(187,604,l),
(147,604,l),
(119,557,o),
(81,519,o),
(33,492,c),
(33,452,l),
(96,452,l),
(96,126,ls),
(96,30,o),
(148,-10,o),
(230,-10,cs)
);
},
{
closed = 1;
nodes = (
(371,452,l),
(396,495,l),
(396,520,l),
(143,520,l),
(143,452,l)
);
}
);
width = 413;
},
{
anchors = (
{
name = bottom;
pos = (218,0);
},
{
name = center;
pos = (208,260);
},
{
name = top;
pos = (208,520);
},
{
name = topright;
pos = (383,520);
}
);
guides = (
{
angle = 60;
pos = (336,460);
}
);
layerId = m004;
shapes = (
{
closed = 1;
nodes = (
(297,-10,o),
(355,30,o),
(397,73,c),
(379,94,l),
(349,77,o),
(318,61,o),
(273,61,cs),
(220,61,o),
(176,74,o),
(176,153,cs),
(176,493,l),
(176,522,l),
(176,604,l),
(146,604,l),
(115,556,o),
(73,518,o),
(22,490,c),
(22,460,l),
(85,460,l),
(85,126,ls),
(85,30,o),
(138,-10,o),
(221,-10,cs)
);
},
{
closed = 1;
nodes = (
(359,460,l),
(385,505,l),
(385,520,l),
(132,520,l),
(132,460,l)
);
}
);
width = 391;
}
);
unicode = 116;
},
{
color = 3;
glyphname = tcaron;
kernLeft = t;
kernRight = t;
lastChange = "2023-10-18 14:24:06 +0000";
layers = (
{
layerId = "CFBFE906-6BC9-42DE-B086-7F9578F7A428";
shapes = (
{
closed = 1;
nodes = (
(345,600,o),
(383,641,o),
(383,702,cs),
(383,742,o),
(360,780,o),
(315,780,cs),
(281,780,o),
(256,756,o),
(256,724,cs),
(256,692,o),
(280,670,o),
(310,670,cs),
(341,670,o),
(364,693,o),
(364,725,c),
(337,703,l),
(337,652,o),
(315,626,o),
(257,592,c),
(277,564,l)
);
},
{
ref = t;
}
);
width = 413;
},
{
layerId = m004;
shapes = (
{
closed = 1;
nodes = (
(333,600,o),
(371,641,o),
(371,702,cs),
(371,742,o),
(348,780,o),
(303,780,cs),
(269,780,o),
(244,756,o),
(244,724,cs),
(244,692,o),
(268,670,o),
(298,670,cs),
(329,670,o),
(352,693,o),
(352,725,c),
(329,693,l),
(329,652,o),
(305,622,o),
(248,588,c),
(265,564,l)
);
},
{
ref = t;
}
);
width = 391;
}
);
unicode = 357;
},
{
color = 6;
glyphname = u;
kernLeft = u;
kernRight = u;
lastChange = "2023-10-18 14:24:06 +0000";
layers = (
{
anchors = (
{
name = bottom;
pos = (321,0);
},
{
name = ogonek;
pos = (482,0);
},
{
name = top;
pos = (311,520);
},
{
name = topright;
pos = (614,520);
}
);
layerId = "CFBFE906-6BC9-42DE-B086-7F9578F7A428";
shapes = (
{
closed = 1;
nodes = (
(327,-10,o),
(371,13,o),
(433,67,c),
(439,67,l),
(439,-2,l),
(453,-2,l),
(606,34,l),
(606,67,l),
(590,69,ls),
(536,76,o),
(526,93,o),
(526,135,cs),
(526,528,l),
(509,528,l),
(358,508,l),
(358,473,l),
(406,473,o),
(436,472,o),
(436,430,cs),
(436,111,l),
(395,80,o),
(358,65,o),
(303,65,cs),
(242,65,o),
(191,83,o),
(191,165,cs),
(191,528,l),
(174,528,l),
(28,508,l),
(28,473,l),
(71,473,o),
(101,472,o),
(101,430,cs),
(101,126,ls),
(101,40,o),
(158,-10,o),
(252,-10,cs)
);
}
);
width = 634;
},
{
anchors = (
{
name = bottom;
pos = (308,0);
},
{
name = ogonek;
pos = (465,0);
},
{
name = top;
pos = (298,520);
},
{
name = topright;
pos = (601,520);
}
);
layerId = m004;
shapes = (
{
closed = 1;
nodes = (
(308,-10,o),
(356,11,o),
(420,67,c),
(426,67,l),
(426,-2,l),
(440,-2,l),
(593,34,l),
(593,61,l),
(593,61,l),
(528,69,o),
(513,81,o),
(513,126,cs),
(513,528,l),
(496,528,l),
(345,508,l),
(345,483,l),
(407,478,o),
(423,464,o),
(423,420,cs),
(423,111,l),
(384,67,o),
(347,50,o),
(296,50,cs),
(215,50,o),
(178,83,o),
(178,156,cs),
(178,528,l),
(161,528,l),
(15,508,l),
(15,483,l),
(72,478,o),
(88,464,o),
(88,420,cs),
(88,126,ls),
(88,40,o),
(145,-10,o),
(239,-10,cs)
);
}
);
width = 608;
}
);
unicode = 117;
},
{
color = 3;
glyphname = uogonek;
kernLeft = u;
kernRight = u;
lastChange = "2023-10-18 14:24:06 +0000";
layers = (
{
anchors = (
{
name = _ogonek;
pos = (487,2);
}
);
layerId = "CFBFE906-6BC9-42DE-B086-7F9578F7A428";
shapes = (
{
closed = 1;
nodes = (
(474,-257,o),
(505,-225,o),
(524,-206,c),
(511,-190,l),
(500,-196,o),
(479,-206,o),
(448,-206,cs),
(404,-206,o),
(381,-183,o),
(381,-143,cs),
(381,-65,o),
(460,-9,o),
(512,12,c),
(443,0,l),
(388,-22,o),
(312,-83,o),
(312,-161,cs),
(312,-224,o),
(358,-257,o),
(411,-257,cs)
);
},
{
ref = u;
}
);
width = 634;
},
{
anchors = (
{
name = _ogonek;
pos = (465,0);
}
);
layerId = m004;
shapes = (
{
closed = 1;
nodes = (
(456,-257,o),
(487,-225,o),
(506,-206,c),
(496,-194,l),
(485,-200,o),
(461,-211,o),
(430,-211,cs),
(386,-211,o),
(363,-188,o),
(363,-143,cs),
(363,-65,o),
(442,-9,o),
(489,10,c),
(430,0,l),
(375,-22,o),
(294,-83,o),
(294,-161,cs),
(294,-224,o),
(340,-257,o),
(393,-257,cs)
);
},
{
ref = u;
}
);
width = 608;
}
);
unicode = 371;
},
{
color = 6;
glyphname = v;
kernLeft = v;
kernRight = v;
lastChange = "2023-10-18 14:24:06 +0000";
layers = (
{
anchors = (
{
name = bottom;
pos = (296,0);
},
{
name = top;
pos = (296,520);
}
);
layerId = "CFBFE906-6BC9-42DE-B086-7F9578F7A428";
shapes = (
{
closed = 1;
nodes = (
(314,-8,l),
(493,412,ls),
(510,452,o),
(531,472,o),
(563,477,cs),
(584,480,l),
(584,520,l),
(374,520,l),
(374,480,l),
(395,478,ls),
(444,473,o),
(452,452,o),
(436,412,cs),
(292,50,l),
(324,50,l),
(189,412,ls),
(174,452,o),
(187,475,o),
(228,478,cs),
(253,480,l),
(253,520,l),
(7,520,l),
(7,480,l),
(24,478,ls),
(64,474,o),
(81,452,o),
(97,412,cs),
(264,-8,l)
);
}
);
width = 586;
},
{
anchors = (
{
name = bottom;
pos = (288,0);
},
{
name = top;
pos = (288,520);
}
);
layerId = m004;
shapes = (
{
closed = 1;
nodes = (
(306,-8,l),
(478,412,ls),
(499,463,o),
(519,482,o),
(576,490,c),
(576,490,l),
(576,520,l),
(366,520,l),
(366,490,l),
(387,488,ls),
(435,483,o),
(448,461,o),
(429,412,cs),
(291,50,l),
(317,50,l),
(181,412,ls),
(166,453,o),
(182,484,o),
(222,488,cs),
(244,490,l),
(244,520,l),
(-1,520,l),
(-1,490,l),
(19,488,ls),
(50,485,o),
(67,467,o),
(89,412,cs),
(256,-8,l)
);
}
);
width = 566;
}
);
unicode = 118;
},
{
color = 6;
glyphname = w;
kernLeft = w;
kernRight = w;
lastChange = "2023-10-18 14:24:06 +0000";
layers = (
{
anchors = (
{
name = bottom;
pos = (419,0);
},
{
name = top;
pos = (419,520);
}
);
layerId = "CFBFE906-6BC9-42DE-B086-7F9578F7A428";
shapes = (
{
closed = 1;
nodes = (
(306,-8,l),
(435,373,l),
(412,369,l),
(525,-8,l),
(596,-8,l),
(740,412,ls),
(754,452,o),
(778,472,o),
(810,477,cs),
(831,480,l),
(831,520,l),
(621,520,l),
(621,480,l),
(642,478,ls),
(691,473,o),
(696,453,o),
(683,412,cs),
(570,49,l),
(587,49,l),
(481,412,ls),
(469,453,o),
(481,476,o),
(522,478,cs),
(555,480,l),
(555,520,l),
(317,520,l),
(317,480,l),
(333,479,ls),
(380,476,o),
(392,454,o),
(414,360,c),
(411,453,l),
(281,49,l),
(300,49,l),
(185,412,ls),
(172,452,o),
(185,475,o),
(226,478,cs),
(251,480,l),
(251,520,l),
(7,520,l),
(7,480,l),
(24,478,ls),
(64,473,o),
(81,452,o),
(95,412,cs),
(238,-8,l)
);
}
);
width = 835;
},
{
anchors = (
{
name = bottom;
pos = (412,0);
},
{
name = top;
pos = (412,520);
}
);
layerId = m004;
shapes = (
{
closed = 1;
nodes = (
(289,-8,l),
(426,375,l),
(403,374,l),
(520,-8,l),
(579,-8,l),
(727,412,ls),
(745,464,o),
(768,482,o),
(824,490,c),
(824,490,l),
(824,520,l),
(614,520,l),
(614,490,l),
(635,488,ls),
(683,483,o),
(694,463,o),
(678,412,cs),
(562,49,l),
(582,49,l),
(472,420,ls),
(460,460,o),
(478,484,o),
(523,488,cs),
(546,490,l),
(546,520,l),
(311,520,l),
(311,490,l),
(327,489,ls),
(370,486,o),
(384,453,o),
(408,358,c),
(404,444,l),
(274,49,l),
(293,49,l),
(178,412,ls),
(165,454,o),
(182,484,o),
(221,488,cs),
(243,490,l),
(243,520,l),
(0,520,l),
(0,490,l),
(20,488,ls),
(52,485,o),
(70,465,o),
(88,412,cs),
(231,-8,l)
);
}
);
width = 815;
}
);
unicode = 119;
},
{
color = 6;
glyphname = x;
lastChange = "2023-10-18 14:24:06 +0000";
layers = (
{
anchors = (
{
name = bottom;
pos = (297,0);
},
{
name = top;
pos = (297,520);
}
);
layerId = "CFBFE906-6BC9-42DE-B086-7F9578F7A428";
shapes = (
{
closed = 1;
nodes = (
(576,0,l),
(576,40,l),
(559,42,ls),
(527,46,o),
(504,74,o),
(477,108,cs),
(237,412,ls),
(205,452,o),
(227,474,o),
(256,477,cs),
(281,480,l),
(281,520,l),
(31,520,l),
(31,480,l),
(48,479,ls),
(90,477,o),
(113,446,o),
(140,412,cs),
(380,108,ls),
(412,68,o),
(390,45,o),
(351,42,cs),
(326,40,l),
(326,0,l)
);
},
{
closed = 1;
nodes = (
(237,0,l),
(237,40,l),
(206,43,ls),
(167,47,o),
(160,73,o),
(189,108,cs),
(297,241,l),
(262,275,l),
(129,108,ls),
(101,73,o),
(77,50,o),
(35,43,cs),
(17,40,l),
(17,0,l)
);
},
{
closed = 1;
nodes = (
(450,412,ls),
(477,448,o),
(501,473,o),
(543,477,cs),
(571,480,l),
(571,520,l),
(351,520,l),
(351,480,l),
(382,477,ls),
(421,473,o),
(417,448,o),
(390,412,cs),
(297,287,l),
(332,253,l)
);
}
);
width = 597;
},
{
anchors = (
{
name = bottom;
pos = (282,0);
},
{
name = top;
pos = (282,520);
}
);
layerId = m004;
shapes = (
{
closed = 1;
nodes = (
(561,0,l),
(561,30,l),
(561,30,l),
(512,36,o),
(489,67,o),
(457,108,cs),
(219,417,ls),
(194,449,o),
(205,483,o),
(241,487,cs),
(266,490,l),
(266,520,l),
(16,520,l),
(16,490,l),
(16,490,l),
(60,488,o),
(74,478,o),
(125,412,cs),
(360,108,ls),
(392,67,o),
(382,36,o),
(336,32,cs),
(311,30,l),
(311,0,l)
);
},
{
closed = 1;
nodes = (
(222,0,l),
(222,30,l),
(191,33,ls),
(145,37,o),
(136,68,o),
(169,108,cs),
(276,241,l),
(252,275,l),
(119,108,ls),
(76,54,o),
(56,39,o),
(2,30,c),
(2,30,l),
(2,0,l)
);
},
{
closed = 1;
nodes = (
(430,412,ls),
(470,465,o),
(499,484,o),
(556,490,c),
(556,490,l),
(556,520,l),
(336,520,l),
(336,490,l),
(364,487,ls),
(403,483,o),
(410,453,o),
(380,412,cs),
(288,287,l),
(312,253,l)
);
}
);
width = 567;
}
);
unicode = 120;
},
{
color = 6;
glyphname = y;
kernLeft = y;
kernRight = y;
lastChange = "2023-10-18 14:24:06 +0000";
layers = (
{
anchors = (
{
name = bottom;
pos = (287,0);
},
{
name = top;
pos = (287,520);
}
);
layerId = "CFBFE906-6BC9-42DE-B086-7F9578F7A428";
shapes = (
{
closed = 1;
nodes = (
(195,-247,l),
(475,412,ls),
(492,452,o),
(513,472,o),
(545,477,cs),
(566,480,l),
(566,520,l),
(346,520,l),
(346,480,l),
(367,478,ls),
(426,472,o),
(434,452,o),
(418,412,cs),
(288,86,l),
(317,87,l),
(179,412,ls),
(162,452,o),
(179,474,o),
(228,478,cs),
(253,480,l),
(253,520,l),
(7,520,l),
(7,480,l),
(24,477,ls),
(56,471,o),
(68,452,o),
(86,412,cs),
(260,23,l),
(92,-222,l),
(92,-247,l)
);
}
);
width = 569;
},
{
anchors = (
{
name = bottom;
pos = (276,0);
},
{
name = top;
pos = (276,520);
}
);
guides = (
{
angle = 68.9875;
pos = (323,136);
}
);
layerId = m004;
shapes = (
{
closed = 1;
nodes = (
(184,-247,l),
(456,395,ls),
(486,466,o),
(501,482,o),
(535,487,cs),
(556,490,l),
(556,520,l),
(348,520,l),
(348,490,l),
(369,488,ls),
(416,484,o),
(433,456,o),
(407,391,cs),
(286,86,l),
(315,87,l),
(177,412,ls),
(157,458,o),
(171,484,o),
(218,488,cs),
(243,490,l),
(243,520,l),
(-5,520,l),
(-5,490,l),
(12,487,ls),
(40,482,o),
(63,458,o),
(84,412,cs),
(258,23,l),
(81,-232,l),
(81,-247,l)
);
}
);
width = 550;
}
);
unicode = 121;
},
{
color = 6;
glyphname = z;
kernLeft = z;
kernRight = z;
lastChange = "2023-10-18 14:24:06 +0000";
layers = (
{
anchors = (
{
name = bottom;
pos = (262,0);
},
{
name = center;
pos = (262,260);
},
{
name = top;
pos = (262,520);
}
);
layerId = "CFBFE906-6BC9-42DE-B086-7F9578F7A428";
shapes = (
{
closed = 1;
nodes = (
(477,177,l),
(436,177,l),
(422,83,o),
(390,53,o),
(301,51,cs),
(123,48,l),
(138,14,l),
(462,494,l),
(462,520,l),
(202,520,ls),
(153,520,o),
(116,523,o),
(68,526,c),
(51,359,l),
(92,359,l),
(99,433,o),
(135,467,o),
(209,469,cs),
(391,474,l),
(379,517,l),
(47,26,l),
(47,0,l),
(327,0,ls),
(354,0,o),
(406,-2,o),
(461,-6,c)
);
}
);
width = 523;
},
{
anchors = (
{
name = bottom;
pos = (250,0);
},
{
name = center;
pos = (250,260);
},
{
name = top;
pos = (250,520);
}
);
layerId = m004;
shapes = (
{
closed = 1;
nodes = (
(465,177,l),
(435,177,l),
(415,73,o),
(378,41,o),
(289,39,cs),
(111,36,l),
(126,14,l),
(450,494,l),
(450,520,l),
(190,520,ls),
(141,520,o),
(104,523,o),
(56,526,c),
(39,359,l),
(69,359,l),
(83,443,o),
(123,479,o),
(197,481,cs),
(379,486,l),
(366,517,l),
(35,26,l),
(35,0,l),
(315,0,ls),
(342,0,o),
(394,-2,o),
(449,-6,c)
);
}
);
width = 498;
}
);
unicode = 122;
},
{
color = 6;
glyphname = f_b;
kernLeft = f;
kernRight = b;
lastChange = "2023-10-18 14:24:06 +0000";
layers = (
{
anchors = (
{
name = bottom;
pos = (737,0);
},
{
name = caret_1;
pos = (379,0);
},
{
name = top;
pos = (737,800);
}
);
layerId = "CFBFE906-6BC9-42DE-B086-7F9578F7A428";
shapes = (
{
closed = 1;
nodes = (
(499,-10,l),
(520,28,l),
(559,3,o),
(604,-10,o),
(676,-10,cs),
(828,-10,o),
(945,106,o),
(945,269,cs),
(945,422,o),
(859,530,o),
(724,530,cs),
(650,530,o),
(615,514,o),
(555,453,c),
(549,453,l),
(549,800,l),
(535,800,l),
(381,756,l),
(459,732,l),
(459,-10,l)
);
},
{
closed = 1;
nodes = (
(313,0,l),
(313,40,l),
(292,41,ls),
(231,44,o),
(212,60,o),
(212,108,cs),
(212,452,l),
(357,452,l),
(382,495,l),
(382,520,l),
(212,520,l),
(212,563,ls),
(212,680,o),
(296,747,o),
(356,747,cs),
(364,747,o),
(372,745,o),
(379,742,cs),
(461,707,ls),
(477,700,o),
(511,721,o),
(511,749,cs),
(511,782,o),
(461,804,o),
(409,804,cs),
(266,804,o),
(122,681,o),
(122,526,cs),
(122,520,l),
(58,520,l),
(33,477,l),
(33,452,l),
(122,452,l),
(122,88,ls),
(122,59,o),
(105,46,o),
(64,42,cs),
(43,40,l),
(43,0,l)
);
},
{
closed = 1;
nodes = (
(614,42,o),
(549,67,o),
(549,168,cs),
(549,410,l),
(580,438,o),
(615,450,o),
(678,450,cs),
(783,450,o),
(861,357,o),
(861,241,cs),
(861,109,o),
(792,42,o),
(683,42,cs)
);
}
);
width = 993;
},
{
anchors = (
{
name = bottom;
pos = (733,0);
},
{
name = caret_1;
pos = (379,0);
},
{
name = top;
pos = (733,800);
}
);
layerId = m004;
shapes = (
{
closed = 1;
nodes = (
(461,-10,l),
(491,38,l),
(534,6,o),
(590,-10,o),
(648,-10,cs),
(807,-10,o),
(927,108,o),
(927,275,cs),
(927,426,o),
(832,530,o),
(694,530,cs),
(630,530,o),
(580,507,o),
(527,453,c),
(521,453,l),
(521,800,l),
(507,800,l),
(353,756,l),
(431,766,l),
(431,-10,l)
);
},
{
closed = 1;
nodes = (
(298,0,l),
(298,30,l),
(253,36,ls),
(212,41,o),
(198,58,o),
(198,104,cs),
(198,460,l),
(342,460,l),
(368,505,l),
(368,520,l),
(198,520,l),
(198,563,ls),
(198,680,o),
(282,757,o),
(332,757,cs),
(340,757,o),
(348,755,o),
(355,752,cs),
(439,713,ls),
(459,704,o),
(487,726,o),
(487,749,cs),
(487,782,o),
(437,804,o),
(385,804,cs),
(252,804,o),
(108,681,o),
(108,526,cs),
(108,520,l),
(45,520,l),
(19,475,l),
(19,460,l),
(108,460,l),
(108,94,ls),
(108,53,o),
(99,42,o),
(58,35,cs),
(28,30,l),
(28,0,l)
);
},
{
closed = 1;
nodes = (
(569,28,o),
(521,87,o),
(521,183,cs),
(521,410,l),
(558,447,o),
(605,465,o),
(654,465,cs),
(766,465,o),
(833,373,o),
(833,236,cs),
(833,104,o),
(770,28,o),
(663,28,cs)
);
}
);
width = 963;
},
{
anchors = (
{
name = bottom;
pos = (737,0);
},
{
name = caret_1;
pos = (379,0);
},
{
name = top;
pos = (737,800);
}
);
associatedMasterId = "CFBFE906-6BC9-42DE-B086-7F9578F7A428";
layerId = "488B7FA4-4941-418A-997F-294F057CA906";
name = "3 Oct 23 at 15:17";
shapes = (
{
closed = 1;
nodes = (
(313,0,l),
(313,40,l),
(292,41,ls),
(231,44,o),
(212,60,o),
(212,108,cs),
(212,452,l),
(357,452,l),
(382,495,l),
(382,520,l),
(212,520,l),
(212,563,ls),
(212,680,o),
(296,747,o),
(356,747,cs),
(364,747,o),
(372,745,o),
(379,742,cs),
(461,707,ls),
(477,700,o),
(511,721,o),
(511,749,cs),
(511,782,o),
(461,804,o),
(409,804,cs),
(266,804,o),
(122,681,o),
(122,526,cs),
(122,520,l),
(58,520,l),
(33,477,l),
(33,452,l),
(122,452,l),
(122,88,ls),
(122,59,o),
(105,46,o),
(64,42,cs),
(43,40,l),
(43,0,l)
);
},
{
closed = 1;
nodes = (
(828,-10,o),
(945,106,o),
(945,269,cs),
(945,422,o),
(859,530,o),
(724,530,cs),
(643,530,o),
(609,511,o),
(538,435,c),
(539,401,l),
(573,435,o),
(608,450,o),
(678,450,cs),
(783,450,o),
(861,357,o),
(861,241,cs),
(861,109,o),
(792,42,o),
(683,42,cs),
(614,42,o),
(549,67,o),
(549,168,c),
(483,57,l),
(532,14,o),
(580,-10,o),
(676,-10,cs)
);
},
{
closed = 1;
nodes = (
(499,-10,l),
(532,49,l),
(549,32,l),
(549,437,l),
(557,437,l),
(557,453,l),
(549,453,l),
(549,800,l),
(535,800,l),
(381,756,l),
(459,732,l),
(459,-10,l)
);
}
);
width = 993;
}
);
metricLeft = f;
metricRight = b;
},
{
color = 6;
glyphname = f_f;
kernLeft = f;
kernRight = f;
lastChange = "2023-10-18 14:24:06 +0000";
layers = (
{
anchors = (
{
name = caret_1;
pos = (329,0);
}
);
layerId = "CFBFE906-6BC9-42DE-B086-7F9578F7A428";
shapes = (
{
closed = 1;
nodes = (
(623,0,l),
(623,40,l),
(602,41,ls),
(541,44,o),
(522,60,o),
(522,108,cs),
(522,452,l),
(667,452,l),
(692,495,l),
(692,520,l),
(522,520,l),
(522,563,ls),
(522,680,o),
(596,747,o),
(646,747,cs),
(654,747,o),
(662,745,o),
(669,742,cs),
(741,711,ls),
(767,700,o),
(801,721,o),
(801,749,cs),
(801,782,o),
(751,804,o),
(699,804,cs),
(566,804,o),
(432,681,o),
(432,526,cs),
(432,520,l),
(382,520,l),
(343,477,l),
(343,452,l),
(432,452,l),
(432,88,ls),
(432,59,o),
(415,46,o),
(374,42,cs),
(353,40,l),
(353,0,l)
);
},
{
closed = 1;
nodes = (
(303,0,l),
(303,40,l),
(291,41,ls),
(230,46,o),
(212,60,o),
(212,108,cs),
(212,452,l),
(373,452,l),
(412,495,l),
(412,520,l),
(212,520,l),
(212,553,ls),
(212,670,o),
(303,722,o),
(363,722,cs),
(371,722,o),
(379,720,o),
(386,717,cs),
(496,670,ls),
(522,659,o),
(537,687,o),
(537,715,cs),
(537,746,o),
(461,774,o),
(409,774,cs),
(266,774,o),
(122,671,o),
(122,516,c),
(123,520,l),
(58,520,l),
(33,477,l),
(33,452,l),
(122,452,l),
(122,88,ls),
(122,59,o),
(105,46,o),
(64,42,cs),
(43,40,l),
(43,0,l)
);
}
);
width = 706;
},
{
anchors = (
{
name = caret_1;
pos = (296,0);
}
);
layerId = m004;
shapes = (
{
closed = 1;
nodes = (
(288,0,l),
(288,30,l),
(253,36,ls),
(212,41,o),
(198,58,o),
(198,104,cs),
(198,460,l),
(328,460,l),
(368,505,l),
(368,520,l),
(198,520,l),
(198,553,ls),
(198,660,o),
(281,729,o),
(331,729,cs),
(339,729,o),
(347,727,o),
(354,724,cs),
(452,678,ls),
(479,665,o),
(503,683,o),
(503,716,cs),
(503,746,o),
(427,774,o),
(375,774,cs),
(242,774,o),
(108,661,o),
(108,516,c),
(108,520,l),
(45,520,l),
(19,475,l),
(19,460,l),
(108,460,l),
(108,94,ls),
(108,53,o),
(99,42,o),
(58,35,cs),
(28,30,l),
(28,0,l)
);
},
{
closed = 1;
nodes = (
(578,0,l),
(578,30,l),
(533,36,ls),
(492,41,o),
(478,58,o),
(478,104,cs),
(478,460,l),
(618,460,l),
(644,505,l),
(644,520,l),
(478,520,l),
(478,573,ls),
(478,680,o),
(552,757,o),
(602,757,cs),
(610,757,o),
(618,755,o),
(625,752,cs),
(702,716,ls),
(729,703,o),
(757,726,o),
(757,749,cs),
(757,782,o),
(707,804,o),
(655,804,cs),
(522,804,o),
(388,681,o),
(388,536,cs),
(388,520,l),
(339,520,l),
(299,475,l),
(299,460,l),
(388,460,l),
(388,94,ls),
(388,53,o),
(379,42,o),
(338,35,cs),
(308,30,l),
(308,0,l)
);
}
);
width = 647;
}
);
metricLeft = f;
metricRight = f;
},
{
color = 6;
glyphname = f_f_i;
kernLeft = f;
kernRight = i;
lastChange = "2023-10-18 14:24:06 +0000";
layers = (
{
anchors = (
{
name = caret_1;
pos = (319,0);
},
{
name = caret_2;
pos = (642,0);
}
);
layerId = "CFBFE906-6BC9-42DE-B086-7F9578F7A428";
shapes = (
{
closed = 1;
nodes = (
(303,0,l),
(303,40,l),
(291,41,ls),
(230,46,o),
(212,60,o),
(212,108,cs),
(212,452,l),
(373,452,l),
(412,495,l),
(412,520,l),
(212,520,l),
(212,553,ls),
(212,670,o),
(303,722,o),
(363,722,cs),
(371,722,o),
(379,720,o),
(386,717,cs),
(496,670,ls),
(522,659,o),
(537,687,o),
(537,715,cs),
(537,746,o),
(461,774,o),
(409,774,cs),
(266,774,o),
(122,671,o),
(122,516,c),
(123,520,l),
(58,520,l),
(33,477,l),
(33,452,l),
(122,452,l),
(122,88,ls),
(122,59,o),
(105,46,o),
(64,42,cs),
(43,40,l),
(43,0,l)
);
},
{
closed = 1;
nodes = (
(613,0,l),
(613,40,l),
(592,41,ls),
(531,44,o),
(512,60,o),
(512,108,cs),
(512,452,l),
(793,452,l),
(822,495,l),
(822,520,l),
(512,520,l),
(512,563,ls),
(512,680,o),
(586,747,o),
(666,747,cs),
(674,747,o),
(682,745,o),
(689,742,cs),
(771,701,ls),
(796,689,o),
(831,711,o),
(831,739,cs),
(831,772,o),
(781,804,o),
(719,804,cs),
(556,804,o),
(422,681,o),
(422,526,cs),
(422,520,l),
(358,520,l),
(333,477,l),
(333,452,l),
(422,452,l),
(422,88,ls),
(422,59,o),
(405,46,o),
(364,42,cs),
(343,40,l),
(343,0,l)
);
},
{
closed = 1;
nodes = (
(911,0,l),
(911,40,l),
(890,42,ls),
(841,47,o),
(831,66,o),
(831,108,cs),
(831,520,l),
(817,520,l),
(663,482,l),
(741,488,l),
(741,108,ls),
(741,66,o),
(731,47,o),
(682,42,cs),
(661,40,l),
(661,0,l)
);
}
);
width = 930;
},
{
anchors = (
{
name = caret_1;
pos = (299,0);
},
{
name = caret_2;
pos = (599,0);
}
);
layerId = m004;
shapes = (
{
closed = 1;
nodes = (
(288,0,l),
(288,30,l),
(253,36,ls),
(212,41,o),
(198,58,o),
(198,104,cs),
(198,460,l),
(328,460,l),
(368,505,l),
(368,520,l),
(198,520,l),
(198,553,ls),
(198,660,o),
(281,729,o),
(331,729,cs),
(339,729,o),
(347,727,o),
(354,724,cs),
(452,678,ls),
(479,665,o),
(503,683,o),
(503,716,cs),
(503,746,o),
(427,774,o),
(375,774,cs),
(242,774,o),
(108,661,o),
(108,516,c),
(108,520,l),
(45,520,l),
(19,475,l),
(19,460,l),
(108,460,l),
(108,94,ls),
(108,53,o),
(99,42,o),
(58,35,cs),
(28,30,l),
(28,0,l)
);
},
{
closed = 1;
nodes = (
(578,0,l),
(578,30,l),
(533,36,ls),
(492,41,o),
(478,58,o),
(478,104,cs),
(478,460,l),
(738,460,l),
(778,505,l),
(778,520,l),
(478,520,l),
(478,573,ls),
(478,680,o),
(552,757,o),
(612,757,cs),
(620,757,o),
(628,755,o),
(635,752,cs),
(732,706,ls),
(759,693,o),
(787,716,o),
(787,739,cs),
(787,772,o),
(737,804,o),
(665,804,cs),
(523,804,o),
(388,681,o),
(388,536,cs),
(388,520,l),
(339,520,l),
(299,475,l),
(299,460,l),
(388,460,l),
(388,94,ls),
(388,53,o),
(379,42,o),
(338,35,cs),
(308,30,l),
(308,0,l)
);
},
{
closed = 1;
nodes = (
(867,0,l),
(867,30,l),
(837,35,ls),
(797,42,o),
(787,52,o),
(787,94,cs),
(787,520,l),
(773,520,l),
(619,467,l),
(697,467,l),
(697,94,ls),
(697,52,o),
(687,42,o),
(647,35,cs),
(617,30,l),
(617,0,l)
);
}
);
width = 882;
}
);
metricLeft = f;
},
{
color = 6;
glyphname = f_h;
kernRight = n;
lastChange = "2023-10-18 14:24:06 +0000";
layers = (
{
anchors = (
{
name = bottom_1;
pos = (215,0);
},
{
name = bottom_2;
pos = (718,0);
},
{
name = caret_1;
pos = (349,0);
},
{
name = center_2;
pos = (718,400);
},
{
name = top_1;
pos = (215,800);
},
{
name = top_2;
pos = (549,742);
}
);
layerId = "CFBFE906-6BC9-42DE-B086-7F9578F7A428";
shapes = (
{
closed = 1;
nodes = (
(629,0,l),
(629,40,l),
(608,42,ls),
(559,47,o),
(549,66,o),
(549,108,cs),
(549,409,l),
(590,440,o),
(627,455,o),
(682,455,cs),
(748,455,o),
(799,437,o),
(799,354,cs),
(799,108,ls),
(799,66,o),
(789,47,o),
(740,42,cs),
(719,40,l),
(719,0,l),
(969,0,l),
(969,40,l),
(948,42,ls),
(899,47,o),
(889,66,o),
(889,108,cs),
(889,394,ls),
(889,480,o),
(832,530,o),
(737,530,cs),
(661,530,o),
(614,508,o),
(555,456,c),
(549,456,l),
(549,800,l),
(535,800,l),
(381,756,l),
(459,722,l),
(459,108,ls),
(459,66,o),
(449,47,o),
(400,42,cs),
(379,40,l),
(379,0,l)
);
},
{
closed = 1;
nodes = (
(313,0,l),
(313,40,l),
(292,41,ls),
(231,44,o),
(212,60,o),
(212,108,cs),
(212,452,l),
(357,452,l),
(382,495,l),
(382,520,l),
(212,520,l),
(212,563,ls),
(212,680,o),
(296,747,o),
(356,747,cs),
(364,747,o),
(372,745,o),
(379,742,cs),
(461,707,ls),
(487,696,o),
(511,721,o),
(511,749,cs),
(511,782,o),
(461,804,o),
(409,804,cs),
(266,804,o),
(122,681,o),
(122,526,cs),
(122,520,l),
(58,520,l),
(33,477,l),
(33,452,l),
(122,452,l),
(122,88,ls),
(122,59,o),
(105,46,o),
(64,42,cs),
(43,40,l),
(43,0,l)
);
}
);
width = 995;
},
{
anchors = (
{
name = bottom_1;
pos = (201,0);
},
{
name = bottom_2;
pos = (683,0);
},
{
name = caret_1;
pos = (319,0);
},
{
name = center_2;
pos = (683,400);
},
{
name = top_1;
pos = (201,800);
},
{
name = top_2;
pos = (514,742);
}
);
layerId = m004;
shapes = (
{
closed = 1;
nodes = (
(591,0,l),
(591,30,l),
(561,35,ls),
(521,42,o),
(511,52,o),
(511,94,cs),
(511,414,l),
(554,452,o),
(592,470,o),
(644,470,cs),
(723,470,o),
(761,437,o),
(761,364,cs),
(761,94,ls),
(761,52,o),
(751,42,o),
(711,35,cs),
(681,30,l),
(681,0,l),
(931,0,l),
(931,30,l),
(901,35,ls),
(861,42,o),
(851,52,o),
(851,94,cs),
(851,394,ls),
(851,480,o),
(794,530,o),
(699,530,cs),
(622,530,o),
(579,509,o),
(517,456,c),
(511,456,l),
(511,800,l),
(497,800,l),
(343,756,l),
(421,766,l),
(421,94,ls),
(421,52,o),
(411,42,o),
(371,35,cs),
(341,30,l),
(341,0,l)
);
},
{
closed = 1;
nodes = (
(298,0,l),
(298,30,l),
(253,36,ls),
(212,41,o),
(198,58,o),
(198,104,cs),
(198,460,l),
(342,460,l),
(368,505,l),
(368,520,l),
(198,520,l),
(198,573,ls),
(198,680,o),
(272,757,o),
(322,757,cs),
(330,757,o),
(338,755,o),
(345,752,cs),
(429,713,ls),
(449,704,o),
(477,726,o),
(477,749,cs),
(477,782,o),
(427,804,o),
(375,804,cs),
(242,804,o),
(108,681,o),
(108,536,cs),
(108,520,l),
(45,520,l),
(19,475,l),
(19,460,l),
(108,460,l),
(108,94,ls),
(108,53,o),
(99,42,o),
(58,35,cs),
(28,30,l),
(28,0,l)
);
}
);
width = 943;
}
);
metricLeft = f;
metricRight = h;
},
{
color = 6;
glyphname = f_i;
kernLeft = f;
kernRight = i;
lastChange = "2023-10-18 14:24:06 +0000";
layers = (
{
anchors = (
{
name = bottom;
pos = (572,0);
},
{
name = caret_1;
pos = (329,0);
},
{
name = ogonek;
pos = (643,0);
},
{
name = top;
pos = (566,700);
}
);
layerId = "CFBFE906-6BC9-42DE-B086-7F9578F7A428";
shapes = (
{
closed = 1;
nodes = (
(313,0,l),
(313,40,l),
(292,41,ls),
(231,44,o),
(212,60,o),
(212,108,cs),
(212,452,l),
(493,452,l),
(522,495,l),
(522,520,l),
(212,520,l),
(212,563,ls),
(212,680,o),
(286,747,o),
(366,747,cs),
(374,747,o),
(382,745,o),
(389,742,cs),
(471,701,ls),
(496,689,o),
(531,711,o),
(531,739,cs),
(531,772,o),
(481,804,o),
(419,804,cs),
(256,804,o),
(122,681,o),
(122,526,cs),
(122,520,l),
(58,520,l),
(33,477,l),
(33,452,l),
(122,452,l),
(122,88,ls),
(122,59,o),
(105,46,o),
(64,42,cs),
(43,40,l),
(43,0,l)
);
},
{
closed = 1;
nodes = (
(611,0,l),
(611,40,l),
(590,42,ls),
(541,47,o),
(531,66,o),
(531,108,cs),
(531,520,l),
(517,520,l),
(363,482,l),
(441,488,l),
(441,108,ls),
(441,66,o),
(431,47,o),
(382,42,cs),
(361,40,l),
(361,0,l)
);
}
);
width = 640;
},
{
anchors = (
{
name = bottom;
pos = (558,0);
},
{
name = caret_1;
pos = (319,0);
},
{
name = ogonek;
pos = (627,0);
},
{
name = top;
pos = (552,700);
}
);
layerId = m004;
shapes = (
{
closed = 1;
nodes = (
(298,0,l),
(298,30,l),
(253,36,ls),
(212,41,o),
(198,58,o),
(198,104,cs),
(198,460,l),
(458,460,l),
(498,505,l),
(498,520,l),
(198,520,l),
(198,573,ls),
(198,680,o),
(272,757,o),
(332,757,cs),
(340,757,o),
(348,755,o),
(355,752,cs),
(452,706,ls),
(479,693,o),
(507,716,o),
(507,739,cs),
(507,772,o),
(457,804,o),
(385,804,cs),
(243,804,o),
(108,681,o),
(108,536,cs),
(108,520,l),
(45,520,l),
(19,475,l),
(19,460,l),
(108,460,l),
(108,94,ls),
(108,53,o),
(99,42,o),
(58,35,cs),
(28,30,l),
(28,0,l)
);
},
{
closed = 1;
nodes = (
(587,0,l),
(587,30,l),
(557,35,ls),
(517,42,o),
(507,52,o),
(507,94,cs),
(507,520,l),
(493,520,l),
(339,467,l),
(417,467,l),
(417,94,ls),
(417,52,o),
(407,42,o),
(367,35,cs),
(337,30,l),
(337,0,l)
);
}
);
width = 602;
}
);
metricLeft = f;
},
{
color = 6;
glyphname = f_k;
kernLeft = f;
kernRight = k;
lastChange = "2023-10-18 14:24:06 +0000";
layers = (
{
anchors = (
{
name = bottom;
pos = (727,0);
},
{
name = caret_1;
pos = (339,0);
},
{
name = top;
pos = (727,800);
}
);
layerId = "CFBFE906-6BC9-42DE-B086-7F9578F7A428";
shapes = (
{
closed = 1;
nodes = (
(313,0,l),
(313,40,l),
(292,41,ls),
(231,44,o),
(212,60,o),
(212,108,cs),
(212,452,l),
(357,452,l),
(382,495,l),
(382,520,l),
(212,520,l),
(212,563,ls),
(212,680,o),
(296,747,o),
(356,747,cs),
(364,747,o),
(372,745,o),
(379,742,cs),
(461,707,ls),
(487,696,o),
(511,721,o),
(511,749,cs),
(511,782,o),
(461,804,o),
(409,804,cs),
(266,804,o),
(122,681,o),
(122,526,cs),
(122,520,l),
(58,520,l),
(33,477,l),
(33,452,l),
(122,452,l),
(122,88,ls),
(122,59,o),
(105,46,o),
(64,42,cs),
(43,40,l),
(43,0,l)
);
},
{
closed = 1;
nodes = (
(629,0,l),
(629,40,l),
(608,42,ls),
(559,47,o),
(549,66,o),
(549,108,c),
(549,800,l),
(535,800,l),
(381,756,l),
(459,732,l),
(459,108,ls),
(459,66,o),
(449,47,o),
(400,42,cs),
(379,40,l),
(379,0,l)
);
},
{
closed = 1;
nodes = (
(942,0,l),
(942,40,l),
(922,42,ls),
(891,45,o),
(865,67,o),
(832,118,cs),
(685,348,l),
(623,290,l),
(735,118,ls),
(760,80,o),
(774,44,o),
(714,41,cs),
(692,40,l),
(692,0,l)
);
},
{
closed = 1;
nodes = (
(790,415,ls),
(826,448,o),
(858,475,o),
(911,478,cs),
(942,480,l),
(942,520,l),
(690,520,l),
(690,480,l),
(713,479,ls),
(765,477,o),
(769,458,o),
(722,415,cs),
(490,199,l),
(529,176,l)
);
}
);
width = 966;
},
{
anchors = (
{
name = bottom;
pos = (713,0);
},
{
name = caret_1;
pos = (319,0);
},
{
name = top;
pos = (713,800);
}
);
layerId = m004;
shapes = (
{
closed = 1;
nodes = (
(298,0,l),
(298,30,l),
(253,36,ls),
(212,41,o),
(198,58,o),
(198,104,cs),
(198,460,l),
(342,460,l),
(368,505,l),
(368,520,l),
(198,520,l),
(198,573,ls),
(198,680,o),
(272,757,o),
(322,757,cs),
(330,757,o),
(338,755,o),
(345,752,cs),
(429,713,ls),
(449,703,o),
(477,726,o),
(477,749,cs),
(477,782,o),
(427,804,o),
(375,804,cs),
(242,804,o),
(108,681,o),
(108,536,cs),
(108,520,l),
(45,520,l),
(19,475,l),
(19,460,l),
(108,460,l),
(108,94,ls),
(108,53,o),
(99,42,o),
(58,35,cs),
(28,30,l),
(28,0,l)
);
},
{
closed = 1;
nodes = (
(591,0,l),
(591,30,l),
(561,35,ls),
(521,42,o),
(511,52,o),
(511,94,cs),
(511,800,l),
(497,800,l),
(343,756,l),
(421,766,l),
(421,94,ls),
(421,52,o),
(411,42,o),
(371,35,cs),
(341,30,l),
(341,0,l)
);
},
{
closed = 1;
nodes = (
(904,0,l),
(904,30,l),
(884,32,ls),
(853,35,o),
(826,56,o),
(794,108,cs),
(647,348,l),
(585,290,l),
(697,108,ls),
(720,70,o),
(736,34,o),
(676,31,cs),
(654,30,l),
(654,0,l)
);
},
{
closed = 1;
nodes = (
(779,441,ls),
(818,476,o),
(850,487,o),
(904,490,c),
(904,490,l),
(904,520,l),
(657,520,l),
(657,490,l),
(681,489,ls),
(733,487,o),
(739,462,o),
(693,419,cs),
(451,191,l),
(479,165,l)
);
}
);
width = 913;
}
);
metricLeft = f;
metricRight = k;
},
{
color = 6;
glyphname = f_l;
kernLeft = f;
kernRight = l;
lastChange = "2023-10-18 14:24:06 +0000";
layers = (
{
anchors = (
{
name = bottom;
pos = (577,0);
},
{
name = caret_1;
pos = (349,0);
},
{
name = center;
pos = (577,400);
},
{
name = top;
pos = (577,800);
},
{
name = topright;
pos = (707,800);
}
);
layerId = "CFBFE906-6BC9-42DE-B086-7F9578F7A428";
shapes = (
{
closed = 1;
nodes = (
(313,0,l),
(313,40,l),
(292,41,ls),
(231,44,o),
(212,60,o),
(212,108,cs),
(212,452,l),
(357,452,l),
(382,495,l),
(382,520,l),
(212,520,l),
(212,563,ls),
(212,680,o),
(296,747,o),
(356,747,cs),
(364,747,o),
(372,745,o),
(379,742,cs),
(461,707,ls),
(487,696,o),
(511,721,o),
(511,749,cs),
(511,782,o),
(461,804,o),
(409,804,cs),
(266,804,o),
(122,681,o),
(122,526,cs),
(122,520,l),
(58,520,l),
(33,477,l),
(33,452,l),
(122,452,l),
(122,88,ls),
(122,59,o),
(105,46,o),
(64,42,cs),
(43,40,l),
(43,0,l)
);
},
{
closed = 1;
nodes = (
(629,0,l),
(629,40,l),
(608,42,ls),
(559,47,o),
(549,66,o),
(549,108,cs),
(549,800,l),
(535,800,l),
(459,778,l),
(459,108,ls),
(459,66,o),
(449,47,o),
(400,42,cs),
(379,40,l),
(379,0,l)
);
}
);
width = 657;
},
{
anchors = (
{
name = bottom;
pos = (573,0);
},
{
name = caret_1;
pos = (329,0);
},
{
name = center;
pos = (573,400);
},
{
name = top;
pos = (573,800);
},
{
name = topright;
pos = (703,800);
}
);
layerId = m004;
shapes = (
{
closed = 1;
nodes = (
(298,0,l),
(298,30,l),
(253,36,ls),
(212,41,o),
(198,58,o),
(198,104,cs),
(198,460,l),
(342,460,l),
(368,505,l),
(368,520,l),
(198,520,l),
(198,563,ls),
(198,680,o),
(282,757,o),
(332,757,cs),
(340,757,o),
(348,755,o),
(355,752,cs),
(439,713,ls),
(466,700,o),
(487,726,o),
(487,749,cs),
(487,782,o),
(437,804,o),
(385,804,cs),
(252,804,o),
(108,681,o),
(108,526,cs),
(108,520,l),
(45,520,l),
(19,475,l),
(19,460,l),
(108,460,l),
(108,94,ls),
(108,53,o),
(99,42,o),
(58,35,cs),
(28,30,l),
(28,0,l)
);
},
{
closed = 1;
nodes = (
(601,0,l),
(601,30,l),
(571,35,ls),
(531,42,o),
(521,52,o),
(521,94,cs),
(521,800,l),
(507,800,l),
(431,778,l),
(431,94,ls),
(431,52,o),
(421,42,o),
(381,35,cs),
(351,30,l),
(351,0,l)
);
}
);
width = 615;
}
);
metricLeft = f;
metricRight = l;
},
{
color = 6;
glyphname = ordfeminine;
lastChange = "2023-10-18 14:24:06 +0000";
layers = (
{
layerId = "CFBFE906-6BC9-42DE-B086-7F9578F7A428";
shapes = (
{
closed = 1;
nodes = (
(187,318,o),
(221,334,o),
(257,368,c),
(261,368,l),
(265,337,o),
(282,320,o),
(309,320,cs),
(322,320,o),
(335,322,o),
(357,329,cs),
(383,337,l),
(383,358,l),
(325,362,o),
(315,370,o),
(316,405,cs),
(324,627,ls),
(326,679,o),
(280,706,o),
(223,706,cs),
(152,706,o),
(79,657,o),
(59,597,cs),
(55,585,o),
(61,580,o),
(81,580,cs),
(109,580,o),
(129,588,o),
(131,601,cs),
(137,641,o),
(165,663,o),
(207,663,cs),
(244,663,o),
(264,648,o),
(263,610,cs),
(261,556,l),
(123,507,o),
(63,457,o),
(63,394,cs),
(63,350,o),
(100,318,o),
(150,318,cs)
);
},
{
closed = 1;
nodes = (
(150,370,o),
(131,386,o),
(131,412,cs),
(131,450,o),
(174,488,o),
(260,519,c),
(256,407,l),
(227,381,o),
(203,370,o),
(179,370,cs)
);
}
);
width = 427;
},
{
layerId = m004;
shapes = (
{
closed = 1;
nodes = (
(173,318,o),
(207,334,o),
(243,368,c),
(247,368,l),
(251,337,o),
(268,320,o),
(295,320,cs),
(308,320,o),
(321,322,o),
(343,329,cs),
(369,337,l),
(369,354,l),
(311,358,o),
(301,366,o),
(302,401,cs),
(310,626,ls),
(312,683,o),
(266,706,o),
(210,706,cs),
(138,706,o),
(66,657,o),
(46,600,cs),
(42,588,o),
(48,583,o),
(68,583,cs),
(93,583,o),
(113,591,o),
(116,604,cs),
(126,651,o),
(151,673,o),
(192,673,cs),
(230,673,o),
(251,657,o),
(249,609,cs),
(247,551,l),
(109,502,o),
(49,452,o),
(49,389,cs),
(49,345,o),
(86,318,o),
(136,318,cs)
);
},
{
closed = 1;
nodes = (
(136,364,o),
(117,380,o),
(117,409,cs),
(117,450,o),
(160,491,o),
(246,522,c),
(242,401,l),
(213,375,o),
(189,364,o),
(161,364,cs)
);
}
);
width = 399;
}
);
unicode = 170;
},
{
color = 6;
glyphname = ordmasculine;
lastChange = "2023-10-18 14:24:06 +0000";
layers = (
{
layerId = "CFBFE906-6BC9-42DE-B086-7F9578F7A428";
shapes = (
{
closed = 1;
nodes = (
(360,318,o),
(438,396,o),
(438,512,cs),
(438,628,o),
(360,706,o),
(243,706,cs),
(127,706,o),
(49,628,o),
(49,512,cs),
(49,396,o),
(127,318,o),
(244,318,cs)
);
},
{
closed = 1;
nodes = (
(174,359,o),
(119,430,o),
(119,531,cs),
(119,615,o),
(162,665,o),
(231,665,cs),
(313,665,o),
(368,594,o),
(368,493,cs),
(368,409,o),
(325,359,o),
(256,359,cs)
);
}
);
width = 487;
},
{
layerId = m004;
shapes = (
{
closed = 1;
nodes = (
(347,318,o),
(425,396,o),
(425,512,cs),
(425,628,o),
(347,706,o),
(230,706,cs),
(114,706,o),
(36,628,o),
(36,512,cs),
(36,396,o),
(114,318,o),
(231,318,cs)
);
},
{
closed = 1;
nodes = (
(161,348,o),
(106,419,o),
(106,531,cs),
(106,626,o),
(149,676,o),
(218,676,cs),
(300,676,o),
(355,605,o),
(355,493,cs),
(355,398,o),
(312,348,o),
(243,348,cs)
);
}
);
width = 461;
}
);
unicode = 186;
},
{
color = 6;
glyphname = zero;
lastChange = "2023-10-18 14:24:06 +0000";
layers = (
{
layerId = "CFBFE906-6BC9-42DE-B086-7F9578F7A428";
shapes = (
{
closed = 1;
nodes = (
(455,-10,o),
(565,125,o),
(565,357,cs),
(565,579,o),
(470,710,o),
(312,710,cs),
(169,710,o),
(59,575,o),
(59,337,cs),
(59,121,o),
(154,-10,o),
(312,-10,cs)
);
},
{
closed = 1;
nodes = (
(223,44,o),
(160,158,o),
(160,337,cs),
(160,566,o),
(209,656,o),
(303,656,cs),
(398,656,o),
(465,533,o),
(465,354,cs),
(465,139,o),
(413,44,o),
(321,44,cs)
);
}
);
width = 624;
},
{
layerId = m004;
shapes = (
{
closed = 1;
nodes = (
(443,-10,o),
(553,125,o),
(553,357,cs),
(553,579,o),
(458,710,o),
(300,710,cs),
(157,710,o),
(47,575,o),
(47,337,cs),
(47,121,o),
(142,-10,o),
(300,-10,cs)
);
},
{
closed = 1;
nodes = (
(211,30,o),
(148,148,o),
(148,337,cs),
(148,576,o),
(197,670,o),
(291,670,cs),
(386,670,o),
(453,543,o),
(453,354,cs),
(453,129,o),
(401,30,o),
(309,30,cs)
);
}
);
width = 600;
}
);
unicode = 48;
},
{
color = 6;
glyphname = one;
lastChange = "2023-10-18 14:24:06 +0000";
layers = (
{
layerId = "CFBFE906-6BC9-42DE-B086-7F9578F7A428";
shapes = (
{
closed = 1;
nodes = (
(343,0,l),
(343,40,l),
(312,42,ls),
(270,46,o),
(254,60,o),
(254,88,cs),
(254,707,l),
(240,707,l),
(37,656,l),
(37,618,l),
(147,618,o),
(164,616,o),
(164,557,cs),
(164,108,ls),
(164,66,o),
(153,49,o),
(84,42,cs),
(53,40,l),
(53,0,l)
);
}
);
width = 390;
},
{
layerId = m004;
shapes = (
{
closed = 1;
nodes = (
(326,0,l),
(326,30,l),
(286,35,ls),
(246,42,o),
(237,52,o),
(237,94,cs),
(237,707,l),
(223,707,l),
(20,656,l),
(20,628,l),
(130,628,o),
(147,626,o),
(147,567,cs),
(147,104,ls),
(147,58,o),
(133,42,o),
(91,36,cs),
(36,30,l),
(36,0,l)
);
}
);
width = 357;
}
);
unicode = 49;
},
{
color = 6;
glyphname = two;
lastChange = "2023-10-18 14:24:06 +0000";
layers = (
{
layerId = "CFBFE906-6BC9-42DE-B086-7F9578F7A428";
shapes = (
{
closed = 1;
nodes = (
(472,0,l),
(472,138,l),
(431,138,l),
(425,103,o),
(411,75,o),
(349,75,cs),
(95,75,l),
(121,39,l),
(258,179,o),
(454,351,o),
(454,527,cs),
(454,670,o),
(344,710,o),
(251,710,cs),
(155,710,o),
(60,657,o),
(40,537,c),
(79,529,l),
(102,609,o),
(167,648,o),
(228,648,cs),
(311,648,o),
(360,598,o),
(360,512,cs),
(360,341,o),
(170,154,o),
(40,25,c),
(40,0,l)
);
}
);
width = 530;
},
{
layerId = m004;
shapes = (
{
closed = 1;
nodes = (
(458,0,l),
(458,127,l),
(428,127,l),
(422,98,o),
(408,70,o),
(346,70,cs),
(81,70,l),
(107,49,l),
(274,220,o),
(440,361,o),
(440,527,cs),
(440,670,o),
(330,710,o),
(237,710,cs),
(141,710,o),
(46,657,o),
(26,537,c),
(65,529,l),
(88,619,o),
(153,658,o),
(214,658,cs),
(297,658,o),
(346,608,o),
(346,514,cs),
(346,341,o),
(156,154,o),
(29,25,c),
(29,0,l)
);
}
);
width = 502;
}
);
unicode = 50;
},
{
color = 6;
glyphname = three;
lastChange = "2023-10-18 14:24:06 +0000";
layers = (
{
layerId = "CFBFE906-6BC9-42DE-B086-7F9578F7A428";
shapes = (
{
closed = 1;
nodes = (
(370,-10,o),
(469,80,o),
(469,200,cs),
(469,305,o),
(399,373,o),
(288,381,c),
(286,364,l),
(398,403,o),
(454,466,o),
(454,545,cs),
(454,644,o),
(380,710,o),
(264,710,cs),
(153,710,o),
(84,650,o),
(53,550,c),
(93,538,l),
(123,606,o),
(168,648,o),
(238,648,cs),
(313,648,o),
(360,600,o),
(360,526,cs),
(360,448,o),
(296,391,o),
(170,363,c),
(170,326,l),
(295,350,o),
(376,294,o),
(376,180,cs),
(376,93,o),
(327,42,o),
(249,42,cs),
(208,42,o),
(192,50,o),
(179,62,cs),
(125,112,ls),
(98,137,o),
(43,120,o),
(43,85,cs),
(43,51,o),
(111,-10,o),
(234,-10,cs)
);
}
);
width = 528;
},
{
layerId = m004;
shapes = (
{
closed = 1;
nodes = (
(361,-10,o),
(456,84,o),
(456,200,cs),
(456,306,o),
(385,373,o),
(275,381,c),
(273,371,l),
(387,410,o),
(441,467,o),
(441,547,cs),
(441,645,o),
(362,710,o),
(250,710,cs),
(146,710,o),
(71,656,o),
(40,550,c),
(80,538,l),
(107,614,o),
(156,657,o),
(225,657,cs),
(298,657,o),
(347,609,o),
(347,532,cs),
(347,446,o),
(282,387,o),
(157,359,c),
(157,327,l),
(280,351,o),
(363,296,o),
(363,180,cs),
(363,95,o),
(312,28,o),
(230,28,cs),
(197,28,o),
(182,42,o),
(164,59,cs),
(110,109,ls),
(83,134,o),
(30,117,o),
(30,85,cs),
(30,51,o),
(98,-10,o),
(221,-10,cs)
);
}
);
width = 503;
}
);
unicode = 51;
},
{
color = 6;
glyphname = four;
lastChange = "2023-10-18 14:24:06 +0000";
layers = (
{
layerId = "CFBFE906-6BC9-42DE-B086-7F9578F7A428";
shapes = (
{
closed = 1;
nodes = (
(509,0,l),
(509,40,l),
(488,42,ls),
(446,46,o),
(430,60,o),
(430,88,cs),
(430,227,l),
(516,227,l),
(535,270,l),
(535,295,l),
(430,295,l),
(430,710,l),
(388,710,l),
(35,256,l),
(35,227,l),
(345,227,l),
(345,108,ls),
(345,66,o),
(334,49,o),
(265,42,cs),
(244,40,l),
(244,0,l)
);
},
{
closed = 1;
nodes = (
(378,295,l),
(80,295,l),
(108,261,l),
(361,599,l),
(345,615,l),
(345,259,l)
);
}
);
width = 578;
},
{
layerId = m004;
shapes = (
{
closed = 1;
nodes = (
(496,0,l),
(496,30,l),
(466,35,ls),
(426,42,o),
(417,52,o),
(417,94,cs),
(417,232,l),
(502,232,l),
(522,280,l),
(522,295,l),
(417,295,l),
(417,710,l),
(375,710,l),
(22,255,l),
(22,232,l),
(332,232,l),
(332,104,ls),
(332,58,o),
(318,42,o),
(276,36,cs),
(231,30,l),
(231,0,l)
);
},
{
closed = 1;
nodes = (
(365,295,l),
(67,295,l),
(88,264,l),
(341,603,l),
(332,615,l),
(332,259,l)
);
}
);
width = 552;
}
);
unicode = 52;
},
{
color = 6;
glyphname = five;
lastChange = "2023-10-18 14:24:06 +0000";
layers = (
{
layerId = "CFBFE906-6BC9-42DE-B086-7F9578F7A428";
shapes = (
{
closed = 1;
nodes = (
(382,-10,o),
(481,87,o),
(481,214,cs),
(481,373,o),
(344,455,o),
(98,443,c),
(133,413,l),
(169,670,l),
(130,625,l),
(453,625,l),
(453,742,l),
(412,742,l),
(406,708,o),
(391,700,o),
(330,700,cs),
(122,700,l),
(77,366,l),
(79,364,l),
(293,367,o),
(387,314,o),
(387,191,cs),
(387,101,o),
(337,42,o),
(244,42,cs),
(203,42,o),
(187,50,o),
(174,62,cs),
(120,112,ls),
(93,137,o),
(38,120,o),
(38,85,cs),
(38,51,o),
(106,-10,o),
(229,-10,cs)
);
}
);
visible = 1;
width = 531;
},
{
layerId = m004;
shapes = (
{
closed = 1;
nodes = (
(369,-10,o),
(468,87,o),
(468,214,cs),
(468,373,o),
(331,455,o),
(85,443,c),
(114,413,l),
(147,670,l),
(118,630,l),
(441,630,l),
(441,737,l),
(411,737,l),
(405,707,o),
(389,700,o),
(329,700,cs),
(110,700,l),
(65,368,l),
(67,366,l),
(279,369,o),
(374,315,o),
(374,191,cs),
(374,95,o),
(321,28,o),
(226,28,cs),
(193,28,o),
(178,42,o),
(160,59,cs),
(106,109,ls),
(79,134,o),
(26,117,o),
(26,85,cs),
(26,51,o),
(94,-10,o),
(220,-10,cs)
);
}
);
width = 505;
}
);
unicode = 53;
},
{
color = 6;
glyphname = six;
lastChange = "2023-10-18 14:24:06 +0000";
layers = (
{
layerId = "CFBFE906-6BC9-42DE-B086-7F9578F7A428";
shapes = (
{
closed = 1;
nodes = (
(423,-10,o),
(521,85,o),
(521,218,cs),
(521,327,o),
(438,412,o),
(331,412,cs),
(264,412,o),
(214,389,o),
(164,335,c),
(157,335,l),
(170,509,o),
(299,639,o),
(485,673,c),
(481,704,l),
(221,680,o),
(56,513,o),
(56,273,cs),
(56,92,o),
(140,-10,o),
(287,-10,cs)
);
},
{
closed = 1;
nodes = (
(204,42,o),
(155,118,o),
(155,268,cs),
(155,285,l),
(193,320,o),
(231,335,o),
(283,335,cs),
(375,335,o),
(427,282,o),
(427,188,cs),
(427,102,o),
(375,42,o),
(301,42,cs)
);
}
);
width = 568;
},
{
layerId = m004;
shapes = (
{
closed = 1;
nodes = (
(411,-10,o),
(509,85,o),
(509,218,cs),
(509,327,o),
(426,412,o),
(320,412,cs),
(253,412,o),
(202,389,o),
(151,335,c),
(145,335,l),
(158,516,o),
(277,638,o),
(473,673,c),
(469,704,l),
(209,680,o),
(44,513,o),
(44,273,cs),
(44,96,o),
(130,-10,o),
(274,-10,cs)
);
},
{
closed = 1;
nodes = (
(191,28,o),
(143,108,o),
(143,268,cs),
(143,291,l),
(179,328,o),
(225,347,o),
(278,347,cs),
(364,347,o),
(415,290,o),
(415,194,cs),
(415,93,o),
(364,28,o),
(286,28,cs)
);
}
);
width = 540;
}
);
unicode = 54;
},
{
color = 6;
glyphname = seven;
lastChange = "2023-10-18 14:24:06 +0000";
layers = (
{
layerId = "CFBFE906-6BC9-42DE-B086-7F9578F7A428";
shapes = (
{
closed = 1;
nodes = (
(194,0,l),
(478,675,l),
(478,700,l),
(29,700,l),
(29,568,l),
(70,568,l),
(76,597,o),
(90,625,o),
(152,625,cs),
(449,625,l),
(433,693,l),
(103,29,l),
(103,0,l)
);
}
);
width = 498;
},
{
layerId = m004;
shapes = (
{
closed = 1;
nodes = (
(179,0,l),
(463,675,l),
(463,700,l),
(14,700,l),
(14,573,l),
(44,573,l),
(50,602,o),
(64,630,o),
(126,630,cs),
(434,630,l),
(428,693,l),
(98,25,l),
(98,0,l)
);
}
);
width = 472;
}
);
unicode = 55;
},
{
color = 6;
glyphname = eight;
lastChange = "2023-10-18 14:24:06 +0000";
layers = (
{
layerId = "CFBFE906-6BC9-42DE-B086-7F9578F7A428";
shapes = (
{
closed = 1;
nodes = (
(403,-10,o),
(500,72,o),
(500,180,cs),
(500,245,o),
(465,295,o),
(390,338,cs),
(247,419,ls),
(178,458,o),
(147,499,o),
(147,548,cs),
(147,612,o),
(199,656,o),
(274,656,cs),
(353,656,o),
(408,607,o),
(408,535,cs),
(408,478,o),
(374,431,o),
(301,388,c),
(327,363,l),
(438,406,o),
(495,464,o),
(495,545,cs),
(495,643,o),
(411,710,o),
(291,710,cs),
(162,710,o),
(67,632,o),
(67,527,cs),
(67,460,o),
(107,402,o),
(183,359,cs),
(326,278,ls),
(391,241,o),
(420,203,o),
(420,155,cs),
(420,90,o),
(365,44,o),
(287,44,cs),
(203,44,o),
(149,91,o),
(149,173,cs),
(149,236,o),
(179,289,o),
(243,327,c),
(214,352,l),
(113,312,o),
(62,250,o),
(62,168,cs),
(62,63,o),
(149,-10,o),
(276,-10,cs)
);
}
);
width = 562;
},
{
layerId = m004;
shapes = (
{
closed = 1;
nodes = (
(391,-10,o),
(488,72,o),
(488,181,cs),
(488,245,o),
(453,300,o),
(378,343,cs),
(235,424,ls),
(163,465,o),
(135,501,o),
(135,555,cs),
(135,626,o),
(185,672,o),
(262,672,cs),
(334,672,o),
(396,626,o),
(396,548,cs),
(396,475,o),
(356,428,o),
(289,388,c),
(315,373,l),
(420,414,o),
(483,469,o),
(483,550,cs),
(483,650,o),
(391,710,o),
(279,710,cs),
(151,710,o),
(55,635,o),
(55,529,cs),
(55,463,o),
(93,408,o),
(171,364,cs),
(314,283,ls),
(381,245,o),
(408,204,o),
(408,152,cs),
(408,78,o),
(354,29,o),
(275,29,cs),
(191,29,o),
(137,81,o),
(137,172,cs),
(137,243,o),
(169,300,o),
(231,337,c),
(202,352,l),
(106,318,o),
(50,246,o),
(50,164,cs),
(50,60,o),
(141,-10,o),
(264,-10,cs)
);
}
);
width = 538;
}
);
unicode = 56;
},
{
color = 6;
glyphname = nine;
lastChange = "2023-10-18 14:24:06 +0000";
layers = (
{
layerId = "CFBFE906-6BC9-42DE-B086-7F9578F7A428";
shapes = (
{
closed = 1;
nodes = (
(376,11,o),
(512,186,o),
(512,427,cs),
(512,608,o),
(428,710,o),
(277,710,cs),
(128,710,o),
(47,602,o),
(47,488,cs),
(47,350,o),
(153,288,o),
(237,288,cs),
(327,288,o),
(374,331,o),
(413,374,c),
(411,368,l),
(399,190,o),
(285,51,o),
(78,27,c),
(87,-4,l)
);
},
{
closed = 1;
nodes = (
(420,365,l),
(420,376,l),
(396,376,l),
(396,365,l)
);
},
{
closed = 1;
nodes = (
(423,424,l),
(381,383,o),
(342,365,o),
(287,365,cs),
(197,365,o),
(141,413,o),
(141,512,cs),
(141,568,o),
(167,658,o),
(267,658,cs),
(376,658,o),
(413,563,o),
(413,432,cs),
(413,387,o),
(413,363,o),
(410,343,c)
);
}
);
width = 569;
},
{
layerId = m004;
shapes = (
{
closed = 1;
nodes = (
(352,10,o),
(498,186,o),
(498,427,cs),
(498,608,o),
(402,710,o),
(262,710,cs),
(112,710,o),
(33,602,o),
(33,488,cs),
(33,350,o),
(139,288,o),
(223,288,cs),
(313,288,o),
(360,331,o),
(399,374,c),
(397,368,l),
(385,190,o),
(291,53,o),
(64,27,c),
(73,-4,l)
);
},
{
closed = 1;
nodes = (
(406,365,l),
(406,376,l),
(382,376,l),
(382,365,l)
);
},
{
closed = 1;
nodes = (
(409,420,l),
(374,379,o),
(326,353,o),
(264,353,cs),
(184,353,o),
(127,403,o),
(127,512,cs),
(127,580,o),
(151,672,o),
(250,672,cs),
(350,672,o),
(399,584,o),
(399,432,cs),
(399,387,o),
(399,363,o),
(396,343,c)
);
}
);
width = 542;
}
);
unicode = 57;
},
{
color = 6;
glyphname = zero.dnom;
kernLeft = zero.dnom;
kernRight = zero.dnom;
lastChange = "2023-10-18 14:24:06 +0000";
layers = (
{
layerId = "CFBFE906-6BC9-42DE-B086-7F9578F7A428";
shapes = (
{
closed = 1;
nodes = (
(275,-6,o),
(335,71,o),
(335,192,cs),
(335,306,o),
(283,382,o),
(185,382,cs),
(95,382,o),
(35,304,o),
(35,181,cs),
(35,69,o),
(87,-6,o),
(185,-6,cs)
);
},
{
closed = 1;
nodes = (
(136,34,o),
(103,98,o),
(102,191,cs),
(101,292,o),
(129,342,o),
(180,342,cs),
(232,342,o),
(268,274,o),
(268,180,cs),
(268,87,o),
(241,34,o),
(190,34,cs)
);
}
);
width = 370;
},
{
layerId = m004;
shapes = (
{
closed = 1;
nodes = (
(268,-6,o),
(328,71,o),
(328,192,cs),
(328,306,o),
(276,382,o),
(178,382,cs),
(88,382,o),
(28,304,o),
(28,181,cs),
(28,69,o),
(80,-6,o),
(178,-6,cs)
);
},
{
closed = 1;
nodes = (
(129,24,o),
(96,88,o),
(95,191,cs),
(94,302,o),
(122,352,o),
(173,352,cs),
(225,352,o),
(261,284,o),
(261,180,cs),
(261,77,o),
(234,24,o),
(183,24,cs)
);
}
);
width = 356;
}
);
},
{
color = 6;
glyphname = one.dnom;
kernLeft = zero.dnom;
kernRight = zero.dnom;
lastChange = "2023-10-18 14:24:06 +0000";
layers = (
{
layerId = "CFBFE906-6BC9-42DE-B086-7F9578F7A428";
shapes = (
{
closed = 1;
nodes = (
(205,0,l),
(205,27,l),
(180,30,ls),
(159,33,o),
(154,39,o),
(154,62,cs),
(154,380,l),
(141,380,l),
(25,353,l),
(25,327,l),
(87,327,o),
(96,326,o),
(96,294,cs),
(96,67,ls),
(96,42,o),
(89,32,o),
(66,30,cs),
(34,27,l),
(34,0,l)
);
}
);
width = 233;
},
{
layerId = m004;
shapes = (
{
closed = 1;
nodes = (
(195,0,l),
(195,22,l),
(170,25,ls),
(149,28,o),
(144,34,o),
(144,57,cs),
(144,380,l),
(131,380,l),
(15,353,l),
(15,332,l),
(77,332,o),
(86,331,o),
(86,299,cs),
(86,62,ls),
(86,37,o),
(79,27,o),
(56,25,cs),
(24,22,l),
(24,0,l)
);
}
);
width = 215;
}
);
},
{
color = 6;
glyphname = two.dnom;
kernLeft = zero.dnom;
kernRight = zero.dnom;
lastChange = "2023-10-18 14:24:06 +0000";
layers = (
{
layerId = "CFBFE906-6BC9-42DE-B086-7F9578F7A428";
shapes = (
{
closed = 1;
nodes = (
(263,0,l),
(263,76,l),
(240,76,l),
(237,61,o),
(229,46,o),
(196,46,cs),
(65,46,l),
(69,26,l),
(167,113,o),
(260,194,o),
(260,286,cs),
(260,360,o),
(195,382,o),
(151,382,cs),
(88,382,o),
(44,355,o),
(24,292,c),
(58,285,l),
(74,320,o),
(100,338,o),
(131,338,cs),
(170,338,o),
(193,317,o),
(193,274,cs),
(193,204,o),
(111,109,o),
(27,24,c),
(27,0,l)
);
}
);
width = 301;
},
{
layerId = m004;
shapes = (
{
closed = 1;
nodes = (
(256,0,l),
(256,73,l),
(237,73,l),
(234,58,o),
(226,43,o),
(193,43,cs),
(58,43,l),
(58,26,l),
(156,113,o),
(253,194,o),
(253,286,cs),
(253,360,o),
(188,382,o),
(144,382,cs),
(81,382,o),
(37,355,o),
(17,292,c),
(49,286,l),
(65,331,o),
(93,348,o),
(124,348,cs),
(163,348,o),
(188,327,o),
(188,278,cs),
(188,204,o),
(104,109,o),
(20,24,c),
(20,0,l)
);
}
);
width = 287;
}
);
},
{
color = 6;
glyphname = three.dnom;
kernLeft = zero.dnom;
kernRight = zero.dnom;
lastChange = "2023-10-18 14:24:06 +0000";
layers = (
{
layerId = "CFBFE906-6BC9-42DE-B086-7F9578F7A428";
shapes = (
{
closed = 1;
nodes = (
(206,-6,o),
(257,44,o),
(257,108,cs),
(257,165,o),
(218,201,o),
(159,207,c),
(158,195,l),
(220,216,o),
(249,251,o),
(249,294,cs),
(249,347,o),
(206,382,o),
(146,382,cs),
(90,382,o),
(47,355,o),
(30,298,c),
(62,286,l),
(76,313,o),
(95,338,o),
(132,338,cs),
(162,338,o),
(186,319,o),
(186,283,cs),
(186,245,o),
(153,215,o),
(96,200,c),
(96,169,l),
(150,182,o),
(195,155,o),
(195,99,cs),
(195,57,o),
(169,31,o),
(135,31,cs),
(118,31,o),
(115,34,o),
(101,47,cs),
(79,67,ls),
(62,82,o),
(28,80,o),
(28,50,cs),
(28,26,o),
(64,-6,o),
(130,-6,cs)
);
}
);
width = 293;
},
{
layerId = m004;
shapes = (
{
closed = 1;
nodes = (
(198,-6,o),
(249,44,o),
(249,108,cs),
(249,165,o),
(210,201,o),
(151,205,c),
(150,197,l),
(212,218,o),
(241,251,o),
(241,294,cs),
(241,347,o),
(198,382,o),
(138,382,cs),
(82,382,o),
(39,355,o),
(22,298,c),
(51,288,l),
(66,324,o),
(87,348,o),
(124,348,cs),
(152,348,o),
(178,331,o),
(178,290,cs),
(178,245,o),
(145,213,o),
(88,198,c),
(88,171,l),
(140,184,o),
(187,157,o),
(187,99,cs),
(187,49,o),
(161,23,o),
(127,23,cs),
(110,23,o),
(102,31,o),
(93,40,cs),
(66,65,ls),
(49,80,o),
(20,70,o),
(20,45,cs),
(20,26,o),
(56,-6,o),
(122,-6,cs)
);
}
);
width = 278;
}
);
},
{
color = 6;
glyphname = four.dnom;
kernLeft = zero.dnom;
kernRight = zero.dnom;
lastChange = "2023-10-18 14:24:06 +0000";
layers = (
{
layerId = "CFBFE906-6BC9-42DE-B086-7F9578F7A428";
shapes = (
{
closed = 1;
nodes = (
(298,0,l),
(298,27,l),
(278,30,ls),
(257,33,o),
(252,39,o),
(252,62,cs),
(252,119,l),
(303,119,l),
(314,145,l),
(314,158,l),
(252,158,l),
(252,382,l),
(212,382,l),
(22,139,l),
(22,119,l),
(199,119,l),
(199,67,ls),
(199,42,o),
(192,33,o),
(169,30,cs),
(142,27,l),
(142,0,l)
);
},
{
closed = 1;
nodes = (
(210,158,l),
(46,158,l),
(67,144,l),
(207,324,l),
(199,331,l),
(199,141,l)
);
}
);
width = 340;
},
{
layerId = m004;
shapes = (
{
closed = 1;
nodes = (
(291,0,l),
(291,21,l),
(271,24,ls),
(250,27,o),
(245,33,o),
(245,56,cs),
(245,119,l),
(296,119,l),
(307,144,l),
(307,157,l),
(245,157,l),
(245,382,l),
(208,382,l),
(15,137,l),
(15,119,l),
(192,119,l),
(192,61,ls),
(192,36,o),
(185,27,o),
(162,24,cs),
(135,21,l),
(135,0,l)
);
},
{
closed = 1;
nodes = (
(203,157,l),
(39,157,l),
(55,142,l),
(198,324,l),
(192,331,l),
(192,139,l)
);
}
);
width = 327;
}
);
},
{
color = 6;
glyphname = five.dnom;
kernLeft = zero.dnom;
kernRight = zero.dnom;
lastChange = "2023-10-18 14:24:06 +0000";
layers = (
{
layerId = "CFBFE906-6BC9-42DE-B086-7F9578F7A428";
shapes = (
{
closed = 1;
nodes = (
(210,-6,o),
(263,46,o),
(263,115,cs),
(263,201,o),
(189,245,o),
(57,238,c),
(85,222,l),
(103,360,l),
(75,330,l),
(249,330,l),
(249,396,l),
(226,396,l),
(223,380,o),
(215,376,o),
(182,376,cs),
(71,376,l),
(44,194,l),
(46,193,l),
(144,194,o),
(203,166,o),
(203,100,cs),
(203,53,o),
(174,30,o),
(133,30,cs),
(115,30,o),
(107,39,o),
(98,48,cs),
(77,67,ls),
(60,82,o),
(26,80,o),
(26,50,cs),
(26,26,o),
(62,-6,o),
(130,-6,cs)
);
}
);
width = 295;
},
{
layerId = m004;
shapes = (
{
closed = 1;
nodes = (
(203,-6,o),
(256,46,o),
(256,115,cs),
(256,201,o),
(182,245,o),
(50,238,c),
(73,222,l),
(91,360,l),
(68,333,l),
(242,333,l),
(242,396,l),
(222,396,l),
(219,380,o),
(211,376,o),
(178,376,cs),
(64,376,l),
(37,194,l),
(39,193,l),
(137,194,o),
(196,164,o),
(196,98,cs),
(196,55,o),
(165,23,o),
(126,23,cs),
(108,23,o),
(100,31,o),
(91,40,cs),
(64,65,ls),
(47,80,o),
(18,71,o),
(18,45,cs),
(18,26,o),
(55,-6,o),
(123,-6,cs)
);
}
);
width = 279;
}
);
},
{
color = 6;
glyphname = six.dnom;
kernLeft = zero.dnom;
kernRight = zero.dnom;
lastChange = "2023-10-18 14:24:06 +0000";
layers = (
{
layerId = "CFBFE906-6BC9-42DE-B086-7F9578F7A428";
shapes = (
{
closed = 1;
nodes = (
(231,-6,o),
(283,45,o),
(283,117,cs),
(283,186,o),
(239,222,o),
(182,222,cs),
(151,222,o),
(123,209,o),
(99,182,c),
(96,182,l),
(105,271,o),
(165,332,o),
(266,349,c),
(262,379,l),
(122,365,o),
(33,276,o),
(33,147,cs),
(33,54,o),
(80,-6,o),
(157,-6,cs)
);
},
{
closed = 1;
nodes = (
(120,31,o),
(95,66,o),
(95,139,cs),
(95,151,l),
(114,168,o),
(139,177,o),
(159,177,cs),
(195,177,o),
(223,154,o),
(223,104,cs),
(223,56,o),
(197,31,o),
(163,31,cs)
);
}
);
width = 314;
},
{
layerId = m004;
shapes = (
{
closed = 1;
nodes = (
(225,-6,o),
(277,45,o),
(277,116,cs),
(277,185,o),
(233,221,o),
(176,221,cs),
(145,221,o),
(117,208,o),
(93,181,c),
(90,181,l),
(99,270,o),
(158,337,o),
(259,354,c),
(256,379,l),
(116,365,o),
(27,275,o),
(27,146,cs),
(27,54,o),
(74,-6,o),
(151,-6,cs)
);
},
{
closed = 1;
nodes = (
(114,24,o),
(89,56,o),
(89,138,cs),
(89,150,l),
(108,170,o),
(133,179,o),
(153,179,cs),
(189,179,o),
(217,148,o),
(217,103,cs),
(217,54,o),
(191,24,o),
(157,24,cs)
);
}
);
width = 299;
}
);
},
{
color = 6;
glyphname = seven.dnom;
kernLeft = zero.dnom;
kernRight = zero.dnom;
lastChange = "2023-10-18 14:24:06 +0000";
layers = (
{
layerId = "CFBFE906-6BC9-42DE-B086-7F9578F7A428";
shapes = (
{
closed = 1;
nodes = (
(122,0,l),
(264,347,l),
(264,376,l),
(22,376,l),
(22,299,l),
(45,299,l),
(48,315,o),
(55,330,o),
(89,330,cs),
(248,330,l),
(233,363,l),
(64,26,l),
(64,0,l)
);
}
);
width = 283;
},
{
layerId = m004;
shapes = (
{
closed = 1;
nodes = (
(113,0,l),
(255,347,l),
(255,376,l),
(13,376,l),
(13,302,l),
(33,302,l),
(36,318,o),
(43,333,o),
(77,333,cs),
(239,333,l),
(230,363,l),
(56,23,l),
(56,0,l)
);
}
);
width = 267;
}
);
},
{
color = 6;
glyphname = eight.dnom;
kernLeft = zero.dnom;
kernRight = zero.dnom;
lastChange = "2023-10-18 14:24:06 +0000";
layers = (
{
layerId = "CFBFE906-6BC9-42DE-B086-7F9578F7A428";
shapes = (
{
closed = 1;
nodes = (
(150,227,l),
(166,193,l),
(221,213,o),
(274,244,o),
(274,296,cs),
(274,349,o),
(225,382,o),
(162,382,cs),
(94,382,o),
(40,341,o),
(40,284,cs),
(40,241,o),
(62,213,o),
(104,189,cs),
(153,161,l),
(135,193,l),
(86,184,o),
(37,140,o),
(37,88,cs),
(37,31,o),
(86,-6,o),
(154,-6,cs),
(223,-6,o),
(277,38,o),
(277,98,cs),
(277,142,o),
(257,170,o),
(208,196,cs)
);
},
{
closed = 1;
nodes = (
(92,323,o),
(117,345,o),
(155,345,cs),
(191,345,o),
(220,325,o),
(220,287,cs),
(220,261,o),
(200,237,o),
(170,216,c),
(139,234,ls),
(108,252,o),
(92,268,o),
(92,290,cs)
);
},
{
closed = 1;
nodes = (
(120,31,o),
(91,59,o),
(91,92,cs),
(91,125,o),
(107,152,o),
(134,172,c),
(181,145,ls),
(211,128,o),
(225,118,o),
(225,90,cs),
(225,57,o),
(198,31,o),
(160,31,cs)
);
}
);
width = 314;
},
{
layerId = m004;
shapes = (
{
closed = 1;
nodes = (
(143,226,l),
(149,193,l),
(214,213,o),
(267,244,o),
(267,296,cs),
(267,349,o),
(218,382,o),
(155,382,cs),
(87,382,o),
(33,341,o),
(33,284,cs),
(33,241,o),
(55,214,o),
(97,190,cs),
(146,162,l),
(138,193,l),
(79,184,o),
(30,140,o),
(30,88,cs),
(30,31,o),
(79,-6,o),
(147,-6,cs),
(216,-6,o),
(270,38,o),
(270,98,cs),
(270,142,o),
(250,169,o),
(201,195,cs)
);
},
{
closed = 1;
nodes = (
(85,329,o),
(110,351,o),
(148,351,cs),
(184,351,o),
(213,331,o),
(213,292,cs),
(213,261,o),
(193,236,o),
(163,215,c),
(132,233,ls),
(100,252,o),
(85,274,o),
(85,296,cs)
);
},
{
closed = 1;
nodes = (
(113,25,o),
(84,53,o),
(84,92,cs),
(84,125,o),
(100,153,o),
(127,173,c),
(174,146,ls),
(204,129,o),
(218,113,o),
(218,84,cs),
(218,51,o),
(191,25,o),
(153,25,cs)
);
}
);
width = 300;
}
);
},
{
color = 6;
glyphname = nine.dnom;
kernLeft = zero.dnom;
kernRight = zero.dnom;
lastChange = "2023-10-18 14:24:06 +0000";
layers = (
{
layerId = "CFBFE906-6BC9-42DE-B086-7F9578F7A428";
shapes = (
{
closed = 1;
nodes = (
(192,10,o),
(281,100,o),
(281,229,cs),
(281,322,o),
(234,382,o),
(157,382,cs),
(83,382,o),
(31,331,o),
(31,259,cs),
(31,190,o),
(75,154,o),
(132,154,cs),
(163,154,o),
(191,167,o),
(215,194,c),
(218,194,l),
(209,105,o),
(149,43,o),
(48,27,c),
(52,-3,l)
);
},
{
closed = 1;
nodes = (
(119,199,o),
(91,222,o),
(91,272,cs),
(91,320,o),
(117,345,o),
(151,345,cs),
(194,345,o),
(219,310,o),
(219,237,cs),
(219,225,l),
(200,208,o),
(175,199,o),
(155,199,cs)
);
}
);
width = 314;
},
{
layerId = m004;
shapes = (
{
closed = 1;
nodes = (
(183,14,o),
(273,100,o),
(273,229,cs),
(273,321,o),
(226,382,o),
(149,382,cs),
(75,382,o),
(23,331,o),
(23,261,cs),
(23,187,o),
(70,154,o),
(124,154,cs),
(155,154,o),
(183,167,o),
(207,194,c),
(210,194,l),
(201,105,o),
(152,46,o),
(41,22,c),
(44,-3,l)
);
},
{
closed = 1;
nodes = (
(111,196,o),
(83,227,o),
(83,273,cs),
(83,322,o),
(109,352,o),
(143,352,cs),
(191,352,o),
(211,312,o),
(211,238,cs),
(211,225,l),
(192,205,o),
(167,196,o),
(147,196,cs)
);
}
);
width = 300;
}
);
},
{
color = 6;
glyphname = fraction;
lastChange = "2023-10-18 14:24:06 +0000";
layers = (
{
layerId = "CFBFE906-6BC9-42DE-B086-7F9578F7A428";
shapes = (
{
closed = 1;
nodes = (
(-88,0,l),
(332,700,l),
(267,700,l),
(-153,0,l)
);
}
);
width = 180;
},
{
layerId = m004;
shapes = (
{
closed = 1;
nodes = (
(-103,0,l),
(317,700,l),
(262,700,l),
(-158,0,l)
);
}
);
width = 160;
}
);
unicode = 8260;
},
{
color = 6;
glyphname = .notdef;
lastChange = "2023-10-18 14:24:06 +0000";
layers = (
{
layerId = "CFBFE906-6BC9-42DE-B086-7F9578F7A428";
shapes = (
{
closed = 1;
nodes = (
(560,0,l),
(560,700,l),
(53,700,l),
(53,0,l)
);
},
{
closed = 1;
nodes = (
(147,652,l),
(466,652,l),
(466,48,l),
(147,48,l)
);
}
);
width = 613;
},
{
layerId = m004;
shapes = (
{
closed = 1;
nodes = (
(547,0,l),
(547,700,l),
(40,700,l),
(40,0,l)
);
},
{
closed = 1;
nodes = (
(134,660,l),
(453,660,l),
(453,40,l),
(134,40,l)
);
}
);
width = 587;
}
);
},
{
color = 6;
glyphname = period;
kernLeft = period;
kernRight = period;
lastChange = "2023-10-18 14:24:06 +0000";
layers = (
{
layerId = "CFBFE906-6BC9-42DE-B086-7F9578F7A428";
shapes = (
{
closed = 1;
nodes = (
(157,-10,o),
(186,15,o),
(186,54,cs),
(186,90,o),
(157,116,o),
(123,116,cs),
(88,116,o),
(59,90,o),
(59,54,cs),
(59,15,o),
(88,-10,o),
(123,-10,cs)
);
}
);
width = 245;
},
{
layerId = m004;
shapes = (
{
closed = 1;
nodes = (
(140,-10,o),
(168,15,o),
(168,52,cs),
(168,87,o),
(140,112,o),
(107,112,cs),
(73,112,o),
(45,87,o),
(45,52,cs),
(45,15,o),
(73,-10,o),
(107,-10,cs)
);
}
);
width = 213;
}
);
unicode = 46;
},
{
color = 6;
glyphname = comma;
kernLeft = period;
kernRight = period;
lastChange = "2023-10-18 14:24:06 +0000";
layers = (
{
layerId = "CFBFE906-6BC9-42DE-B086-7F9578F7A428";
shapes = (
{
closed = 1;
nodes = (
(164,-112,o),
(204,-55,o),
(204,14,cs),
(204,73,o),
(175,112,o),
(128,112,cs),
(91,112,o),
(62,87,o),
(62,51,cs),
(62,16,o),
(89,-10,o),
(123,-10,cs),
(157,-10,o),
(183,16,o),
(183,51,c),
(149,37,l),
(149,-48,o),
(128,-85,o),
(49,-139,c),
(73,-170,l)
);
}
);
width = 262;
},
{
layerId = m004;
shapes = (
{
closed = 1;
nodes = (
(147,-112,o),
(186,-55,o),
(186,18,cs),
(186,73,o),
(156,107,o),
(111,107,cs),
(74,107,o),
(47,84,o),
(47,49,cs),
(47,15,o),
(73,-10,o),
(106,-10,cs),
(140,-10,o),
(164,15,o),
(164,49,c),
(138,30,l),
(138,-55,o),
(117,-92,o),
(38,-146,c),
(56,-170,l)
);
}
);
width = 229;
}
);
unicode = 44;
},
{
color = 6;
glyphname = exclam;
lastChange = "2023-10-18 14:24:06 +0000";
layers = (
{
layerId = "CFBFE906-6BC9-42DE-B086-7F9578F7A428";
shapes = (
{
closed = 1;
nodes = (
(164,194,l),
(173,315,o),
(181,416,o),
(190,527,cs),
(193,563,o),
(199,623,o),
(199,646,cs),
(199,687,o),
(179,710,o),
(143,710,cs),
(107,710,o),
(87,687,o),
(87,646,cs),
(87,623,o),
(93,563,o),
(96,527,cs),
(105,416,o),
(113,315,o),
(122,194,c)
);
},
{
closed = 1;
nodes = (
(179,-10,o),
(207,15,o),
(207,52,cs),
(207,88,o),
(179,114,o),
(146,114,cs),
(112,114,o),
(84,88,o),
(84,52,cs),
(84,15,o),
(112,-10,o),
(146,-10,cs)
);
}
);
width = 287;
},
{
layerId = m004;
shapes = (
{
closed = 1;
nodes = (
(148,194,l),
(157,315,o),
(165,416,o),
(174,527,cs),
(177,563,o),
(183,623,o),
(183,646,cs),
(183,687,o),
(163,710,o),
(131,710,cs),
(99,710,o),
(79,687,o),
(79,646,cs),
(79,623,o),
(85,563,o),
(88,527,cs),
(97,416,o),
(105,315,o),
(114,194,c)
);
},
{
closed = 1;
nodes = (
(163,-10,o),
(190,14,o),
(190,50,cs),
(190,84,o),
(163,109,o),
(131,109,cs),
(98,109,o),
(71,84,o),
(71,50,cs),
(71,14,o),
(98,-10,o),
(131,-10,cs)
);
}
);
width = 262;
}
);
unicode = 33;
},
{
color = 6;
glyphname = question;
lastChange = "2023-10-18 14:24:06 +0000";
layers = (
{
layerId = "CFBFE906-6BC9-42DE-B086-7F9578F7A428";
shapes = (
{
closed = 1;
nodes = (
(188,206,l),
(174,250,o),
(167,277,o),
(167,294,cs),
(167,329,o),
(181,351,o),
(218,376,cs),
(274,413,ls),
(328,449,o),
(351,486,o),
(351,536,cs),
(351,634,o),
(265,710,o),
(162,710,cs),
(95,710,o),
(38,689,o),
(38,657,cs),
(38,625,o),
(74,598,o),
(111,616,cs),
(149,635,ls),
(183,652,o),
(197,654,o),
(208,654,cs),
(245,654,o),
(276,620,o),
(276,568,cs),
(276,534,o),
(262,502,o),
(223,477,cs),
(162,437,ls),
(117,408,o),
(95,375,o),
(95,331,cs),
(95,293,o),
(113,250,o),
(148,193,c)
);
},
{
closed = 1;
nodes = (
(206,-10,o),
(232,17,o),
(232,52,cs),
(232,87,o),
(205,114,o),
(171,114,cs),
(136,114,o),
(109,87,o),
(109,52,cs),
(109,17,o),
(136,-10,o),
(171,-10,cs)
);
}
);
width = 396;
},
{
layerId = m004;
shapes = (
{
closed = 1;
nodes = (
(167,204,l),
(156,248,o),
(151,275,o),
(151,294,cs),
(151,329,o),
(165,351,o),
(202,376,cs),
(258,413,ls),
(312,449,o),
(335,486,o),
(335,536,cs),
(335,634,o),
(259,710,o),
(146,710,cs),
(81,710,o),
(22,690,o),
(22,657,cs),
(22,629,o),
(54,606,o),
(88,623,cs),
(133,645,ls),
(165,661,o),
(180,665,o),
(195,665,cs),
(235,665,o),
(265,628,o),
(265,570,cs),
(265,529,o),
(250,505,o),
(207,477,cs),
(146,437,ls),
(100,407,o),
(82,376,o),
(82,333,cs),
(82,295,o),
(100,252,o),
(140,194,c)
);
},
{
closed = 1;
nodes = (
(189,-10,o),
(214,16,o),
(214,50,cs),
(214,83,o),
(188,109,o),
(155,109,cs),
(121,109,o),
(95,83,o),
(95,50,cs),
(95,16,o),
(121,-10,o),
(155,-10,cs)
);
}
);
width = 364;
}
);
unicode = 63;
},
{
color = 6;
glyphname = bullet;
lastChange = "2023-10-18 14:24:06 +0000";
layers = (
{
layerId = "CFBFE906-6BC9-42DE-B086-7F9578F7A428";
shapes = (
{
closed = 1;
nodes = (
(269,238,o),
(320,286,o),
(320,355,cs),
(320,423,o),
(269,471,o),
(205,471,cs),
(140,471,o),
(88,423,o),
(88,355,cs),
(88,286,o),
(140,238,o),
(205,238,cs)
);
}
);
width = 408;
},
{
layerId = m004;
shapes = (
{
closed = 1;
nodes = (
(258,238,o),
(309,286,o),
(309,355,cs),
(309,423,o),
(258,471,o),
(194,471,cs),
(129,471,o),
(77,423,o),
(77,355,cs),
(77,286,o),
(129,238,o),
(194,238,cs)
);
}
);
width = 387;
}
);
unicode = 8226;
},
{
color = 6;
glyphname = asterisk;
lastChange = "2023-10-18 14:24:06 +0000";
layers = (
{
layerId = "CFBFE906-6BC9-42DE-B086-7F9578F7A428";
shapes = (
{
closed = 1;
nodes = (
(174,368,o),
(183,396,o),
(200,432,cs),
(228,493,l),
(256,432,ls),
(273,396,o),
(282,368,o),
(313,368,cs),
(336,368,o),
(354,384,o),
(354,404,cs),
(354,425,o),
(342,433,o),
(306,469,cs),
(259,516,l),
(324,524,ls),
(358,528,o),
(409,528,o),
(409,570,cs),
(409,593,o),
(392,609,o),
(369,609,cs),
(350,609,o),
(334,598,o),
(305,582,cs),
(247,550,l),
(259,613,ls),
(264,639,o),
(268,658,o),
(268,670,cs),
(268,693,o),
(251,710,o),
(228,710,cs),
(205,710,o),
(188,693,o),
(188,670,cs),
(188,658,o),
(192,639,o),
(197,613,cs),
(209,550,l),
(151,582,ls),
(122,598,o),
(106,609,o),
(87,609,cs),
(64,609,o),
(47,593,o),
(47,570,cs),
(47,528,o),
(98,528,o),
(132,524,cs),
(197,516,l),
(150,469,ls),
(114,433,o),
(102,425,o),
(102,404,cs),
(102,385,o),
(119,368,o),
(140,368,cs)
);
}
);
width = 456;
},
{
layerId = m004;
shapes = (
{
closed = 1;
nodes = (
(167,368,o),
(183,407,o),
(193,432,cs),
(221,505,l),
(249,432,ls),
(259,407,o),
(275,368,o),
(306,368,cs),
(328,368,o),
(347,383,o),
(347,404,cs),
(347,425,o),
(338,437,o),
(299,469,cs),
(239,518,l),
(317,524,ls),
(351,527,o),
(402,528,o),
(402,570,cs),
(402,594,o),
(384,609,o),
(362,609,cs),
(343,609,o),
(326,598,o),
(298,580,cs),
(232,538,l),
(252,615,ls),
(259,641,o),
(261,658,o),
(261,670,cs),
(261,693,o),
(244,710,o),
(221,710,cs),
(198,710,o),
(181,693,o),
(181,670,cs),
(181,658,o),
(183,641,o),
(190,615,cs),
(210,538,l),
(144,580,ls),
(116,598,o),
(99,609,o),
(80,609,cs),
(58,609,o),
(40,594,o),
(40,570,cs),
(40,528,o),
(91,527,o),
(125,524,cs),
(203,518,l),
(143,469,ls),
(104,437,o),
(95,425,o),
(95,404,cs),
(95,383,o),
(114,368,o),
(136,368,cs)
);
}
);
width = 442;
}
);
unicode = 42;
},
{
color = 6;
glyphname = numbersign;
lastChange = "2023-10-18 14:24:06 +0000";
layers = (
{
layerId = "CFBFE906-6BC9-42DE-B086-7F9578F7A428";
shapes = (
{
closed = 1;
nodes = (
(359,0,l),
(559,700,l),
(500,700,l),
(300,0,l)
);
},
{
closed = 1;
nodes = (
(536,200,l),
(560,288,l),
(593,250,l),
(-6,250,l),
(51,288,l),
(27,200,l)
);
},
{
closed = 1;
nodes = (
(137,0,l),
(337,700,l),
(278,700,l),
(78,0,l)
);
},
{
closed = 1;
nodes = (
(53,458,l),
(652,458,l),
(595,420,l),
(619,508,l),
(110,508,l),
(86,420,l)
);
}
);
width = 643;
},
{
layerId = m004;
shapes = (
{
closed = 1;
nodes = (
(349,0,l),
(549,700,l),
(497,700,l),
(297,0,l)
);
},
{
closed = 1;
nodes = (
(526,200,l),
(550,288,l),
(583,244,l),
(-16,244,l),
(41,288,l),
(17,200,l)
);
},
{
closed = 1;
nodes = (
(120,0,l),
(320,700,l),
(268,700,l),
(68,0,l)
);
},
{
closed = 1;
nodes = (
(43,468,l),
(642,468,l),
(585,420,l),
(609,508,l),
(100,508,l),
(76,420,l)
);
}
);
width = 625;
}
);
unicode = 35;
},
{
color = 6;
glyphname = slash;
lastChange = "2023-10-18 14:24:06 +0000";
layers = (
{
layerId = "CFBFE906-6BC9-42DE-B086-7F9578F7A428";
shapes = (
{
closed = 1;
nodes = (
(77,-150,l),
(424,760,l),
(362,760,l),
(15,-150,l)
);
}
);
width = 439;
},
{
layerId = m004;
shapes = (
{
closed = 1;
nodes = (
(65,-150,l),
(412,760,l),
(360,760,l),
(13,-150,l)
);
}
);
width = 425;
}
);
unicode = 47;
},
{
color = 6;
glyphname = backslash;
lastChange = "2023-10-18 14:24:06 +0000";
layers = (
{
layerId = "CFBFE906-6BC9-42DE-B086-7F9578F7A428";
shapes = (
{
closed = 1;
nodes = (
(424,-150,l),
(77,760,l),
(15,760,l),
(362,-150,l)
);
}
);
width = 439;
},
{
layerId = m004;
shapes = (
{
closed = 1;
nodes = (
(412,-150,l),
(65,760,l),
(13,760,l),
(360,-150,l)
);
}
);
width = 425;
}
);
unicode = 92;
},
{
color = 6;
glyphname = hyphen;
kernLeft = hyphen;
kernRight = hyphen;
lastChange = "2023-10-18 14:24:06 +0000";
layers = (
{
layerId = "CFBFE906-6BC9-42DE-B086-7F9578F7A428";
shapes = (
{
closed = 1;
nodes = (
(335,300,l),
(335,362,l),
(57,362,l),
(57,300,l)
);
}
);
width = 392;
},
{
layerId = m004;
shapes = (
{
closed = 1;
nodes = (
(322,304,l),
(322,358,l),
(44,358,l),
(44,304,l)
);
}
);
width = 366;
}
);
unicode = 45;
},
{
color = 6;
glyphname = endash;
kernLeft = hyphen;
kernRight = hyphen;
lastChange = "2023-10-18 14:24:06 +0000";
layers = (
{
layerId = "CFBFE906-6BC9-42DE-B086-7F9578F7A428";
shapes = (
{
closed = 1;
nodes = (
(524,305,l),
(524,357,l),
(46,357,l),
(46,305,l)
);
}
);
width = 570;
},
{
layerId = m004;
shapes = (
{
closed = 1;
nodes = (
(520,309,l),
(520,353,l),
(42,353,l),
(42,309,l)
);
}
);
width = 562;
}
);
unicode = 8211;
},
{
color = 6;
glyphname = emdash;
kernLeft = hyphen;
kernRight = hyphen;
lastChange = "2023-10-18 14:24:06 +0000";
layers = (
{
layerId = "CFBFE906-6BC9-42DE-B086-7F9578F7A428";
shapes = (
{
closed = 1;
nodes = (
(1026,305,l),
(1026,357,l),
(46,357,l),
(46,305,l)
);
}
);
width = 1072;
},
{
layerId = m004;
shapes = (
{
closed = 1;
nodes = (
(1022,309,l),
(1022,353,l),
(42,353,l),
(42,309,l)
);
}
);
width = 1064;
}
);
unicode = 8212;
},
{
color = 6;
glyphname = underscore;
lastChange = "2023-10-18 14:24:06 +0000";
layers = (
{
layerId = "CFBFE906-6BC9-42DE-B086-7F9578F7A428";
shapes = (
{
closed = 1;
nodes = (
(510,-108,l),
(510,-56,l),
(32,-56,l),
(32,-108,l)
);
}
);
width = 542;
},
{
layerId = m004;
shapes = (
{
closed = 1;
nodes = (
(496,-100,l),
(496,-56,l),
(18,-56,l),
(18,-100,l)
);
}
);
width = 514;
}
);
unicode = 95;
},
{
color = 6;
glyphname = parenleft;
lastChange = "2023-10-18 14:24:06 +0000";
layers = (
{
layerId = "CFBFE906-6BC9-42DE-B086-7F9578F7A428";
shapes = (
{
closed = 1;
nodes = (
(138,305,l),
(138,497,o),
(198,622,o),
(308,746,c),
(281,770,l),
(122,633,o),
(48,500,o),
(48,305,c)
);
},
{
closed = 1;
nodes = (
(308,-136,l),
(198,-12,o),
(138,113,o),
(138,305,c),
(48,305,l),
(48,110,o),
(122,-23,o),
(281,-160,c)
);
}
);
width = 321;
},
{
guides = (
{
pos = (120,730);
},
{
pos = (59,-120);
}
);
layerId = m004;
shapes = (
{
closed = 1;
nodes = (
(127,305,l),
(127,492,o),
(176,631,o),
(274,754,c),
(256,770,l),
(106,633,o),
(37,500,o),
(37,305,c)
);
},
{
closed = 1;
nodes = (
(274,-144,l),
(176,-21,o),
(127,118,o),
(127,305,c),
(37,305,l),
(37,110,o),
(106,-23,o),
(256,-160,c)
);
}
);
width = 290;
}
);
unicode = 40;
},
{
color = 6;
glyphname = braceleft;
lastChange = "2023-10-18 14:24:06 +0000";
layers = (
{
layerId = "CFBFE906-6BC9-42DE-B086-7F9578F7A428";
shapes = (
{
closed = 1;
nodes = (
(293,-115,l),
(204,-115,o),
(168,-79,o),
(186,12,cs),
(215,161,ls),
(231,245,o),
(201,290,o),
(127,305,c),
(201,320,o),
(231,365,o),
(215,449,cs),
(186,598,ls),
(168,689,o),
(204,725,o),
(293,725,c),
(293,765,l),
(142,775,o),
(73,708,o),
(97,590,cs),
(129,431,ls),
(143,362,o),
(124,330,o),
(65,326,cs),
(35,324,l),
(35,286,l),
(65,284,ls),
(124,280,o),
(143,248,o),
(129,179,cs),
(97,20,ls),
(73,-98,o),
(142,-165,o),
(293,-155,c)
);
}
);
width = 328;
},
{
guides = (
{
pos = (34,305);
}
);
layerId = m004;
shapes = (
{
closed = 1;
nodes = (
(254,-124,l),
(185,-129,o),
(150,-83,o),
(167,8,cs),
(196,161,ls),
(212,245,o),
(182,290,o),
(98,305,c),
(182,320,o),
(212,365,o),
(196,449,cs),
(167,602,ls),
(150,693,o),
(185,739,o),
(254,734,c),
(254,764,l),
(123,774,o),
(55,712,o),
(78,594,cs),
(110,431,ls),
(124,362,o),
(105,324,o),
(46,321,cs),
(26,320,l),
(26,290,l),
(46,289,ls),
(105,286,o),
(124,248,o),
(110,179,cs),
(78,16,ls),
(55,-102,o),
(123,-164,o),
(254,-154,c)
);
}
);
width = 284;
}
);
unicode = 123;
},
{
color = 6;
glyphname = bracketleft;
lastChange = "2023-10-18 14:24:06 +0000";
layers = (
{
layerId = "CFBFE906-6BC9-42DE-B086-7F9578F7A428";
shapes = (
{
closed = 1;
nodes = (
(296,-150,l),
(296,-110,l),
(245,-106,ls),
(196,-102,o),
(186,-100,o),
(186,-58,cs),
(186,668,ls),
(186,710,o),
(196,712,o),
(245,716,cs),
(296,720,l),
(296,760,l),
(102,760,l),
(102,-150,l)
);
}
);
width = 320;
},
{
guides = (
{
pos = (12,305);
}
);
layerId = m004;
shapes = (
{
closed = 1;
nodes = (
(278,-150,l),
(278,-120,l),
(237,-116,ls),
(188,-111,o),
(178,-110,o),
(178,-68,cs),
(178,678,ls),
(178,720,o),
(188,721,o),
(237,726,cs),
(278,730,l),
(278,760,l),
(94,760,l),
(94,-150,l)
);
}
);
width = 300;
}
);
unicode = 91;
},
{
color = 6;
glyphname = quotesinglbase;
kernLeft = period;
kernRight = period;
lastChange = "2023-10-18 14:24:06 +0000";
layers = (
{
layerId = "CFBFE906-6BC9-42DE-B086-7F9578F7A428";
shapes = (
{
closed = 1;
nodes = (
(160,-108,o),
(200,-50,o),
(200,13,cs),
(200,70,o),
(169,104,o),
(126,104,cs),
(88,104,o),
(62,78,o),
(62,46,cs),
(62,12,o),
(87,-10,o),
(119,-10,cs),
(151,-10,o),
(175,13,o),
(175,47,c),
(146,7,l),
(146,-44,o),
(129,-82,o),
(57,-125,c),
(76,-152,l)
);
}
);
width = 258;
},
{
layerId = m004;
shapes = (
{
closed = 1;
nodes = (
(141,-112,o),
(178,-50,o),
(178,12,cs),
(178,67,o),
(150,100,o),
(107,100,cs),
(71,100,o),
(46,76,o),
(46,44,cs),
(46,12,o),
(70,-10,o),
(100,-10,cs),
(131,-10,o),
(154,13,o),
(154,45,c),
(131,3,l),
(131,-48,o),
(112,-89,o),
(40,-132,c),
(57,-156,l)
);
}
);
width = 220;
}
);
unicode = 8218;
},
{
color = 6;
glyphname = quotedblbase;
kernLeft = period;
kernRight = period;
lastChange = "2023-10-18 14:24:06 +0000";
layers = (
{
layerId = "CFBFE906-6BC9-42DE-B086-7F9578F7A428";
shapes = (
{
closed = 1;
nodes = (
(329,-108,o),
(369,-50,o),
(369,13,cs),
(369,70,o),
(338,104,o),
(295,104,cs),
(257,104,o),
(231,78,o),
(231,46,cs),
(231,12,o),
(256,-10,o),
(288,-10,cs),
(320,-10,o),
(344,13,o),
(344,47,c),
(315,7,l),
(315,-44,o),
(298,-82,o),
(226,-125,c),
(245,-152,l)
);
},
{
closed = 1;
nodes = (
(160,-108,o),
(200,-50,o),
(200,13,cs),
(200,70,o),
(169,104,o),
(126,104,cs),
(88,104,o),
(62,78,o),
(62,46,cs),
(62,12,o),
(87,-10,o),
(119,-10,cs),
(151,-10,o),
(175,13,o),
(175,47,c),
(146,7,l),
(146,-44,o),
(129,-82,o),
(57,-125,c),
(76,-152,l)
);
}
);
width = 427;
},
{
layerId = m004;
shapes = (
{
closed = 1;
nodes = (
(310,-112,o),
(347,-50,o),
(347,12,cs),
(347,67,o),
(319,100,o),
(276,100,cs),
(240,100,o),
(215,76,o),
(215,44,cs),
(215,12,o),
(239,-10,o),
(269,-10,cs),
(300,-10,o),
(323,13,o),
(323,45,c),
(300,3,l),
(300,-48,o),
(281,-89,o),
(209,-132,c),
(226,-156,l)
);
},
{
closed = 1;
nodes = (
(141,-112,o),
(178,-50,o),
(178,12,cs),
(178,67,o),
(150,100,o),
(107,100,cs),
(71,100,o),
(46,76,o),
(46,44,cs),
(46,12,o),
(70,-10,o),
(100,-10,cs),
(131,-10,o),
(154,13,o),
(154,45,c),
(131,3,l),
(131,-48,o),
(112,-89,o),
(40,-132,c),
(57,-156,l)
);
}
);
width = 389;
}
);
unicode = 8222;
},
{
color = 6;
glyphname = quotedblleft;
kernLeft = quoteleft;
kernRight = quoteleft;
lastChange = "2023-10-18 14:24:06 +0000";
layers = (
{
layerId = "CFBFE906-6BC9-42DE-B086-7F9578F7A428";
shapes = (
{
closed = 1;
nodes = (
(334,454,o),
(360,480,o),
(360,512,cs),
(360,546,o),
(335,568,o),
(303,568,cs),
(271,568,o),
(247,545,o),
(247,511,c),
(276,551,l),
(276,602,o),
(293,640,o),
(365,683,c),
(346,710,l),
(262,666,o),
(222,608,o),
(222,545,cs),
(222,488,o),
(253,454,o),
(296,454,cs)
);
},
{
closed = 1;
nodes = (
(165,454,o),
(191,480,o),
(191,512,cs),
(191,546,o),
(166,568,o),
(134,568,cs),
(102,568,o),
(78,545,o),
(78,511,c),
(107,551,l),
(107,602,o),
(124,640,o),
(196,683,c),
(177,710,l),
(93,666,o),
(53,608,o),
(53,545,cs),
(53,488,o),
(84,454,o),
(127,454,cs)
);
}
);
width = 421;
},
{
layerId = m004;
shapes = (
{
closed = 1;
nodes = (
(315,454,o),
(340,478,o),
(340,510,cs),
(340,542,o),
(316,564,o),
(286,564,cs),
(255,564,o),
(232,541,o),
(232,509,c),
(255,551,l),
(255,602,o),
(274,643,o),
(346,686,c),
(329,710,l),
(245,666,o),
(208,604,o),
(208,542,cs),
(208,487,o),
(236,454,o),
(279,454,cs)
);
},
{
closed = 1;
nodes = (
(146,454,o),
(171,478,o),
(171,510,cs),
(171,542,o),
(147,564,o),
(117,564,cs),
(86,564,o),
(63,541,o),
(63,509,c),
(86,551,l),
(86,602,o),
(105,643,o),
(177,686,c),
(160,710,l),
(76,666,o),
(39,604,o),
(39,542,cs),
(39,487,o),
(67,454,o),
(110,454,cs)
);
}
);
width = 387;
}
);
unicode = 8220;
},
{
color = 6;
glyphname = quotedblright;
kernLeft = quoteright;
kernRight = quoteright;
lastChange = "2023-10-18 14:24:06 +0000";
layers = (
{
layerId = "CFBFE906-6BC9-42DE-B086-7F9578F7A428";
shapes = (
{
closed = 1;
nodes = (
(334,498,o),
(374,556,o),
(374,619,cs),
(374,676,o),
(343,710,o),
(300,710,cs),
(262,710,o),
(236,684,o),
(236,652,cs),
(236,618,o),
(261,596,o),
(293,596,cs),
(325,596,o),
(349,619,o),
(349,653,c),
(320,613,l),
(320,562,o),
(303,524,o),
(231,481,c),
(250,454,l)
);
},
{
closed = 1;
nodes = (
(165,498,o),
(205,556,o),
(205,619,cs),
(205,676,o),
(174,710,o),
(131,710,cs),
(93,710,o),
(67,684,o),
(67,652,cs),
(67,618,o),
(92,596,o),
(124,596,cs),
(156,596,o),
(180,619,o),
(180,653,c),
(151,613,l),
(151,562,o),
(134,524,o),
(62,481,c),
(81,454,l)
);
}
);
width = 420;
},
{
layerId = m004;
shapes = (
{
closed = 1;
nodes = (
(317,498,o),
(354,560,o),
(354,622,cs),
(354,677,o),
(326,710,o),
(283,710,cs),
(247,710,o),
(222,686,o),
(222,654,cs),
(222,622,o),
(246,600,o),
(276,600,cs),
(307,600,o),
(330,623,o),
(330,655,c),
(307,613,l),
(307,562,o),
(288,521,o),
(216,478,c),
(233,454,l)
);
},
{
closed = 1;
nodes = (
(148,498,o),
(185,560,o),
(185,622,cs),
(185,677,o),
(157,710,o),
(114,710,cs),
(78,710,o),
(53,686,o),
(53,654,cs),
(53,622,o),
(77,600,o),
(107,600,cs),
(138,600,o),
(161,623,o),
(161,655,c),
(138,613,l),
(138,562,o),
(119,521,o),
(47,478,c),
(64,454,l)
);
}
);
width = 387;
}
);
unicode = 8221;
},
{
color = 6;
glyphname = quoteleft;
kernLeft = quoteleft;
kernRight = quoteleft;
lastChange = "2023-10-18 14:24:06 +0000";
layers = (
{
layerId = "CFBFE906-6BC9-42DE-B086-7F9578F7A428";
shapes = (
{
closed = 1;
nodes = (
(165,454,o),
(191,480,o),
(191,512,cs),
(191,546,o),
(166,568,o),
(134,568,cs),
(102,568,o),
(78,545,o),
(78,511,c),
(107,551,l),
(107,602,o),
(124,640,o),
(196,683,c),
(177,710,l),
(93,666,o),
(53,608,o),
(53,545,cs),
(53,488,o),
(84,454,o),
(127,454,cs)
);
}
);
width = 252;
},
{
layerId = m004;
shapes = (
{
closed = 1;
nodes = (
(146,454,o),
(171,478,o),
(171,510,cs),
(171,542,o),
(147,564,o),
(117,564,cs),
(86,564,o),
(63,541,o),
(63,509,c),
(86,551,l),
(86,602,o),
(105,643,o),
(177,686,c),
(160,710,l),
(76,666,o),
(39,604,o),
(39,542,cs),
(39,487,o),
(67,454,o),
(110,454,cs)
);
}
);
width = 218;
}
);
unicode = 8216;
},
{
color = 6;
glyphname = quoteright;
kernLeft = quoteright;
kernRight = quoteright;
lastChange = "2023-10-18 14:24:06 +0000";
layers = (
{
layerId = "CFBFE906-6BC9-42DE-B086-7F9578F7A428";
shapes = (
{
closed = 1;
nodes = (
(165,498,o),
(205,556,o),
(205,619,cs),
(205,676,o),
(174,710,o),
(131,710,cs),
(93,710,o),
(67,684,o),
(67,652,cs),
(67,618,o),
(92,596,o),
(124,596,cs),
(156,596,o),
(180,619,o),
(180,653,c),
(151,613,l),
(151,562,o),
(134,524,o),
(62,481,c),
(81,454,l)
);
}
);
width = 251;
},
{
layerId = m004;
shapes = (
{
closed = 1;
nodes = (
(148,498,o),
(185,560,o),
(185,622,cs),
(185,677,o),
(157,710,o),
(114,710,cs),
(78,710,o),
(53,686,o),
(53,654,cs),
(53,622,o),
(77,600,o),
(107,600,cs),
(138,600,o),
(161,623,o),
(161,655,c),
(138,613,l),
(138,562,o),
(119,521,o),
(47,478,c),
(64,454,l)
);
}
);
width = 218;
}
);
unicode = 8217;
},
{
color = 6;
glyphname = guilsinglleft;
kernLeft = guilsinglleft;
kernRight = guilsinglleft;
lastChange = "2023-10-18 14:24:06 +0000";
layers = (
{
layerId = "CFBFE906-6BC9-42DE-B086-7F9578F7A428";
shapes = (
{
closed = 1;
nodes = (
(416,21,l),
(327,139,o),
(263,189,o),
(175,260,c),
(259,326,o),
(322,376,o),
(416,497,c),
(386,520,l),
(265,397,o),
(184,337,o),
(50,278,c),
(50,242,l),
(185,182,o),
(266,122,o),
(386,0,c)
);
}
);
width = 456;
},
{
layerId = m004;
shapes = (
{
closed = 1;
nodes = (
(400,16,l),
(308,140,o),
(253,190,o),
(162,260,c),
(248,325,o),
(303,375,o),
(400,503,c),
(378,520,l),
(257,397,o),
(176,337,o),
(42,273,c),
(42,247,l),
(177,182,o),
(258,122,o),
(378,0,c)
);
}
);
width = 432;
}
);
unicode = 8249;
},
{
color = 6;
glyphname = quotesingle;
kernLeft = quotesingle;
kernRight = quotesingle;
lastChange = "2023-10-18 14:24:06 +0000";
layers = (
{
layerId = "CFBFE906-6BC9-42DE-B086-7F9578F7A428";
shapes = (
{
closed = 1;
nodes = (
(123,465,l),
(143,600,ls),
(148,630,o),
(152,646,o),
(152,665,cs),
(152,693,o),
(132,710,o),
(105,710,cs),
(78,710,o),
(58,693,o),
(58,665,cs),
(58,646,o),
(62,630,o),
(67,600,cs),
(87,465,l)
);
}
);
width = 210;
},
{
layerId = m004;
shapes = (
{
closed = 1;
nodes = (
(101,465,l),
(123,601,ls),
(129,631,o),
(133,647,o),
(133,666,cs),
(133,693,o),
(115,710,o),
(88,710,cs),
(61,710,o),
(43,693,o),
(43,666,cs),
(43,647,o),
(47,631,o),
(53,601,cs),
(75,465,l)
);
}
);
width = 176;
}
);
unicode = 39;
},
{
color = 6;
glyphname = florin;
lastChange = "2023-10-18 14:24:06 +0000";
layers = (
{
layerId = "CFBFE906-6BC9-42DE-B086-7F9578F7A428";
shapes = (
{
closed = 1;
nodes = (
(39,-257,o),
(47,-257,o),
(55,-257,cs),
(174,-257,o),
(246,-158,o),
(268,-33,cs),
(368,523,ls),
(381,597,o),
(402,660,o),
(440,660,cs),
(450,660,o),
(458,660,o),
(482,646,cs),
(522,622,ls),
(529,618,o),
(535,616,o),
(542,616,cs),
(567,616,o),
(589,643,o),
(589,660,cs),
(589,683,o),
(549,705,o),
(507,709,cs),
(499,710,o),
(491,710,o),
(483,710,cs),
(364,710,o),
(292,611,o),
(270,486,cs),
(170,-70,ls),
(157,-144,o),
(137,-207,o),
(99,-207,cs),
(89,-207,o),
(81,-207,o),
(57,-193,cs),
(16,-169,ls),
(10,-165,o),
(3,-164,o),
(-3,-164,cs),
(-28,-164,o),
(-50,-187,o),
(-50,-207,cs),
(-50,-230,o),
(-11,-252,o),
(31,-256,cs)
);
},
{
closed = 1;
nodes = (
(482,358,l),
(494,404,l),
(152,404,l),
(140,358,l)
);
}
);
width = 539;
},
{
layerId = m004;
shapes = (
{
closed = 1;
nodes = (
(40,-257,o),
(48,-257,o),
(56,-257,cs),
(175,-257,o),
(247,-158,o),
(269,-33,cs),
(369,523,ls),
(384,606,o),
(404,670,o),
(440,670,cs),
(447,670,o),
(454,667,o),
(461,663,cs),
(523,627,ls),
(531,622,o),
(536,621,o),
(542,621,cs),
(564,621,o),
(589,640,o),
(589,661,cs),
(589,684,o),
(549,705,o),
(507,709,cs),
(499,710,o),
(491,710,o),
(483,710,cs),
(364,710,o),
(294,611,o),
(271,486,cs),
(170,-70,ls),
(155,-153,o),
(135,-217,o),
(99,-217,cs),
(92,-217,o),
(87,-215,o),
(78,-210,cs),
(17,-174,ls),
(9,-169,o),
(3,-168,o),
(-2,-168,cs),
(-24,-168,o),
(-50,-187,o),
(-50,-209,cs),
(-50,-231,o),
(-9,-252,o),
(32,-256,cs)
);
},
{
closed = 1;
nodes = (
(483,361,l),
(493,401,l),
(151,401,l),
(141,361,l)
);
}
);
width = 539;
}
);
unicode = 402;
},
{
color = 6;
glyphname = at;
lastChange = "2023-10-18 14:24:06 +0000";
layers = (
{
layerId = "CFBFE906-6BC9-42DE-B086-7F9578F7A428";
shapes = (
{
closed = 1;
nodes = (
(635,-175,o),
(734,-145,o),
(797,-90,c),
(771,-60,l),
(717,-97,o),
(631,-122,o),
(533,-122,cs),
(300,-122,o),
(131,24,o),
(131,269,cs),
(131,492,o),
(284,661,o),
(502,661,cs),
(692,661,o),
(842,556,o),
(842,315,cs),
(842,175,o),
(773,81,o),
(694,81,cs),
(660,81,o),
(640,96,o),
(641,137,cs),
(650,408,ls),
(652,475,o),
(596,515,o),
(517,515,cs),
(433,515,o),
(336,457,o),
(308,386,cs),
(301,368,o),
(316,364,o),
(336,364,cs),
(375,364,o),
(403,377,o),
(406,390,cs),
(418,441,o),
(444,466,o),
(490,466,cs),
(535,466,o),
(567,433,o),
(566,388,cs),
(564,316,l),
(540,308,ls),
(363,249,o),
(308,183,o),
(309,116,cs),
(310,71,o),
(339,25,o),
(421,25,cs),
(461,25,o),
(503,38,o),
(556,89,c),
(563,89,l),
(567,70,o),
(577,27,o),
(646,27,cs),
(789,27,o),
(922,131,o),
(922,346,cs),
(922,577,o),
(760,710,o),
(523,710,cs),
(243,710,o),
(46,509,o),
(46,258,cs),
(46,-13,o),
(236,-175,o),
(520,-175,cs)
);
},
{
closed = 1;
nodes = (
(424,93,o),
(402,110,o),
(401,139,cs),
(400,168,o),
(418,226,o),
(554,271,cs),
(563,274,l),
(558,126,l),
(535,110,o),
(509,93,o),
(467,93,cs)
);
}
);
width = 974;
},
{
layerId = m004;
shapes = (
{
closed = 1;
nodes = (
(624,-175,o),
(723,-145,o),
(786,-90,c),
(765,-66,l),
(713,-106,o),
(623,-132,o),
(522,-132,cs),
(289,-132,o),
(120,24,o),
(120,269,cs),
(120,502,o),
(270,671,o),
(490,671,cs),
(688,671,o),
(831,546,o),
(831,315,cs),
(831,175,o),
(764,75,o),
(683,75,cs),
(642,75,o),
(629,93,o),
(630,131,cs),
(639,408,ls),
(641,475,o),
(585,515,o),
(506,515,cs),
(422,515,o),
(322,458,o),
(296,386,cs),
(290,369,o),
(305,365,o),
(327,365,cs),
(363,365,o),
(386,381,o),
(388,391,cs),
(399,448,o),
(437,474,o),
(476,474,cs),
(526,474,o),
(558,441,o),
(556,396,cs),
(553,309,l),
(529,301,ls),
(350,241,o),
(295,172,o),
(298,110,cs),
(300,69,o),
(323,25,o),
(404,25,cs),
(449,25,o),
(492,36,o),
(545,87,c),
(552,87,l),
(556,68,o),
(564,27,o),
(635,27,cs),
(778,27,o),
(911,131,o),
(911,346,cs),
(911,567,o),
(756,710,o),
(511,710,cs),
(229,710,o),
(35,509,o),
(35,258,cs),
(35,-13,o),
(225,-175,o),
(509,-175,cs)
);
},
{
closed = 1;
nodes = (
(413,88,o),
(391,102,o),
(389,138,cs),
(387,175,o),
(406,225,o),
(543,271,cs),
(552,274,l),
(547,120,l),
(524,105,o),
(498,88,o),
(456,88,cs)
);
}
);
width = 951;
}
);
unicode = 64;
},
{
color = 6;
glyphname = ampersand;
lastChange = "2023-10-18 14:24:06 +0000";
layers = (
{
layerId = "CFBFE906-6BC9-42DE-B086-7F9578F7A428";
shapes = (
{
closed = 1;
nodes = (
(738,0,l),
(738,40,l),
(673,45,o),
(653,62,o),
(603,112,cs),
(311,404,ls),
(252,463,o),
(212,504,o),
(212,565,cs),
(212,619,o),
(252,662,o),
(319,662,cs),
(388,662,o),
(419,616,o),
(419,560,cs),
(419,490,o),
(365,438,o),
(294,398,c),
(320,373,l),
(429,424,o),
(506,484,o),
(506,572,cs),
(506,665,o),
(411,710,o),
(332,710,cs),
(214,710,o),
(132,641,o),
(132,538,cs),
(132,459,o),
(186,408,o),
(250,344,cs),
(593,0,l)
);
},
{
closed = 1;
nodes = (
(403,-10,o),
(508,38,o),
(594,264,cs),
(628,353,o),
(656,365,o),
(721,370,c),
(721,410,l),
(503,410,l),
(503,370,l),
(514,369,ls),
(569,364,o),
(569,333,o),
(543,266,cs),
(468,74,o),
(385,39,o),
(305,39,cs),
(208,39,o),
(140,111,o),
(140,192,cs),
(140,273,o),
(190,324,o),
(262,361,c),
(235,382,l),
(129,348,o),
(53,276,o),
(53,174,cs),
(53,70,o),
(129,-10,o),
(280,-10,cs)
);
}
);
width = 761;
},
{
layerId = m004;
shapes = (
{
closed = 1;
nodes = (
(728,0,l),
(728,30,l),
(663,35,o),
(641,51,o),
(593,102,cs),
(301,404,ls),
(243,464,o),
(202,504,o),
(202,565,cs),
(202,629,o),
(242,672,o),
(309,672,cs),
(378,672,o),
(409,626,o),
(409,570,cs),
(409,490,o),
(355,441,o),
(284,401,c),
(310,383,l),
(419,434,o),
(496,484,o),
(496,572,cs),
(496,665,o),
(401,710,o),
(322,710,cs),
(204,710,o),
(122,641,o),
(122,538,cs),
(122,459,o),
(177,409,o),
(240,344,cs),
(573,0,l)
);
},
{
closed = 1;
nodes = (
(393,-10,o),
(498,38,o),
(584,264,cs),
(618,353,o),
(646,365,o),
(711,370,c),
(711,400,l),
(503,400,l),
(503,370,l),
(514,369,ls),
(569,367,o),
(568,333,o),
(543,266,cs),
(469,64,o),
(375,29,o),
(295,29,cs),
(198,29,o),
(130,101,o),
(130,192,cs),
(130,283,o),
(180,331,o),
(252,368,c),
(225,382,l),
(119,348,o),
(43,276,o),
(43,174,cs),
(43,70,o),
(119,-10,o),
(270,-10,cs)
);
}
);
width = 735;
}
);
unicode = 38;
},
{
color = 6;
glyphname = paragraph;
lastChange = "2023-10-18 14:24:06 +0000";
layers = (
{
layerId = "CFBFE906-6BC9-42DE-B086-7F9578F7A428";
shapes = (
{
closed = 1;
nodes = (
(272,-147,o),
(460,-34,o),
(460,251,cs),
(460,700,l),
(402,700,l),
(402,244,ls),
(402,61,o),
(343,2,o),
(319,-22,c),
(310,-22,l),
(320,-4,o),
(320,18,o),
(320,48,cs),
(320,700,l),
(262,700,l),
(262,25,ls),
(262,-54,o),
(233,-91,o),
(195,-91,cs),
(182,-91,o),
(172,-87,o),
(157,-79,cs),
(133,-66,ls),
(95,-45,o),
(65,-78,o),
(65,-103,cs),
(65,-128,o),
(110,-147,o),
(148,-147,cs)
);
},
{
closed = 1;
nodes = (
(234,700,l),
(114,700,o),
(35,621,o),
(35,511,cs),
(35,400,o),
(114,321,o),
(234,321,c)
);
},
{
closed = 1;
nodes = (
(266,320,l),
(266,700,l),
(234,700,l),
(234,320,l)
);
},
{
closed = 1;
nodes = (
(460,592,l),
(460,634,o),
(470,655,o),
(529,659,cs),
(550,660,l),
(550,700,l),
(307,700,l),
(307,658,l),
(438,658,l),
(441,592,l)
);
}
);
width = 584;
},
{
layerId = m004;
shapes = (
{
closed = 1;
nodes = (
(253,-147,o),
(441,-34,o),
(441,251,cs),
(441,700,l),
(388,700,l),
(388,244,ls),
(388,61,o),
(329,2,o),
(305,-22,c),
(296,-22,l),
(306,-4,o),
(306,18,o),
(306,48,cs),
(306,700,l),
(253,700,l),
(253,25,ls),
(253,-64,o),
(219,-101,o),
(181,-101,cs),
(175,-101,o),
(169,-100,o),
(162,-96,cs),
(106,-66,ls),
(83,-54,o),
(51,-78,o),
(51,-103,cs),
(51,-128,o),
(96,-147,o),
(134,-147,cs)
);
},
{
closed = 1;
nodes = (
(225,700,l),
(105,700,o),
(26,621,o),
(26,511,cs),
(26,400,o),
(105,321,o),
(225,321,c)
);
},
{
closed = 1;
nodes = (
(257,320,l),
(257,700,l),
(225,700,l),
(225,320,l)
);
},
{
closed = 1;
nodes = (
(441,602,l),
(441,644,o),
(451,666,o),
(510,669,cs),
(531,670,l),
(531,700,l),
(293,700,l),
(293,668,l),
(419,668,l),
(422,602,l)
);
}
);
width = 548;
}
);
unicode = 182;
},
